<svg id="Layer_1" data-name="Layer 1" xmlns="http://www.w3.org/2000/svg" viewBox="0 0 1000 513.76"><defs><style>.cls-1{fill:red;fill-rule:evenodd;}</style></defs><title>KWM VECTOR SIGNATURE2-01-01</title><path class="cls-1" d="M243.63,285.31c3.67,9.6-1.35,26.22,17.11,22.1,11.05-2.46,22.07-12.52,29-12.79,2.49,3.72,3.09,13,19.14,8,10-3.11,15.16-8.77,21.7-10.84l1,1.78c2.24,4.43,2.57,8.25,11.09,9.46,7.42,1.06,12.34-1.39,18.16-3.56,6.74-2.52,26.9-11,32.34-11.62,0,.16-20.19,26.06,0,24,10.93-1.11,16.17-9.16,24.63-11.81-1.82,7.34-36.37,68.12-42.56,78.8-9,15.53-11.15,24.17-24.65,35.06-27.26,22-62.05,13.1-89.4-3.94-6.21-3.86-13.46-6.68-19.23-10.65-14.42-9.95-45.59-27.7-63.64-28.86-19.25-1.24-34.08,4.71-36.44,22.37,55.68-48,117.89,69,192.9,42.4,17-6,25.08-10.36,37.11-27.66,7-10.07,37.09-67.8,47.55-86.46,32.51-58,17.18-44,9.84-49.26-4.2-3-3.69-5.73-12-3.05-11.93,3.84-2.92,2.39-24.76,8.08-10.34,2.69-38.24,17.91-47.62,15-.8-3,5.7-27.8-22.77-7.81-5.75,4-24.46,16.94-17.68.67,1.62-3.9,3.1-2.64.81-7.63-5.33-3.41-8.89-.21-12.51,2.42-7.15,5.22-28.11,20.24-36.29,17-2.11-8.39,6.15-18.62,4-26.61-6-9.85-42.26,20.64-51.14,27.09-5.73,4.17-11.29,8.81-20.43,6.9-1.63-14.85,33.24-43,44-53.19,4.13-3.89,7.37-8.07,11.56-12.08,7.85-7.5,34.51-29,43.39-30.57,2.48,3.37.38,3.25,4.15,5.31,3.17,1.74,6.25.76,8.7.16,6.45-11.14-6.46-20.67-20.46-12.57-18.24,10.55-24.76,17.54-38.78,28.48-12.57,9.81-35.23,31.6-48,43.32-5.92,5.41-29.11,32.59-8.53,41,19.49,8,45.68-25.09,58.63-28.43Zm33.47-35.85c2.84,6.09,48.32-9.64,59.18-16.82-11.55.21-64.36,2.26-59.18,16.82Zm686.4,9c-7.07,2.15-22.88,16.4-26.72,25.7-9,21.86,26.12,22.63,45.12,6.24,1.55-1.34,29.78-16.74,1.75-25.14-10.94-3.29-10-9.87-20.15-6.8Zm-8.7,32.06c1.11-2.44,13.13-18.48,27.37-15-.79,3.62-8,8.57-11.21,10.41a38.76,38.76,0,0,1-16.16,4.59ZM880.51,278c-4.28-10.71,10.59-18.33,9.28-25.76-1.22-6.95-23.89,10-41.54,11.41-4-6.54-1.81-13.66-13.26-16.28-10.29-2.36-19.35,1.27-23.75,6-3.25,3.47-7.47,14.14-11.65,19.62s-9.2,13.7-7,22.59c5.66,23.2,36,3.81,44.45-9.88,2.47-4,6.64-11.63,8.68-11.7,3.28-1,16-4.82,22.74-4.29-.68,10.65-2.46,18.84,11,19.88,12,.91,16.76-5.76,28-5.94-2.16,6.74-21,26.55-26.92,34.48L854,353.86c-10.29,15.15-29.19,43.49-24.31,62.82,1.42,5.59,8.4,10.88,14.37,14.53-16.73-38.81,50.47-111.7,72-139.13,5.59-7.12,26.35-30,34.46-36,3.22-2.4,6.47-3.5,8.74-5.32,7.63-6.14,1.23-15.88-8.29-11.94-4.85,2-10.94,9.86-14.44,13.85-8.11,9.22-44.46,30.36-56,25.35ZM803.64,294.9c-2.48-8.89,5-17.87,10-22.6a56.24,56.24,0,0,0,19.54,1.83c-.88,4.36-16.25,26.9-29.49,20.77ZM828.44,257c1.6.31,7.46,0,9.79,5.06,2.81,7.52-14.3,1.05-18.29.88-.39-2.47-.55-6.45,8.5-5.94ZM666,245c-15.71,2.07-27.3,12.66-29.78,14.12-8.61,7.38-15.72,1.76-17.24,3.63-1,1.24,3.35,8.85,2.54,12.57-.93,5.92-2.23,4-4.17,11.59-4.06,15.95-.5,26.56,17.06,27.22,5.51.21,39.44-.17,31-10.86-4.13-5.24-32,5.82-38.05-3.42-2.85-4.36-.33-13,3.47-15.7,5-3.58,12.55-.2,20.59-1.48,12-1.91,25.79-4.61,30.49-14.21,4.61-9.42-2-25.3-15.92-23.46ZM640,271.24c1-4.6,10.66-10.61,13.91-12.74,4.76-3.12,13.16-7.11,18.55-.13,8.54,11.07-24.15,17.77-32.46,12.87ZM7.46,494.83c4.24-.85,28.2-4.68,19.71-20.95,2.51-22.89,48.89-84,62.42-102.5,13.5-17.59,28-34.15,41.31-51.12L226,207c11.62-12.69,73.87-86.38,78.5-94.32L328.6,76.84c2.94-7.08-2.75-13.24-10.11-9-7.62,4.4-34.89,42.13-41.89,50.57-9.69,11.69-10,17.68-13.47,21.17s-3.76.73-5,6.35c-1,4.56,2.23,1.66-2.15,6.53l-25.38,32.89c-4.25,5.62-6.72,7-11.41,12.21-7,7.76-13.24,18.18-20.45,25.81C174.44,249,114,322.24,92.86,349.61l-59.13,80c-9.64,13.21-32.2,47.67-26.27,65.19ZM462.8,180c18.6,13.93,31.21-2.87,39.51-3.59,17-1.5,59.1-10.95,72.2-7.5-1.8,7.77-36.31,41.81-45.34,48.87s-61.95,60.57-68.51,67.65c-11.84,12.77-38.88,35.22-28,43.15,11.39,8.33,38.11-17.83,46.68-24.19,10.34-7.67,63.64-50.43,72.57-50.31-2.42,12.13-23,34-19.47,54.37,3.93,22.59,33.76,24.25,51,13.93,6.59-4,11.72-13.52,16-21.08,10.92-19.13,9.08-41.14,2.67-60.81-1.69-5.18-2.77-7.29-4.16-12.79-1.52-6-4.11-8.19-4-14.19,18.63-8.22,46.65-7.45,35.86-17.66-6-5.68-44.43,8.2-45,8.87-5.58,11.08,10.1,39.43,12.42,53.07,3,17.82-6.33,47.16-18.28,55.08-10.29,6.81-44,17.3-33.61-22.09,5.27-20,28.28-44.42,21-51-9.72-8.76-68.09,39-76,46.13-5.42,4.87-9.86,6.29-15,10.87-12.86,11.45-6.25,4.74-14.83,11.09-4.89,3.61-8.33,8.75-15.05,9.83.79-7.08,58.54-64.86,69.44-75.5,20.64-20.15,56.92-50.36,73.87-71.41,14.76-18.34-28.1-12.45-35.56-11.66-35.48,3.77-38.78,4.91-69.73,12.23-8.79,2.07-18.76,0-20.61,8.62ZM752,204.11c.21-9.28,3.29-20.39.24-28.77-3.11-8.55-11.54-11.37-20.11-5.48-9.74,6.7-22.71,26.5-28.11,39.62a182.32,182.32,0,0,0-13.41,55.22c-1.29,15.9-1,26.19,4.5,39.61,6.57,15.9,17.5,3.53,15.55-12.76-1.2-10-3.61-10-10.18-15-.13-21.39,4.6-40.75,11.42-59.24,17-46.16,44-57.37,25.41,1.33-1.81,5.69-4.45,13.77-7.12,18.66-2.84,5.22-9.35,10.39-6.1,17.13,5.87,6.34,14.35-12.93,16.24-16.68,7.19-14.28,21.25-30.69,31.09-43.2,5.6-7.11,29-32.84,35-37.27,14.93-11.2,23.86-20.38,44.8-27.17,6.57-2.13,23.19-6.45,30.64-2.77-.6,22.65-87.88,108.06-109.08,131.26L754.61,280a782.3,782.3,0,0,0-52.38,69.4L673.8,402.87c-5.65,13.53-24.58,49-8.27,60.92,10.88,7.11,34.17.52,47.85-28.67-4.28,2.5-8.78,8.21-14,11.91s-30.94,17.12-23.12-13c5.54-21.33,14.4-38.85,24.24-58.16,10.77-21.14,18.88-32.12,31.53-49.82l11.13-15.37c35.47-45.69,50.25-58,87.83-99l38-42.15c11.33-14.49,11.79-13.14,22.05-31.09,12.07-21.14-2-26.58-19.41-24.1-22,3.15-36.26,9.12-53.79,22.31-23,17.27-35.7,28.44-53.36,52.74-3.61,5-6.79,13.41-12.54,14.74ZM399.74,298.87c3.14-6,6.35-6.85,10.35-11.56s3.39-7.54,11.86-7.57c-1.42,4.16-5.87,7.49-9.44,10.42-4.11,3.38-6.59,7.24-12.77,8.71Z"/></svg>