<?xml version="1.0" encoding="UTF-8"?>
<!DOCTYPE svg PUBLIC "-//W3C//DTD SVG 1.1//EN" "http://www.w3.org/Graphics/SVG/1.1/DTD/svg11.dtd">
<!-- Creator: CorelDRAW X8 -->
<svg xmlns="http://www.w3.org/2000/svg" xml:space="preserve" width="7.26465in" height="7.13549in" version="1.1" style="shape-rendering:geometricPrecision; text-rendering:geometricPrecision; image-rendering:optimizeQuality; fill-rule:evenodd; clip-rule:evenodd"
viewBox="0 0 7715 7578"
 xmlns:xlink="http://www.w3.org/1999/xlink">
 <defs>
  <style type="text/css">
   <![CDATA[
    .str0 {stroke:#373435;stroke-width:10.4532}
    .fil1 {fill:none}
    .fil0 {fill:#373435}
   ]]>
  </style>
 </defs>
 <g id="Layer_x0020_1">
  <metadata id="CorelCorpID_0Corel-Layer"/>
  <g id="_2951867208896">
   <g>
    <path class="fil0 str0" d="M862 1933c501,-473 1473,-1373 2229,-719 427,369 327,965 -134,1304 -184,136 -363,216 -578,374 213,-160 392,-243 574,-379 491,-370 531,-1043 45,-1336 -802,-482 -1565,293 -2063,817 -17,20 -47,22 -67,6 -20,-17 -23,-47 -6,-67z"/>
   </g>
   <path class="fil1" d="M898 1963c622,-748 1330,-1020 1729,-939 291,59 505,174 643,440 138,266 73,690 -95,861 -317,321 -526,329 -796,567"/>
   <g>
    <path class="fil0 str0" d="M2425 2908c-689,593 -270,595 590,652 10,1 30,2 42,0 75,-91 758,-903 956,-985 -396,16 -616,28 -573,-600 46,-677 797,-1480 1277,-1922 -476,442 -1223,1249 -1265,1923 -49,778 301,550 900,578 950,44 583,942 -61,1101 -687,170 -416,-653 -287,-1018 -1267,885 -233,1028 -1415,935 -653,-52 -825,-331 -252,-700 10,-25 38,-36 62,-26 24,10 36,37 26,62zm631 655c-2,1 -3,2 -4,4l4 -4zm1000 -989c1,0 1,0 2,1 50,48 -594,1246 225,1050 614,-147 992,-1003 68,-1051 -106,-6 -205,-4 -295,0z"/>
   </g>
   <path class="fil1" d="M2381 2890c-6,15 -898,609 209,651 146,5 468,71 486,41 259,-443 983,-1036 967,-990 -17,46 -347,885 -113,1000 234,116 349,46 419,30 69,-17 329,-168 382,-231 53,-63 246,-307 161,-538 -86,-231 -264,-264 -323,-260 -60,3 -50,-40 -445,-30 -396,10 -353,26 -521,-26 -168,-53 -193,-535 -123,-779 71,-245 443,-1028 1237,-1705"/>
   <g>
    <path class="fil0 str0" d="M4756 79c-539,842 -386,1480 663,1060 512,-205 1068,-422 1353,262 364,873 -818,2045 -1651,2391 584,-36 1205,402 1032,1109 -27,110 -61,224 -93,337 122,-475 240,-993 -355,-1279 -351,-169 -574,-109 -666,-140l-2 -15c8,-7 9,-6 23,-11 815,-315 2042,-1510 1674,-2376 -402,-945 -1303,-83 -1848,-71 -798,18 -430,-918 -209,-1320 15,-21 44,-27 66,-13 22,15 28,44 13,66zm1304 5159c-41,144 -78,286 -93,417 18,-130 55,-271 93,-417zm-93 417c-36,319 59,572 556,630 504,58 789,-194 1140,-488 -351,296 -635,549 -1141,493 -520,-58 -600,-310 -555,-635z"/>
   </g>
   <path class="fil1" d="M4717 53c0,0 -588,880 -120,1187 469,306 1203,-416 1645,-281 442,136 580,517 570,765 -9,248 -158,844 -705,1401 -547,557 -1173,712 -1045,682 129,-29 610,63 880,287 271,224 257,666 205,804 -53,139 -229,819 -176,1059 53,241 855,694 1692,-160"/>
   <g>
    <path class="fil0 str0" d="M7700 5826c-749,903 -1584,2029 -2933,1683 -820,-210 -932,-978 -648,-1693 127,-318 530,-939 240,-1331 -114,-155 -459,-115 -497,273 -74,767 361,1690 -487,2278 -828,574 -1551,-1204 -2915,-142 -156,122 -227,239 -308,413 81,-174 151,-292 307,-415 1359,-1066 2093,702 2908,133 838,-586 401,-1506 472,-2272 38,-409 413,-457 542,-285 302,404 -101,1031 -230,1361 -270,690 -169,1437 627,1635 1319,327 2149,-786 2847,-1696 17,-21 46,-25 67,-9 21,17 24,46 8,67z"/>
   </g>
   <path id="_x0020_" class="fil1" d="M7663 5797c-798,1017 -1194,1392 -1703,1605 -540,227 -1175,140 -1460,-16 -285,-157 -616,-584 -491,-1170 125,-587 471,-891 448,-1309 -23,-419 -85,-452 -178,-498 -93,-46 -284,11 -344,86 -61,74 -55,118 -84,260 -30,142 19,696 26,834 6,138 65,279 22,516 -43,237 -93,405 -195,560 -599,909 -1153,324 -1780,-4 -521,-272 -1525,-6 -1772,646"/>
   <g>
    <path class="fil0 str0" d="M101 7313c-170,-1053 -303,-3053 1353,-2453 1089,394 941,304 1460,-721 -512,1034 -367,1124 -1467,739 -1621,-568 -1498,1406 -1251,2435 0,27 -21,48 -47,48 -26,0 -48,-21 -48,-48z"/>
   </g>
   <path class="fil1" d="M149 7313c0,-19 -340,-1341 76,-2126 415,-784 1362,-256 1404,-237 42,18 639,150 704,117 64,-33 94,100 581,-928"/>
   <path class="fil0 str0" d="M2923 4186c-580,149 -2536,973 -2681,-213 -122,-999 1941,-1678 1308,-2060 -218,-131 -524,-5 -734,72 213,-80 516,-207 737,-77 646,383 -1411,1084 -1281,2061 154,1157 2102,289 2634,123 26,-5 50,13 55,38 5,26 -12,51 -38,56z"/>
   <path class="fil1 str0" d="M2914 4139c-534,99 -1826,718 -2357,319 -531,-399 -225,-961 -139,-1101 87,-140 452,-450 830,-740 377,-290 427,-469 411,-569 -16,-101 -213,-339 -843,-63"/>
  </g>
 </g>
</svg>
