<svg id="Layer_1" data-name="Layer 1" xmlns="http://www.w3.org/2000/svg" viewBox="0 0 1366 768"><defs><style>.cls-1{fill:#00f9ff;stroke:#000;stroke-miterlimit:10;stroke-width:2px;}.cls-2{fill:#f0f;}.cls-3{fill:#00c600;}.cls-4{fill:#ed1c24;}.cls-5{fill:#fbb03b;}.cls-6{fill:#00c;}</style></defs><title>portfoio-div</title><path class="cls-1" d="M277,96.76a5.27,5.27,0,0,1,2-.26c2.31,0,3.78,1.28,4.43,3.84v.52a47.67,47.67,0,0,1-.73,6.11,75.74,75.74,0,0,0-1.05,9.41q.93,9.54,6.79,15.23a22,22,0,0,0,14.33,6.47l3.44-.52c1.05-.08,1.88-.17,2.5-.26s1.25-.21,2-.39q2-.42,6-3.33c2.55-1.94,4.41-2.91,5.6-2.91a3.46,3.46,0,0,1,3.23,2.4,13.33,13.33,0,0,1,1.08,5.3,31,31,0,0,1-1,7.53q-3.12,11.81-10.26,16.82-7.15,5.17-18.61,5.17-11.71,0-19.46-6.63t-10.87-18.95a73.89,73.89,0,0,1-1.66-13.48,65.14,65.14,0,0,1,3.7-21.08Q272,98.38,277,96.76Zm48.21-11.13v.81a18.66,18.66,0,0,1-3.35,10.48q-3.58,5.4-8.59,5.56a8.69,8.69,0,0,1-3.94-1.75,24.26,24.26,0,0,1-4-3.55,24.61,24.61,0,0,0-4.08-3.59,8.06,8.06,0,0,0-4.4-1.2,15.61,15.61,0,0,0-5.86,1.75A19.77,19.77,0,0,1,284.6,96c-1-.37-1.9-.72-2.86-1.07a3.88,3.88,0,0,1-2.38-1.58,5.14,5.14,0,0,1-1.08-3,17,17,0,0,1,4.16-10.09,44.63,44.63,0,0,1,12.3-8.47,32.72,32.72,0,0,1,13.37-3.17,19.31,19.31,0,0,1,12.06,4.24Q324.8,76.78,325.18,85.63Z"/><path class="cls-1" d="M345.69,68.3a10.28,10.28,0,0,1,8.71,4.37,18.67,18.67,0,0,1,3.09,10.86v2.78c-.08.71-.15,1.51-.23,2.39q-1.92,26.35-4.43,43a121.24,121.24,0,0,1,9.56-22.24Q368,99.27,372.87,99.28h.5q6.21.54,9.29,9.67a137.43,137.43,0,0,1,5.13,21.72q1.2,11.52,1.19,15a56.13,56.13,0,0,1-2.5,17q-2.5,7.95-9.18,7.95c-2.54,0-4.1-.67-4.66-2s-1.21-4-1.78-8.18a113,113,0,0,0-2.15-11.68q-1.79-7.27-3.21-11.51c-.72-2.3-1.91-3.46-3.58-3.46-1.44,0-2.84,1.16-4.2,3.46q-2.39,4.11-5.6,14.57t-3.69,11.78c-1.2,3.45-2.76,5.18-4.66,5.18q-2,0-3.35-7.31-1.32-7.14-2.39-18.91t-2.36-26.65q-.74-8.34-1.46-25.8.62-10.47,2.39-16.17Q338.42,68.31,345.69,68.3Z"/><path class="cls-1" d="M419.08,101.67a26.34,26.34,0,0,1,10.75,2.65,15.33,15.33,0,0,1,6.9,7,16.39,16.39,0,0,1,1.55,7.27,24.65,24.65,0,0,1-.35,4,15.37,15.37,0,0,1-5.86,9.93,20.62,20.62,0,0,1-10.49,4.39,8.17,8.17,0,0,1-4.77-1.87,3.59,3.59,0,0,1-1.55-2.91,4.55,4.55,0,0,1,.12-.94c.15-.77,1.27-2.14,3.34-4.09a9.63,9.63,0,0,0,3.1-7.29q0-6.5-5.6-6.5-4.55,0-6.93,5.56a33.24,33.24,0,0,0-2.62,11.55,20.52,20.52,0,0,0,1.66,7.4q3.35,7.56,12.79,8.08a16,16,0,0,0,6.09-1.58q2.51-1.32,5.59-3.3t4.66-1.87q3.46,0,3.47,5.43a26.29,26.29,0,0,1-2.27,10,21.8,21.8,0,0,1-7.53,9.41q-5.26,3.86-13.48,3.85h-.73q-9.53,0-14.91-4.11a20.09,20.09,0,0,1-7.29-11A60.71,60.71,0,0,1,393,137.43q.23-16.43,6.78-26.22,6.48-9.54,19.12-9.54Z"/><path class="cls-1" d="M471.58,101.67q6,0,6,3.59c0-1,.91-1.85,2.74-2.65a11.25,11.25,0,0,1,4.54-1.2c2.55,0,4.93,1.15,7.16,3.45a12.05,12.05,0,0,1,3.33,8.74,11.33,11.33,0,0,1-3.09,8.21,11,11,0,0,1-7.4,3.43,8.38,8.38,0,0,1-6.32-3.17,12.62,12.62,0,0,1-3-8.47c.18-1.25.34-2.22.5-2.91s.15-1.46.23-2.26a16.94,16.94,0,0,0-6.93,7.82A47.58,47.58,0,0,0,466.22,128q.22,7.41,3.46,12.06a11.49,11.49,0,0,0,9.06,5.31h.47a10.79,10.79,0,0,0,6.7-2.66q3.46-2.78,4.78-2.78a3.65,3.65,0,0,1,3.2,1.85,7.81,7.81,0,0,1,1.2,4.36,17.68,17.68,0,0,1-4,11.14,26,26,0,0,1-10,7.81,26.64,26.64,0,0,1-10.64,2.52h-.46a21.47,21.47,0,0,1-15.41-6.11q-6.21-6-8.1-16.68c-.24-1.4-.56-4.05-1-7.93a43.19,43.19,0,0,1,7.29-24.12A24.13,24.13,0,0,1,471.58,101.67Z"/><path class="cls-1" d="M521.22,126.7q1.54-4.89,9.79-12.31a76.94,76.94,0,0,1,15.38-11.14,6.38,6.38,0,0,1,3-.77,7.76,7.76,0,0,1,6,2.62,10.32,10.32,0,0,1,2.24,6.63c0,3.53-.88,5.88-2.62,7a52.06,52.06,0,0,1-9.18,4.22q-6.55,2.65-8.25,6.11a13.31,13.31,0,0,1,5.51,4.88,101.61,101.61,0,0,1,5.59,12.74q3,7,5.51,9.38a11.56,11.56,0,0,0,4.63,3.07c1.44.52,2.28,1.17,2.51,2a5,5,0,0,1,.26,1.46c0,1.76-1.12,3-3.35,3.85a24.55,24.55,0,0,1-8.36,1.45,14.53,14.53,0,0,1-11.45-5q-4.54-5-9.56-14.81t-8.33-13.26q0,.25-2.77,19.85-1.89,13.26-5.36,13.26h-.23q-1.92,0-2.85-4.49-1.08-4.36-2.51-14.2-1.33-11.64-2.65-29.13T502.6,92.94q.24-9.8,2.15-15.76t8.84-6A9,9,0,0,1,520,73.73a15.38,15.38,0,0,1,3.7,6.36,26.23,26.23,0,0,1,1.19,7.81Q524.92,98.9,521.22,126.7Z"/><path class="cls-1" d="M628.59,68.82a28.67,28.67,0,0,1,11,2.65,8.34,8.34,0,0,1,5.13,8,8,8,0,0,1-1.66,5,6.94,6.94,0,0,1-3.93,2.78,19.41,19.41,0,0,1-4.31-1.47,17.19,17.19,0,0,0-6.43-1.47q-7.64,0-11.91,8.5a39.69,39.69,0,0,0-4.65,17.59,30.68,30.68,0,0,0,2.38,11.67,19.32,19.32,0,0,0,5.36,8.09,14.72,14.72,0,0,0,8.12,2.78q7.62-.42,12-7.31A28.66,28.66,0,0,0,644,109.88a46.7,46.7,0,0,0-.85-7.95q-1-4.75-1.07-6A10.81,10.81,0,0,1,642,94.4a9.1,9.1,0,0,1,1.55-5.05,5.88,5.88,0,0,1,5.13-2.91q6.95,0,10.77,14.71a69.22,69.22,0,0,1,1.54,16,100.37,100.37,0,0,1-3,24.64,36.14,36.14,0,0,1-12.28,18.56q-9.18,7.27-18.5,7.27a30.06,30.06,0,0,1-16.92-5q-7.77-5-11.7-15.1a79.48,79.48,0,0,1-4.66-25.16q.5-20.91,10.5-37A45.3,45.3,0,0,1,615.5,73.31,22.32,22.32,0,0,1,628.59,68.82Z"/><path class="cls-1" d="M685.53,101.41q4.2,0,4.2,6.21a42.21,42.21,0,0,1-1.34,9.15,46.42,46.42,0,0,0-1.55,9q.49,14.33,9.44,14.71h.24a7,7,0,0,0,6.67-3.85,21.2,21.2,0,0,0,2.15-10.18,45.72,45.72,0,0,0-.46-5.43q-.5-3.44-1-6.08t-1.2-5.18a9.94,9.94,0,0,1,1.92-5.82,5.44,5.44,0,0,1,4.4-2.26q4.66,0,8.83,12.32a76.72,76.72,0,0,1,4.2,24.64,29.69,29.69,0,0,1-7.55,20.4q-7.63,8.59-18.47,8.6h-.26q-7.75,0-14.66-6.37a31,31,0,0,1-9.44-14.84c-.31-1.75-.59-4.34-.84-7.79a83.12,83.12,0,0,1,4.43-24.77Q679.33,101.41,685.53,101.41Z"/><path class="cls-1" d="M749.13,77.84q7.51,0,9.67,4.24,1.91,3.84,1.9,13.22v2.26h.49c2.94,0,4.92.72,5.95,2.14s1.57,4.48,1.57,8.73v1.32a11.29,11.29,0,0,1-1.31,6c-1,1.68-3.12,2.53-6.21,2.53q0,1.06-1.57,14.16a214.72,214.72,0,0,1-4.17,24.38q-2.73,11.11-6.32,11.12-2.62,0-4.54-4.62a66.1,66.1,0,0,1-3.33-12.06q-1.46-7.28-2.4-16.69t-1.67-16c-3.09,0-5.24-.79-6.44-2.39s-2-4-2.16-7.66c0-4.25.57-7.16,1.69-8.73s3.18-2.39,6.44-2.39V95.72q0-9.54,2.51-13.51C741,79.3,744.28,77.84,749.13,77.84Z"/><path class="cls-1" d="M797.08,95.43q0,10.6-3.7,29T783.71,143q-5.6,0-9.06-17.88t-3.93-29.94a64,64,0,0,1,2.39-18.91q2.26-7.7,10.6-7.7a10.51,10.51,0,0,1,10.39,6.76,38.64,38.64,0,0,1,3,15.74ZM783.71,143a10.58,10.58,0,0,1,8,3.59,13,13,0,0,1,3.21,8.86,12.75,12.75,0,0,1-3.22,8.88,10.34,10.34,0,0,1-8,3.57,9.94,9.94,0,0,1-7.75-3.72,12.33,12.33,0,0,1-3.32-8.73,12.64,12.64,0,0,1,3.32-8.73A10.18,10.18,0,0,1,783.71,143Z"/><path class="cls-2" d="M78.55,304.34q-.54,1.35-.9,1.35l-.37.24H73.76l-.57-.61-1.23.61H65.63a9.49,9.49,0,0,1-1.41-.26l-.48-.35-.18.61-.19-.61-1.33.61H55.43a6.73,6.73,0,0,0-2.53,0H50.26a23.29,23.29,0,0,0-4.79,0H33.07l-1.32-.61H30.9l-.37.61-.38-.61h-.94c-.06.31-.59.51-1.59.61h-8c-.13,0-.25-.55-.38-1.65s-.19-2.88-.19-5.33q0-4.29.29-10.9l-.38-.49q0-7.59-.19-8.69.86-3.93,0-28.17c.19,0,.28-.45.28-1.35a6.85,6.85,0,0,0,0-1.71,75,75,0,0,1-.28-9.19q.2-10.53.19-9.18l.94-1.35-.53-.73L19.06,225V201.1l.85-1v-1.59a20.8,20.8,0,0,0-.34-3.06,21.29,21.29,0,0,1-.34-3.31l-.17-.61.47-1.1.66-.62,1.13.5c4.13-.5,6.73-.33,7.8.49a22.46,22.46,0,0,1,5-.49H39l.94-.5,1.41.5,1.5.49h4.89a7.27,7.27,0,0,1,2.72,0l.19-1,.56,1,.19-.74,1.41-.25,1.5,1a9.83,9.83,0,0,0,1.79-1l2.54,1,1.5-.49a43.54,43.54,0,0,1,6,.49h6.2a12.32,12.32,0,0,1,3.94-.25l.76-.24.94.36.28,1.11.28.24q0-.73-.28,7.73a56.6,56.6,0,0,0,.28,7.72l-.28,1a28.58,28.58,0,0,1,.28,5.76c-.5,0-.6.29-.28.86A21.85,21.85,0,0,0,78,218.4l.28-.25.28,7.62a1,1,0,0,0,0,.61v1.11A41.08,41.08,0,0,1,78,234a23.2,23.2,0,0,0,.56,2.58l-.28,1,.28.25a18.26,18.26,0,0,0,0,2.58,25,25,0,0,1-.28,3.06,15.81,15.81,0,0,1,.28,5.53,29.37,29.37,0,0,1-1,5.65q.27,2.7.56,8.59l.47.37V267q-.28,3.06-.94,7.61a14,14,0,0,1,.59,5.15l.35.86v7.12c0,.66-.07,1.68-.22,3.07-.44.25-.51.45-.22.62l-.88.73a2.56,2.56,0,0,1,.76,1.11c.25.57.25.86,0,.86l.42.12.14,1.23L78,296l.28.24a69.94,69.94,0,0,1,0,7.12,2.31,2.31,0,0,1,.08.62C78.37,304.29,78.44,304.42,78.55,304.34ZM74,251.13a14,14,0,0,0-.15-1.47,15.31,15.31,0,0,1-.14-1.71,7.82,7.82,0,0,0-.56-3.07c0-.33.12-1.55.38-3.68a14.67,14.67,0,0,0,.09-3.55,4.7,4.7,0,0,0,0-1.84c.12-.9.19-3.39.19-7.48l.09-.86-.66-2.57.57-2.58V202.09a1.63,1.63,0,0,0-.66-1.28l-1.21-1-.37.49-.56-.49-2,.73-.37-.49a14.37,14.37,0,0,1-1.49-.12,14.87,14.87,0,0,0-1.59-.12l-1.12.73a1.56,1.56,0,0,0-1.22-.73H60.77l-.28.49-.37-.49-1.12.61c-1.31,1.63-2.18,2.78-2.62,3.43a8.74,8.74,0,0,0-1.58,4.05l-.47.49-.56-.25q-.66,0-4,5H49.1l-5.05-6.37c-.12-.42-.65-.87-1.58-1.37a6.67,6.67,0,0,0-2.2-4.19,4.57,4.57,0,0,0-3.88-1.06,2.74,2.74,0,0,0-1.4-.37,4.47,4.47,0,0,0-1.49.57l-.75,1.14c-.75-1-1.46-1.39-2.15-1.22l-.37-.49a7.35,7.35,0,0,0-2.34.49l-.37-.49a5,5,0,0,1-3,.49c-.14,1.47-.2,4.82-.2,10.05a11.6,11.6,0,0,1-.29,2.33l.29.61a9.22,9.22,0,0,0-.47,1.84,3.51,3.51,0,0,1,.08,1.47,23.87,23.87,0,0,0,.57,5.27,46.69,46.69,0,0,0-.59,10.91l-.25.86.25.74a47.44,47.44,0,0,0,.17,5l.42,1a76.56,76.56,0,0,0-.18,7.85,14.54,14.54,0,0,0,.84,5.39c-.31,1-.69,2.42-1.13,4.3.32.41.47,2.77.47,7.11a42.39,42.39,0,0,0,.66,7.72l.75,1.1a3.92,3.92,0,0,0-.47,2.09,12,12,0,0,0,.29,2.45l-.29.37.57,1a18.42,18.42,0,0,0,.75,4.41,15.81,15.81,0,0,1,.66,4.66l.47,1.72-.1.24a23.21,23.21,0,0,0,1.13,3.07l-.09.12L30,296.25v.61a3.12,3.12,0,0,0,1,2.33A4.68,4.68,0,0,0,32.5,302q1.78-1.47,3.71-3a12.3,12.3,0,0,0,3.06-3.5l1.69.25c.63-.74,1.53-1.88,2.73-3.44l-.94-2.2-.29.37L42.09,289q-1.32-1.71-2.54-8.82c-.56-3.35-1.13-6.66-1.69-9.93H38c.13,0,.19-.13.19-.37l-.09-1.35-.57-.24v-3.19l.28-.37-.28-1.35-.28-5.76-.38-.49V251l.19-.49a11.09,11.09,0,0,0-.56-3.07,20.21,20.21,0,0,0,.37-5,14.45,14.45,0,0,0-.56-3.31l.28-1.35a37.07,37.07,0,0,0-.65-8.34,12.16,12.16,0,0,0,.46-3.43,2.09,2.09,0,0,1,.38-1.47,1.32,1.32,0,0,0,.38-.12,1.34,1.34,0,0,1,.37-.13,9.56,9.56,0,0,1,1.65,2.15c1,1.43,1.92,2.15,2.86,2.15.32.73.66,1.47,1,2.2.5,1,1,1.51,1.5,1.6,1.75,2.69,3,4,3.76,4a13.07,13.07,0,0,0,4.79-5.64,23,23,0,0,0,2.63-3.19l.1-1.22A13.91,13.91,0,0,0,58.25,224l.75,1.11-.18,12.3a58.77,58.77,0,0,0,.56,7.5L59,246.18l-.09,1.72.09.37-.18.25a6,6,0,0,1,.23,2.27,4,4,0,0,0,.89,2.77,5.73,5.73,0,0,0-.84,2.83v2.83l-.28.36c.18.09.32.39.42.93s.3.8.61.8l.38.37h1.59l.75-.49a7.14,7.14,0,0,0,4.42.49l1-1a2.88,2.88,0,0,0,2.07,1,9.43,9.43,0,0,1,2.92-.62,12.36,12.36,0,0,0,.65-4.66c0-3,0-4.69.1-5Zm-3.48,37.76V288q-1.78-2.2-3.57-4.29A21.76,21.76,0,0,1,63.7,279q-4.32,4.79-7.8,9.32l4.89,6.86.47-.36-.28.36a10.4,10.4,0,0,0,2.44,2.58A106.07,106.07,0,0,0,70.47,288.89Zm.09-12.14h-.09a23.11,23.11,0,0,0-4.89-6.86,5.46,5.46,0,0,0-1.69-2.08h-.56a42,42,0,0,1-2.82,3.43l.18.24q-1.5,2.08-4.41,5.89c.87,1,2.07,2.45,3.57,4.41l3.66-4,3.48,4A38.18,38.18,0,0,0,70.56,276.75Z"/><path d="M131.93,203.08c-.07.16-.22,1-.47,2.45l-.28.37c-.07.41-.19,1.12-.38,2.14a13.88,13.88,0,0,0-.28,2.39l.09.25a6.3,6.3,0,0,0-.56,2.33q0,12.62-8.74,38.12l.19.25a26.53,26.53,0,0,0-1.69,3.19,9.27,9.27,0,0,1-1.23,4.53l.29.25L115.58,265v1.1l-.57.12.38.12q-3.77,7.73-7.61,15.33-5.27,10.05-8.93,13.12a18,18,0,0,0-3.2,4,23,23,0,0,1-3.29,4.29h-.65a21.69,21.69,0,0,1-1.7-1.84q.19-.86-3-5.88a44.48,44.48,0,0,0-4.33-6.13q1.89-1.59,5.55-5.15a82.65,82.65,0,0,1,6.48-7.72,17.25,17.25,0,0,1,2.35-4.72,25.7,25.7,0,0,1,3.1-4.36l.47-2.2q2.93-5.28,2.92-7.36l1-1.84-.66-2,.19-.24a34.27,34.27,0,0,0-1.5-3.93,2.23,2.23,0,0,0-.66-1.71,25.39,25.39,0,0,1-3.85-7.6c.18-.17,0-.7-.66-1.6l-1.13-1.71a29.38,29.38,0,0,1-2.54-6.5,31.37,31.37,0,0,1-3.19-6.5,36.32,36.32,0,0,0-1.88-5c-.94-1.48-1.85-2.9-2.73-4.3a14.3,14.3,0,0,1-1.88-5L82.78,208l.09-.37c-1.56-2.61-2.35-4.37-2.35-5.27l.85-1.47,4.6.73h.57l1.31.49.29-.49h.75l.18-.73.57.73h.28a27.64,27.64,0,0,0,3.29.49l.38-.3.28-.61.94-.31a.69.69,0,0,0,.19.73l.18-.36.76.36h.46A29,29,0,0,1,99.6,209l-.19.25v1a24.21,24.21,0,0,1,4.7,8.88l-.19,1.22a8.94,8.94,0,0,1,2.54,3.53,14.28,14.28,0,0,0,1.32,3.16l.18.85c2,3.73,3,5.6,3.29,5.6h.47a15.12,15.12,0,0,0,2.07-4.57l1.32-4.94-.1-1.36q.28-1.49,1.69-6.05a13.54,13.54,0,0,1,.14-3.65,20.88,20.88,0,0,0,.33-2.9v-.25a6.11,6.11,0,0,0,.57-2.59l-.1-.74a37.24,37.24,0,0,0,.66-4.7l.85-.86.84.73.76-.73a3,3,0,0,1,1.59.73,3.13,3.13,0,0,1,3.39-.18l.28-.55.47.73H127a6.14,6.14,0,0,1,2.63-.73,2.27,2.27,0,0,1,1.46.73A2.07,2.07,0,0,1,131.93,203.08Z"/><path class="cls-3" d="M215.57,239.12l-.38,2.33v1.35a2.59,2.59,0,0,0-.38,1l.38.36a28.13,28.13,0,0,0,0,3.19v3.07a6.42,6.42,0,0,0-.38,2.94,2.87,2.87,0,0,0-.56,2l.56,1.35v.12l.38.49a20.31,20.31,0,0,0-.38,3.8c0,.57,0,1.8.1,3.68,0,1.47.05,2.7.05,3.68l.23,1.47c-.08.65-.21,2.37-.38,5.15l.3.49a22.7,22.7,0,0,0,.08,3.19l-.38.36.38.62q0,3.68-.08,11a4.62,4.62,0,0,0-.3,1.1l.38,1.84v10.55l-1.13,1.34-1.12.37h-2.25a6.38,6.38,0,0,0-1.31-.61,4.84,4.84,0,0,1-2.25.24l-.18.37H201.7a1.85,1.85,0,0,0-.66-.61,42.7,42.7,0,0,0-5.33.61h-3.28l-.1.49-2.34-.49-.75.49-.37-.49-.85.49a7.76,7.76,0,0,1-1.59-.49l-.75.49-.37-.49-.47.49-.38-.49-.75.49a1.84,1.84,0,0,0-1.21-.49,3.06,3.06,0,0,0-2,.49H177l-.37-.49-.94.49-.09-.49-.75,1-.38-.49a.78.78,0,0,0-.47.49c-.68-.07-1.84-.11-3.46-.11l-1.22-.87-5.25,1-.28-.49-.28.49h-4.21l-.57.49c-.37-.24-1-.61-1.78-1.1l.1-.37c0-.49-.16-.65-.47-.49l.37-6.37-.37-.13q0-2.2.37-6.25l-.28-.86-.28-12.75-.19-.49.28-.49a27.38,27.38,0,0,1,.47-6.13c-.18-1.47-.44-3.14-.75-5q.2,0,.19-14.59c0-1.06.22-1.68.66-1.84l-.27-.86-.2-2.7V203.69l.47-3.07-.85-5.88.47-1.59v-.25l.38-1,1.13-.61.37.73a18.66,18.66,0,0,1,2.63-.73l.19.73.56-.73.19.73,1.22-.73.19.73,15.6-.73c-.62.08.38.32,3,.73a26.47,26.47,0,0,1,6.95-.37l.76-.36h2.72l.85.18.37.37a8.83,8.83,0,0,1,2.35.18,1.78,1.78,0,0,0,.66-.73H198l.94.73c.63-.12,1.6-.37,2.91-.73a2.29,2.29,0,0,0,1.6.73h2.45a6.67,6.67,0,0,1,2.53,0l1.23-.73L211,192l2.44-.73q1.78.62,1.79,7.23a23.84,23.84,0,0,1-.38,5.15v.73l.13.25c.08,2.94.1,5,0,6.13.08.49.15,1.35.21,2.57a20.19,20.19,0,0,0-.38,6.5l.25.49c.05.57.07,1.8.07,3.68h.06a9.22,9.22,0,0,1-.38,2.94l.38.12-.09.62c0,.81,0,2-.15,3.49s-.14,2.64-.14,3.37C214.81,234.83,215.06,236.34,215.57,239.12Zm-5.92,21.08q-.48-1.47-1.51-4.53l.1-.12a37.91,37.91,0,0,0-1-5.64v-2.82l.47-.49a20.55,20.55,0,0,1-.66-3.93,13.34,13.34,0,0,1,.38-3.06,16.55,16.55,0,0,1-.09-4.17q.18-3.18.18-4.17l.19-.73-.28-.49v-.62l-.85-.85H205l-1,1.1-.47-.49-2.73-.61-1.5.61-.1.37-.56-.37-.28.49v-.14l-2-1-1.78.49-.38.37a32.53,32.53,0,0,0,.57,4.94,14,14,0,0,0-.47,4,4,4,0,0,1,.18,1.48,10.19,10.19,0,0,1-1.12,5.43,12.43,12.43,0,0,1-3.29,1q-1.69-.49-5-1.59l-.38-.49-1.31-.48a17.29,17.29,0,0,1-2.64-3.3l.1-.25q-1.89-1.83-1.41-8.79l-.19-.12.19-.85-.1-.25v-1q2.07-7,4.05-9.28a5.48,5.48,0,0,1,3.71-1.71,6.61,6.61,0,0,0,3.8-1.47h1.13l.38-.2.37-.41q9.87.62,13.16.61a4.9,4.9,0,0,0,1.69-1.09V209l-.19-.6a1.53,1.53,0,0,1-.18-.86,4.28,4.28,0,0,1,.94-2.31c-.38-.32-.47-.93-.29-1.82l-1.22-1.58-6.86-.49-.66.49-.56-.25-1.22.49-1.13-.49c-.38,0-1.85.21-4.42.62a15.64,15.64,0,0,1-4.23.12l-.28-.25-.37.49-.19-.49-.47.49-.38-.49q-1.87-.36-4.79,1.84l-.56-.24a28.16,28.16,0,0,0-5.74,4.29c-1.69,1.72-3.41,3.43-5.16,5.15-.51,1.22-1.26,3.19-2.26,5.88v.37a10.12,10.12,0,0,0-1,4.54,19.44,19.44,0,0,0-.76,5.64,40.9,40.9,0,0,1-.37,5.88l.19.74a15.91,15.91,0,0,0,1.22,7,38.58,38.58,0,0,1,2,5.4q4,6.49,8.65,9.07a17.93,17.93,0,0,0,7,1.84c2.44.16,4,.57,4.7,1.22l10.81-.36.09.36q6.67-.48,7-.36l.66.36,1.88-.24Zm-17.86,24.65-1.13-4.05-.37.25.18-.62a7.07,7.07,0,0,0-4.79-3.8l-.37-.49-.94.12-.19-.36a5.51,5.51,0,0,0-1.79.61l-.56-.25-.38.49-.19-.24-.47.74-.18-.25-2.92,3.92a23.25,23.25,0,0,0-1.5,5q.75,7.35,5.26,9.32l.38.36a3.37,3.37,0,0,1,2.16.5,29.23,29.23,0,0,0,.56-8.22l1-.86h3.57A2.75,2.75,0,0,0,191.79,284.85Zm3.76,9.93v-6.26l-.76-1.22q-2.85.24-8.63.86c-.26.32-.48.44-.67.36a45.48,45.48,0,0,1-.09,4.79c-.19,2.36-.28,4-.28,4.9,0,1.72.4,2.57,1.22,2.57l.47.49a52.37,52.37,0,0,0,7.89-.49l.66-1C195.49,298,195.55,296.33,195.55,294.78Z"/><path d="M278.81,286.69a10.24,10.24,0,0,0-.28,3.43,16.16,16.16,0,0,0-.94,2q.75,2,.56,8.46l.29.24a6.8,6.8,0,0,0,.28,3l-.47,1.71c-.44.08-1.1.25-2,.49l-.94-.49-.75.49c-.69-.22-1.28-.38-1.78-.49a15.92,15.92,0,0,0-3.2.49h-.66l-1.12-.49-.76.49-.37-.49-.66.49-.47-.24c-1.69-.17-2.35-.25-2-.25l-.94.16-.1.33h-5l-.37-.33a1.38,1.38,0,0,1-1.13-.16,10.76,10.76,0,0,1-2,.49h-3.39l-.56-.49a6.43,6.43,0,0,0-2,1l-.75-.49-.37.49.09-.49a22.8,22.8,0,0,1-2.53.25l-.37.24-.75-.49h-.28a7.92,7.92,0,0,1-4.4,0l-2.06.49-.38-.49-.19.49h-1.49l-.38-.39-1-.2-.19-.39a7.75,7.75,0,0,1-3.55.59l-.29.39-.75-.49-.93.86-.56-.37a.49.49,0,0,1-.47,0h-2.06l-.84.37-.38-.37h-.56l-.19-.49-.28.86h-1.12l-.66-1a22.42,22.42,0,0,1-.09-5.39l-.28-1.72v-1c0-1.15,0-1.51.06-1.1l.34-1.6a.87.87,0,0,1,.07-.61,8.16,8.16,0,0,0-.47-2,14,14,0,0,1,0-2.45v-3.19a26,26,0,0,1,0-3.31l-.66-.49.66-.74-.66-.61v-4.29l.19-.49a37.37,37.37,0,0,1,.47-4.66l-.47-2.82a48.6,48.6,0,0,0-.19-8.21v-6.87l.29-.37a17.36,17.36,0,0,1,.37-4.53q-1.14-3.55,0-4.91v-4.17l-.66-.49q.18-.36,0-12.13V215a9.09,9.09,0,0,1,.66-2.82,16.56,16.56,0,0,1-.66-2.82c0-4,.22-6.58.66-7.73V199l-.47-.61a21.5,21.5,0,0,1-.47-4.78l.09-1.72a8.65,8.65,0,0,0,1.6-.74l2,.37c.63-.08,1.35-.2,2.16-.37l1.51.37.65-.37a2.87,2.87,0,0,1,1.6.74l1.13-.74,1,.74.76-.46a18.81,18.81,0,0,0,3.66-.28h1.6l1.41.37a12.52,12.52,0,0,1,2.82-.37,4.37,4.37,0,0,0,2.72.74l.94-.74.47.37.38-.37h2.53a4.39,4.39,0,0,1,1.79-.61l.75.61h.66l3.85-.61.19.61h1l.85.3a3.09,3.09,0,0,1,1.22.07l1-.37H269.6l1.69.37,2.26-.37h1.6l1.78-.61.85,1.48c.06.41.06,2.22,0,5.42s-.13,4.95-.19,5.24a4,4,0,0,0-.09.8,9.5,9.5,0,0,0,.28,2.1,9.49,9.49,0,0,1,.28,2.09,6.6,6.6,0,0,1-.28,1.85,22.14,22.14,0,0,1,.28,2.34v1.85c.06,1.31-.16,2.13-.66,2.45v1.6l.66,2.08v.49c0,.9,0,2.21.13,3.92q.21,3.19.21,4.05a8.52,8.52,0,0,0,.13,3.31,3.62,3.62,0,0,0-.94,1.59l.28.49q-.18,3.93.66,5.4v10.66a10.75,10.75,0,0,0-.75,3.68l-.57,1.47.34,1.35a8.64,8.64,0,0,0,.17,1.6l.34.49v10.78a1.5,1.5,0,0,1,.19,1.35l.28.25a1.07,1.07,0,0,0-.47.49,1.91,1.91,0,0,0,.28.49l-.56,2.57a4.92,4.92,0,0,1,.28,3.31l.28.49-.28.62v3.06l.38.25a22.24,22.24,0,0,0,0,3.06C278.31,286,278.44,286.52,278.81,286.69Zm-3.57.49q0-1.11-6-8l.09-.37A90.09,90.09,0,0,0,262.08,265l.1-.25A34,34,0,0,1,261,260.2l-.29.25a6.15,6.15,0,0,0-.47-2.21c-.56-1.39-.84-2.12-.84-2.2l-.66-.49v-1.48l.19-.61c-.38-.49-.57-1.63-.57-3.43l-.18-.12a9.31,9.31,0,0,1,1.41-3.07l2.44-1.71.56.24q1.23-.62,6.58-5.52a5,5,0,0,0,.1-1.28,2.66,2.66,0,0,1,1.41-2,27.65,27.65,0,0,0,1.5-8.7,9.49,9.49,0,0,0,.66-3.43l-.1-.37q-3.09-11-3.38-12-2.91-7.1-7.24-8l-.37-.49-.19.24a2.67,2.67,0,0,0-.85-.86l-.56.37v-.12a6.2,6.2,0,0,0-.94-.49l-.38.73H257.2l-.29-.81-1-1.15-1.22.49-3.57-1-.75.49-.76-.37a2.06,2.06,0,0,0-1,.86,3.57,3.57,0,0,0-2.16-.24l-.38-.49-.37.49-.66-.49-.38.49-.56-.49a5.59,5.59,0,0,1-1.79.73l-.18-.49-.57.49-.28-.49a2.64,2.64,0,0,1-1.69-.24l-.38.49-.28-.49a8.48,8.48,0,0,1-2.07,0l-.28.49a5.51,5.51,0,0,0-2.72.24l-1-.73-.37.49-1.32-.25-.37.49-1,.25-1.31-.37-.85.73-.28,2.58.47,2.08v.49a14.85,14.85,0,0,0,.66,2.82l-.38,1.23-.56.12v2.82l.28,1.72c.06,1,.06,2.33,0,4l.28.37-.19.74a4.73,4.73,0,0,1-.09,2.08v2.21c.09.41.31.61.66.61l-.66,1.35v1.47a2,2,0,0,0-.28,1l.28.25v3.8l.66,2a7.4,7.4,0,0,0-.57,2.82,11.72,11.72,0,0,1-.37,2.7h.28c.06,1,.06,2.61,0,4.9a26.56,26.56,0,0,0,.66,2.7l-.66,1.47c0,5.31,0,7.48-.1,6.49l-.18.5V259l.84.73h1.32l.28.49h1.32l.47-.49a1.82,1.82,0,0,0,1.4-.24,12.19,12.19,0,0,1,2.54,1.1H237a4,4,0,0,0,1.69-.61l1.22.37a3.05,3.05,0,0,0,1.51-2c0-.25,0-1.31-.1-3.19l-.28-.49a5.5,5.5,0,0,0,.1-1.72,6.36,6.36,0,0,1,1-4.53l.66-.25,1.78,1.1a3.88,3.88,0,0,0,.85,1.6l.28,1.84-.19,1,.57,1.1-.19.25a20.83,20.83,0,0,0,.85,3.06,7.92,7.92,0,0,1,.56,3.07c.38.89.94,2.24,1.69,4l-.19,1.1c.57,1.31,1.41,3.27,2.54,5.89l-.09.24a12.69,12.69,0,0,1,1,2.33q0,1.23,2.44,5.89l-.18.12c.18.33.21.57.09.74,1.19,2.12,2.41,4.29,3.66,6.49,1.76,3,3.14,4.66,4.14,5.15V294c.19,1.55,1.53,3,4,4.29A124.43,124.43,0,0,0,275.24,287.18Zm-17.48-61.79c-.38,1.88-.63,3-.75,3.43a5.65,5.65,0,0,1-1.79,2.45l-.94-.24-.18-.49-.29.49c-.81.41-2,1.06-3.47,2l-.38-.49a8.39,8.39,0,0,0-3,1.1l-.47-.49a4.71,4.71,0,0,1-.94-.12l-.37.37a9.38,9.38,0,0,0-2.16,0l-.94-1.23a22.29,22.29,0,0,1-.29-6.25l-.18-.25.09.13c.13,0,.19-.45.19-1.35a18.71,18.71,0,0,1,.47-6.26l1.13-.49,1.12.25.66-.25.38-.49.94-.24,1,.49.56-.49c2.7,0,4.45.2,5.27.61l.66.86.75-.25a14,14,0,0,0,1.31,2l.94,2.45-.19.61.47.49Z"/><path class="cls-4" d="M341.68,239.59l-.11.49-.17,2.58v8.11a4.88,4.88,0,0,1-.33,1.41,11.41,11.41,0,0,0-.52,1.91,10.69,10.69,0,0,0-.28,1.84,16.27,16.27,0,0,0,.33,2,14.65,14.65,0,0,1,.33,2.14v.5a87.75,87.75,0,0,1,.37,9.09,17.41,17.41,0,0,0,.1,2.82,17.05,17.05,0,0,1-.82,2.22c.27,0,.17.16-.31.49a20.27,20.27,0,0,1,.66,2.21v1.47a8.05,8.05,0,0,1,.23,3.93l.24,1.48-.21.61a38.57,38.57,0,0,1-.1,6.15l-.63,1.59.7,2.09q-.59,6.39.24,8.35v2l-.3,1a2.94,2.94,0,0,0-1.57.62l-.3-.49-.19.49-1.38-.12-.4-.37.1.49c-.5-.41-.82-.44-.94-.07l-.75-.42-3,.49-.94-.49-.28.37-.94.12-.57-.49-.28.49a2.21,2.21,0,0,0-.84-.49c-.07.1-.16.27-.29.49l-1-.49h-.56l-.38-.25-.66.25-.37-.25-1.32.74a2.34,2.34,0,0,1-1.69-.49l-.38.49-.37-.49-.57.49-.18-.49-.38.49-.38-.49-.84.49-.19-.49-1,.33c-.51,0-1.16,0-2,.08-1,.05-1.66.08-2,.08a2.22,2.22,0,0,1-1.5-.49l-.47.49-.57-.49-.19.49-2.16-.49-.28.19c-1,0-2.51.1-4.51.3h-1.69a10.21,10.21,0,0,0-2.26,0h-.56c-1.38-.08-2.38-.11-3-.11l-1.5-1-.85-.11-.09.74-1.88-.25a5.69,5.69,0,0,1-3,.49l-.37.25h-5.92a6.36,6.36,0,0,1-.57-4.28l-.09-.24a2.88,2.88,0,0,0-.28-2.33V274.4a11.16,11.16,0,0,0,.65-2.69l-.28-1v-3.06l-.37-14.22.28-.49a5.6,5.6,0,0,1,.09-1.84v-.24l.47-.74v-.61q-.33-.61-.47-7.72v-8a18.78,18.78,0,0,0,0-2.7v-.25l.85-2.08a1.13,1.13,0,0,1-.52-1,1.49,1.49,0,0,0-.33-1v-9.2a7.24,7.24,0,0,0,.42-2.94,16.24,16.24,0,0,1,.24-3.07l-.38-1.47.1-1.84-.1-.49a2.85,2.85,0,0,1,.19-1.34l-.47-1h.28a8.77,8.77,0,0,1,.57-4.41q.18.12.18-.24l-.18-1.11h-.28c0-.57-.05-1.45-.15-2.63s-.14-2.07-.14-2.64c0-2.21.35-3.31,1-3.31h.65l.57.37a35.18,35.18,0,0,0,4.32-.37l.19.37.85-.37.94.25.37.49,1.22-.37.19.49a12.29,12.29,0,0,1,5.28-.86h5.48l.18.37,1.14-.37.94.79a7.72,7.72,0,0,1,2.26.31l.29-.36a33.53,33.53,0,0,1,6.32-.25l.56-.49.19.37a16.57,16.57,0,0,1,3.54.18,25.58,25.58,0,0,0,3.26.31,3.45,3.45,0,0,0,1.36-.43,3.76,3.76,0,0,1,1.18-.43l1.23.74.94-.37a30.41,30.41,0,0,0,5.76.49h2.26l1.14-.86c.18.17,1.44.25,3.77.25l.85,1v.12a28.12,28.12,0,0,0,.28,3.2l-.19.49c0,.65,0,1.56-.09,2.7-.06,1.39-.1,2.34-.1,2.83l-.37,1.22v2.09l.27.13c0,.57,0,1.45.1,2.64s.1,2.07.1,2.64a42.84,42.84,0,0,1-.47,7.37q.46,4.54.47,7.74,0,1.72-.24,4.92c-.15,2.13-.23,3.72-.23,4.79A28.22,28.22,0,0,0,341.68,239.59Zm-9.21-26.4-.5-1.57a6.41,6.41,0,0,0-.25-3.5,23.54,23.54,0,0,0,.75-4.83l-1.13-2.18h-.75a20.85,20.85,0,0,0-3.21.62l-.18-.27a5,5,0,0,0-2-.35h-.38l-1.22-.49-1.13.49-.66-.49-.95.17-.28.32h-1.69c0,.17-.35.25-1,.25l-.47.37-.85-.62h-4.24l-.75-.49-.19.49-.47-.49-2.92,1a3.63,3.63,0,0,0-1.23-.49h-.37l-.66-.16-.38-.33a3.86,3.86,0,0,1-1.69,1l-.48-.49h-2.73l-.37-.73-2,.73-.66-.73-.75.73a10,10,0,0,1-3.21,0l-1,2.21a9.46,9.46,0,0,0,.94,2.82,10.91,10.91,0,0,0-.57,2.08c.13,1.4.19,1.93.19,1.6a1.09,1.09,0,0,1-.47.86v5.76a6,6,0,0,0,2.35.73l1.13-.73q3.94,0,3.95,2.45a61.23,61.23,0,0,0-2,8.58,2,2,0,0,1-.89,1.47q-.81,2.2-1.89,6.38c-.9,3.35-1.26,5.51-1.07,6.5-.32.16-.32.36,0,.61q-.86,7.11-1.69,11.28a3.44,3.44,0,0,1,.37,1.59l-.09.25q-.29,2.2-.75,4.65v1l.18.24a35.59,35.59,0,0,1,.1,5.76,19.39,19.39,0,0,1,1.22,7.36,18.59,18.59,0,0,0,.66,2.33v.37c0,1.3,1.19,4.29,3.57,8.94v1.23q2.07,4.05,8.46,11a18.66,18.66,0,0,0,2.44-2.2,6.82,6.82,0,0,0,1.88-2.82l1.13-.74a10.76,10.76,0,0,1,2.91-4.17,8.87,8.87,0,0,1,1.79-3.31l-3.86-4.78-.56-.24L310.1,278l.1-1.1a45.9,45.9,0,0,0-2.82-6.13l.28-1.6a10.38,10.38,0,0,0-.37-2.2,6.38,6.38,0,0,1-.29-2.21l-.65-1.84-.1-6.37.56-1.47-.09-.86c0-.82.31-1.31.94-1.47l.38-.49h1.12a2.35,2.35,0,0,0,1.7-1c.12.24.28.32.47.24L313,253l.09-.49.75.25,1-.49,2,1.22.38,1v.49a3.6,3.6,0,0,0-.1,2,2.89,2.89,0,0,1-.19,2l.83.85a4.86,4.86,0,0,0,2.31-1l1,1.23,1.76-.25.18.49c.8-.16,1.75-.4,2.86-.73l.46-.49,1.94.73c2.27-.32,3.41-1.06,3.41-2.2a16.64,16.64,0,0,0-.56-3.31v-6.75a16.86,16.86,0,0,1,.18-2,7,7,0,0,0,0-2.33v-7a82.66,82.66,0,0,0,.38-8.71v-10.9A22.14,22.14,0,0,0,332.47,213.19ZM318.09,233.6l-.47,1v.49c0,1-.15,1.6-.47,1.84l.57,1.23-.85,1.22-1.41,1-1.41-.49c.06.17,0,.29-.19.37s-.31,0-.37-.12l-.47.24-.38.37-.94-.37-.66.25-.37.37c-.13-.08-.5-.29-1.13-.62s-.94-.65-.94-1l.19-.36a3,3,0,0,1,.37-2.82l-.18-.25.18-.24q3.48-17.53,7-17.54l1,1.35-.29.13a2.4,2.4,0,0,1,.66,1.71,14.84,14.84,0,0,1,0,2.33c-.06,1.31-.09,2.05-.09,2.21,0,.73,0,1.92.09,3.55s.1,2.86.1,3.68Z"/><path d="M405,293.55l-.19.25c-.12,1.3-.18,4.86-.18,10.66a3.55,3.55,0,0,0-.94.86H403l-.28.61a9.28,9.28,0,0,1-3.66-1l-1.41.76c-1.88.15-3.33.22-4.33.22l-.37-.61-.38.61-.37-.61-.29.61-.47-.35-3-.26-.66.61a8.79,8.79,0,0,0-2.07,0h-2.07l-.94-.61-.28.61-1.6-.61-.09.61-.38-.61h-6.57v.61a8.3,8.3,0,0,0-2.73-.61l-1,.61-.66-.61a2.93,2.93,0,0,1-2.35.61l-.38-.61h-1.31l-.57.61h-2l-.56.37-.38-.37-.84.37-1.88-.74-.57-.61-.66.37h-.94l-.28-.37a2.12,2.12,0,0,0-1.41,1,5.59,5.59,0,0,1-3.66,0l-.38.37-.37-.37-.66.37-.47-.37h-.28l-.38.37-.38-.37-.84.37h-.94l-.85-1a21.27,21.27,0,0,0-.47-4.29v-4.78l.26-.25.78-2.45-.52-.49a70.74,70.74,0,0,0-.1-8.34q-.42-6.24-.42-8.33c0,.4,0-.78.12-3.56a4.34,4.34,0,0,0,.17-1.1V270.5a1.59,1.59,0,0,1,0-1.1,16.81,16.81,0,0,1-.29-1.72V251.26l1-1.72a17.32,17.32,0,0,1-1-3.19h.22a18.06,18.06,0,0,1,.35-3.07l-.57-.25.57-.12-.57-.24V231.73c.13-.08.22-.45.29-1.11a3,3,0,0,1,.75-1.72,9.78,9.78,0,0,1-1-2.82l.29-10.81v-1.85q.12-1.35.75-1.59a4.35,4.35,0,0,1-.78-2.21c-.08-.91-.17-1.72-.26-2.46l.29-.74-.29-1.23a13.18,13.18,0,0,1,1-5.16c-.43-.57-.72-2.46-.88-5.65l-.16-.37v-.86a8,8,0,0,0,.38-1.6c.12-.65.34-1,.65-1a40.43,40.43,0,0,1,4.45.37,43.35,43.35,0,0,0,4.45.37c1.25,0,3.09-.13,5.53-.37s4.28-.37,5.53-.37a16.6,16.6,0,0,1,3,.37,17.41,17.41,0,0,0,2.86.37c2.18-1.06,4-1.23,5.52-.49l.75-.25.19.32a15.9,15.9,0,0,1,3.61.28,9.56,9.56,0,0,0,3.32.14,6.3,6.3,0,0,1,1.31-.74l6.28.74.56-.74,1.41.74.37-.49a4.6,4.6,0,0,0,1.78-.25,1.8,1.8,0,0,0,.75.74,5.92,5.92,0,0,1,2-.74l1.78.74a2.32,2.32,0,0,0,.84-.74l1.12,1,.66,2.31-.38.61v6.92l-.28,1,.28.85h-.37a78.27,78.27,0,0,1,.66,9.32,12.92,12.92,0,0,0,.09,2.2l-.47.61-.09,2.46-.19.61.37,1.1q.38,5.4.38,11.4v15.94l-.28.49c0,.82,0,2.09-.1,3.8l-.37.62q0,.62-.09,1.77c-.07.78-.1,1.33-.1,1.66a10.73,10.73,0,0,1,.28,5.51c.05,1.88.14,4.3.28,7.24v.49l.38,1.35-.19,2-.75,1.84.38.73a19,19,0,0,1,.56,5.64,17.26,17.26,0,0,1,.28,3.93c-.06,3.18-.09,4.57-.09,4.16l.19.13a2.89,2.89,0,0,0-.28,1.59q0,1.23-.57,1.35l-.28.37A13,13,0,0,1,405,293.55Zm-5.54-77.36a26.28,26.28,0,0,0-2.54-6.74q-2.07-3.8-4.32-5a11.78,11.78,0,0,0-2.54-2.82l-1.13.25c-.06-.65-1.13-1.47-3.19-2.45l-.57.24-2-.24-.57-.37-.18.37-.38-.37-.28.37-.57-.37c-1.19.08-2,.12-2.53.12l-.75.74-1.7-.62-.47-.49-.37.49-.85-.24a2.54,2.54,0,0,1-2,.37l-.56.49a3.49,3.49,0,0,1-2.17-1.11h-.75a13.86,13.86,0,0,0-2.82.62v.24h-.56l-.38.49a6.43,6.43,0,0,0-3.94-1.1l-.38.37-.56-.13-1.23.74a30.91,30.91,0,0,0,0,9.11c-.1.33-.22.5-.37.5v6.27l.14.86a11.39,11.39,0,0,0,.52,4.31l-1.23,1.72v3l.57.25v2.09c.1.49.26,1.27.47,2.34a14.79,14.79,0,0,0-1,2.83V239l.57.13v.12l.17.86a1.26,1.26,0,0,0,.05.62l.06,1.23a9.09,9.09,0,0,0-.85,2.58,36.27,36.27,0,0,0,.94,7.51l-.94,2.34.47,4.68,1.23,1.23h1.12l.57-1a15.71,15.71,0,0,1,2.82,1,8.77,8.77,0,0,0,3.85-.74l1.22.74h1.79l.94-.37a24.87,24.87,0,0,1,.09-3.68l.28-.49a30.29,30.29,0,0,0-.47-4c.09-1.64.25-3.4.47-5.28a20.16,20.16,0,0,0-.37-2.57,9.26,9.26,0,0,1,.37-1.59,10.75,10.75,0,0,1-.47-2.58,3.72,3.72,0,0,0,.19-1.35,15.18,15.18,0,0,0-.47-3.43,33.12,33.12,0,0,0,.75-8.21c0-7.19,0-10.55.1-10.06l.18-.61v-.37l.76-1.35,1.31-.49.28-.36.29.49.56-.25.75.49,1.79-.49,2.91,1.47.47-.24q.75,0,2.91,3.92l.29,1.84a6.16,6.16,0,0,1-1.13,4,8.93,8.93,0,0,1-3.1,1.72l-.38.37h-1.6l-.37.49-.94.49-2.16-1c-.26,0-.44.33-.57,1l-.37,1.47q-.37,6.25.37,7.6a6.91,6.91,0,0,1-.75,2.33,6.31,6.31,0,0,0,1,1.23l.19.49h1.23l.57.24a2.32,2.32,0,0,0,1.61-.24l.76.49h1.42l1-1a3.25,3.25,0,0,0,1.8.24l.95-.61,2,.12,3.32-1.84.38-.49A7.55,7.55,0,0,0,394,235.2c1.57-2,2.52-3.11,2.84-3.44a22.57,22.57,0,0,1,1.42-3.06,12.23,12.23,0,0,1,.85-2.94l-.38-.13a17.17,17.17,0,0,0,.38-6v-.37Zm-17.77,68.89-.84-1.11v-.25a7.94,7.94,0,0,0-1.18-4.47,5.66,5.66,0,0,0-3-3l-.47-.75-.75-.25-.37.74a1.42,1.42,0,0,0-1.23-.74,6.29,6.29,0,0,0-4,1.35,31.28,31.28,0,0,0-3,3.56l.09.24c-.5.41-.85,1.47-1,3.19l-.29.49v3.56l.57.61-.1.73c.57,1.07,1.1,2.09,1.6,3.07.75,1.31,1.47,2,2.16,2.08a5,5,0,0,1,1.41,1.11l1.13.24,1.13-.24.09-.74a12.91,12.91,0,0,0-.47-3,13.38,13.38,0,0,1-.47-2.76c0-1,.35-1.55,1-1.72v-.24L375,285.7h2.35l.19-.24.37.24.1-.24.56.24.19-.24a11.63,11.63,0,0,1,2.72.24Zm3.2,10.82c.06-5.91-.29-9.11-1.05-9.58l-.29.49-.86-.25-1.15.49-2.2-.24a4.09,4.09,0,0,1-2.49.37,3,3,0,0,0-2.58.73l.38,1.1-.1,1.23-.28.12v8.09l.56,1.72a15.4,15.4,0,0,1,3.48.49l.94-.73h4.89l.66-1.66Z"/><path class="cls-5" d="M468,240l-.47.73.38.12a43.29,43.29,0,0,1-.56,4.54l.47.12a29.21,29.21,0,0,0-.76,8.95l-.28.49a6.93,6.93,0,0,0,.57,2.09c0,1,0,2.25.09,3.8.06,2,.09,3.27.09,3.92q0,9.31-.09,8.21l-.19-.24L467,274.3l.38,1.84c-.07.16,0,.37.18.61a11.52,11.52,0,0,0,.19,4.05,45.08,45.08,0,0,0-.09,4.9v3.44a10.57,10.57,0,0,1-.85,2.94c.38.65.75,1.27,1.13,1.84v10.79a15.2,15.2,0,0,1-5,.49l-.56-.49-1.23.49h-1.31v.49l-1.13-.49-.38.49-.75-.49-.37.49-.19-.49-.47.49-.56-.49-.29.49h-.47l-.28-.49h-.75a2.87,2.87,0,0,0-1.5-.49q-1.69,1-5.83,1l-.38-.49-1,.49-.75-.49-.38.49-.37-.49-.19.49-.28-.49-.38.49-.38-.49-.28.49h-2.25l-.38-.49-1.31.12-.38.37a2.19,2.19,0,0,1-1.6-.49l-.09.49-.38-.49-2.63.49-.38-.49-.37.49h-.85l-.94.49-2.25-1a3.87,3.87,0,0,0-1.69,1l-.29-.49-.18.12a4.32,4.32,0,0,0-2.17.37,4.67,4.67,0,0,1-2.16-1,4.31,4.31,0,0,1-2.63.19l-.56.2-.38.39q-2.34.19-8.27.2c-.62,0-1-.49-1-1.47v-2.46q0-3.18-.28-11.76-.2-7.49-.1-11.77l-.28-.37v-4.78l.66-.49v-1.6a7.22,7.22,0,0,1-.41-3.43l-.25-.61V251.62l.94-1.84c-.09-.65-.28-1.59-.56-2.82a63.23,63.23,0,0,0,.28-8.21c-.25-4.58-.35-7.36-.28-8.34l.56-1.47-.56-2.82v-21.7l.14-.24c0-.49,0-1.17.07-2s.07-1.49.07-1.9c0-.74-.05-2-.14-3.68s-.14-3.07-.14-4.05c.37-.24.43-.37.18-.37.44-.4,2.63-.61,6.56-.61a6.8,6.8,0,0,1,2.34.25l.38.49h2.43a2.4,2.4,0,0,0,1.41-.74l.37.49q.38-.24,8.34-.49l.75.25a1.69,1.69,0,0,0,.75.61c2.18.08,3.53-.2,4-.86l.56.49,1.78-.49.19.49,1.4-.49.19.49.37-.49h4.5a4.28,4.28,0,0,0,1,.86h1.59l2.16-.86.18.49a12,12,0,0,1,6.09.25l2.63-.74.18.49,6.94-.49.75.62.28,1.48-.19.12a8.46,8.46,0,0,0,.19,1.73c0,.24,0,.7,0,1.35a8.89,8.89,0,0,1,0,1.61c0,.57-.07,1.52-.19,2.83s-.19,2.34-.19,3.08a41.9,41.9,0,0,0,.33,4.26,42.28,42.28,0,0,1,.33,4.44,8.87,8.87,0,0,0,.09,1.78c-.12.75-.34,1.85-.66,3.33.13,0,.16.09.1.25l-.19.25q.94,2.46.94,10.6a24.17,24.17,0,0,1-.75,5.3l.28-.37a24.63,24.63,0,0,1,.19,3.93,4.26,4.26,0,0,1,.09,1.71Zm-5.54,15.08a3,3,0,0,0,.09-1.72c-.12-1-.18-1.55-.18-1.72,0-.49-.07-1.59-.19-3.31a23.78,23.78,0,0,1,0-3.18l-.75-2.33a7.76,7.76,0,0,0,.65-3.07l.29-.12c-.26-6.7-.29-10.18-.1-10.42a27.81,27.81,0,0,1-.84-4.17,10.58,10.58,0,0,1,.37-2.27,10.76,10.76,0,0,0,.38-2.14,51.71,51.71,0,0,0-.38-6v-.25a27.33,27.33,0,0,0-.56-5.64l.28-.36a34.48,34.48,0,0,1,.28-3.44v-1.83l-.28-.86-1.13-1.11-.37.25-1.51-.49-.75.24-.38.49-1-.24-.19-.49-.37.49-.19-.49a3,3,0,0,1-2.35.49l-.28.49-.57-.49-1.41-.25-.37.49-.94.25-1.13-.25-.47.13q-1.5,1.59-.75,3.06l-.19.37a1.92,1.92,0,0,1,.47.86.26.26,0,0,0-.19.12l.1.49a1.56,1.56,0,0,0,.47,1.84V221a5,5,0,0,0-.75,1.35,11.32,11.32,0,0,1-1.32,1c-1-.08-2.54-.24-4.61-.49l-.75.49-2.44-.49h-2.54q-4.51.87-5.26-3.27a19.37,19.37,0,0,0,.28-2.42q0-4.25-.66-5.46a22.64,22.64,0,0,0,.51-6.54l.15-.24v-2.3a5.4,5.4,0,0,0-2.66-.37l-.38-.36-.29.37-.38-.37-.57.24a5.2,5.2,0,0,1-1.62,1.35,3.62,3.62,0,0,0-1-1.59l-.76.24-.76-.24-.65.24-.38-.49-.38.49a11.37,11.37,0,0,0-2.53-.24l-1.13.49a35.21,35.21,0,0,0-.47,4.29,8.48,8.48,0,0,1,0,2.7l.66,2.33h-.19a16.67,16.67,0,0,0-.47,5.27q.46,6.62.47,5.39a14.71,14.71,0,0,1-.47,4.05l.09.49-.37.49.47,1.47q-.37,10.31.28,12.87l.37.13q-.37,3.68-.37,6.13,0,5.27,1,6.74a4.42,4.42,0,0,0-1,3.31,125.89,125.89,0,0,0,1,14.22l1,1.35-.94,2.57q.09.12,1.22,5.76c.76,3.76,1.13,5.77,1.13,6l.19,1.84.38.61a30.28,30.28,0,0,0,1.78,5.4l.1,1.22,2.25,4,.75.49.19-.49q1.41-1,3.95-3.07c.19,0,.59-.41,1.22-1.22a9.54,9.54,0,0,1,1.41-1.6l.37.49a40.06,40.06,0,0,0,4.23-3.8A11.87,11.87,0,0,1,436,289.2a6.8,6.8,0,0,0-1.6-2.76l.19-.25c-1.69-5.14-2.41-8.5-2.16-10.05a19.89,19.89,0,0,1-.94-4.78c0-.24.06-.33.19-.24l-.38-.74.1-1-.47-1.72.09-1.59a63.91,63.91,0,0,0-.47-7.23v-.25l-.47-1.84q0-1.59-.19-8.21-.09-5,0-8.09a10.43,10.43,0,0,1-.28-2.21l.28-1.1-.18-.25a6.74,6.74,0,0,1,1.67-1.47l1.21.25a3.43,3.43,0,0,1,2.88-1l.56.5h5.49l.18-.5.47.5.19-.5,1.3.25.65-.25.37-.49a2.8,2.8,0,0,0,1.58.49l.37.5c.56,0,.93,1.14,1.12,3.43.06,1.55.13,3.1.19,4.66a15.49,15.49,0,0,0-.38,2.94c0,.41,0,1,.1,1.72s.09,1.26.09,1.59l.94,2.33a3.67,3.67,0,0,1-.38,1.35,3.62,3.62,0,0,0-.37,1.35,4.14,4.14,0,0,0,.47,1.83l-.47-.49V257l.37,1-.37.24c.12.66.47,1,1,1l.19.49,1.24-.49.19.49.57-.49h2.19l.48-.24,1.14.24,2.1-.73,1.33.73a8,8,0,0,0,2.19-.49l1.05.25.66-2.33.1-.25-.09-1.22Zm-2.26,33.22q-2.34-3.07-7-8.95c-.63.73-1.6,1.84-2.92,3.31h-.28a40.37,40.37,0,0,0-4.42,5.88q2.44,3,7,9h.66Zm.19-11.16q-.56-1-7.05-9.44-1,.12-7.51,9.44c.68,1,1.88,2.58,3.57,4.78q.75-.12,3.66-4a7,7,0,0,1,1.69,1.71l1.79,2.33A53.57,53.57,0,0,1,460.37,277.12Z"/><path d="M531.23,303.48l-1,1.59-.66.25H527l-.47-.74-.94.13-.37.61h-5a2.48,2.48,0,0,0-1.69-.37l-.28-.37a5.92,5.92,0,0,1-.94.74l-.75-.74-.09.42a11.32,11.32,0,0,0-2.07.32h-7.14a4.31,4.31,0,0,0-1.41.37l-.94-.37h-2.73l-1.41.37a9.23,9.23,0,0,0-2.25-.37l-.47.37q-.66-.49-3.39,0c.06-.17,0-.29-.19-.37l-.18.37a5.46,5.46,0,0,1-3.76-.37l-.66.17-.47.69-.28-.49h-.94l-.38-.37H482l-1.13.86-1.13-.49c.13.32.06.49-.19.49s-.31-.17-.19-.49l-1,.49-.75-.49-.19.49h-1.22l-.38-.49a6.55,6.55,0,0,1-2.72.49l-.66-1.47a25.72,25.72,0,0,1,.09-7.22,12.61,12.61,0,0,1-.18-3.18q0-2.56.18-6.72a28.61,28.61,0,0,1-.47-6.37l.1-.24-.28-2.57a3.39,3.39,0,0,0,.28-1l-.57-1.1a1.53,1.53,0,0,0,.57-.85l-.19-1a15.35,15.35,0,0,1,.56-3.55q0-2.56-.09-7.22-.19-5.25-.19-7.34a16.61,16.61,0,0,1-.28-3,13.93,13.93,0,0,1,.56-3.43,21.59,21.59,0,0,1-.37-4.28c.06-2.36.06-3.83,0-4.4l-.28-.5a4,4,0,0,0,.18-1.34,18.18,18.18,0,0,0-.28-2.63,18.43,18.43,0,0,1-.28-2.75c0-2,.28-3.3.85-4v-.37a45.34,45.34,0,0,0-.1-4.89c-.12-2.61-.22-4.28-.28-5l-.38-.49.29-.49c.06-1.22.09-2.49.09-3.79.06-2,.25-3,.56-3.18l-.47-.49a29.74,29.74,0,0,0-.47-4.41v-2.2l.29-.24a25.56,25.56,0,0,1,.65-3.43,24.52,24.52,0,0,1-.56-3.79,1.26,1.26,0,0,1-.09-.61c0-.41-.1-.57-.29-.49a23.22,23.22,0,0,0-.18-2.33,20.41,20.41,0,0,1,.56-2.45l1.5.61,3.29-.25a7.92,7.92,0,0,1,1.84.37,7.33,7.33,0,0,0,1.92.37,5.65,5.65,0,0,0,3.39-1.1l3.75.61.94-.61a16.18,16.18,0,0,0,4.7.57l.38.28,1.6-.24.84.49.75-.44a4,4,0,0,0,1.7-.22l1.5-.44.19.36,1.5-.36a26.27,26.27,0,0,0,5.36.21l1.13.64,2-.49.19.49a5.59,5.59,0,0,0,2-.85,6.56,6.56,0,0,0,5,0l.75.46a6.58,6.58,0,0,1,2.35.15l.38-.25h3.48l.37-.22.75-.14.57.36a3.46,3.46,0,0,0,1.78-.3,5.27,5.27,0,0,1,1.6-.43c.31,0,.66.45,1,1.35,0,.65,0,1.88.1,3.67l.28.62-.38.37a12.53,12.53,0,0,1,0,3.18c-.06,1.15-.12,2.25-.18,3.31a35.25,35.25,0,0,1,.42,6.13l.14.37-.75,8.58.37-.24v15.44c0,.49,0,1.31.13,2.46s.13,1.88.13,2.2l.12.25a32,32,0,0,0-.38,6.68,29.8,29.8,0,0,1-.37,6.56l.37.49-.56,2.33.09,1,.47.12-.37.61c.19,3.68.4,8.1.66,13.24h.09v1.11a6.31,6.31,0,0,1-.75,3.31l.37,1.71v2.33l.41,1.47a11,11,0,0,0,.16,4.17v5.64a10,10,0,0,1-.94,2l.75,1.35a70.07,70.07,0,0,0,.19,8.95l-.19.25Zm-37.87-19.94-.28-.78-.76.25-.28-.49a6.58,6.58,0,0,1-3.1,0l-.38.49-.94-.49c-3.69,0-5.6-.09-5.73-.25l-.19.49a20.71,20.71,0,0,0-5.45,0q.75,2.58,8.18,13.37h.75l1.88-3.36c-.63-.93-1.47-2.36-2.54-4.29l.85-.81h5l1.13-.65C491.92,286.33,492.54,285.17,493.36,283.54Zm9.68,5.11-.38-.74h-4.42l-.28.49-.37-.49-1.7.49-.65-.49A9.8,9.8,0,0,0,494,288a10.6,10.6,0,0,1-1.32.13l-.38.49-.56-.49-.47.49h-2.16l-.57-.49-2,.36-.19-.36-.65.85a29.24,29.24,0,0,1,4.32,6.13q1.88,3.32,3.66,6.62l.57-.36.18.36Zm19.45-29.55-.38.25V257a16.51,16.51,0,0,0-.75-4.54,11.16,11.16,0,0,1,.75-2.45V235.56l-.37-.12a14.7,14.7,0,0,0-.38-3.92l.1-1,.28-.49a24,24,0,0,1,.37-3.44V203.2a12.1,12.1,0,0,0-.65-2.82l-.38-.49-2.35-.12a2.79,2.79,0,0,1-1.6.73,2.68,2.68,0,0,1-1.41-.73l-1.41.49-.75-.49-.37.49-.85.49-.94-.49h-.47l-.56-.49-1.69.61-.57.73q0,.49-.09,1.47v1.6a15.91,15.91,0,0,0,.28,4.29,17.73,17.73,0,0,0,.28,5.27v12a1.11,1.11,0,0,0,.38,1,12.6,12.6,0,0,0-.66,4.78l-.19.12V243l.66,1.47c-.13.74-.28,1.88-.47,3.44l-.19.24.19.25v12.5l1.69.74,1.5-1,.94.25.38.49.94-.24.19.49.56-.49c1.63.16,2.76-.09,3.39-.74l.56.49h.84l.76.49a6.14,6.14,0,0,0,1.64-.67A3.32,3.32,0,0,0,522.49,259.1Z"/><path class="cls-6" d="M593.87,242.78c-.1,1.48-.15,2.58-.15,3.32v4.06a7.51,7.51,0,0,1-.75,2.08l.38.13a10.46,10.46,0,0,1-.57,2.82c.06.58.25,1.72.57,3.44v.62l.28.12a13.92,13.92,0,0,0,.38,3.56v8.48l-1,2.82.38,1.36v2.08l.66,1.72V289c-.3.65-.71,1.72-1.23,3.19l.57,2.58v4.67c.09.82.31,2.29.66,4.42l-.57,2.46-1,.25-.38-.62-.85.62H590l-1.8-1-.38.5-1.61.09-.47.4h-.47a23.71,23.71,0,0,1-4.92,0l-.38-.41-1.71-.21-.75.21-.38.41H565.44l-.1-.62q-1.41,1-7.42.55l-.47.56-.38-.49-.75.49a2.67,2.67,0,0,0-1.41-.49h-.56a9.67,9.67,0,0,1-1.6.49l-.56-.49-.85.49-.56-.49-.57.49-.84-.49h-.57v-.22l-1.12-.77h-.29l-.75,1-.47-.62a18.7,18.7,0,0,1-2.54.62h-.37a1.06,1.06,0,0,0-.66.49l-.56-.49V307l-.39-.49-.58.49-.29-.49-.39.49-.38-.49-.58.49-.39-.49-.38.49-.1-.49a18.74,18.74,0,0,1-2.42.49l-1-.74a18.54,18.54,0,0,0,.28-4.54c-.19-2.69-.28-4.21-.28-4.53a25.54,25.54,0,0,1,.28-4.29l.19-.25-.27-.37a42.37,42.37,0,0,0-.2-4.78V273.08l.33-1.6.14-.12q-.66-.74-.47-9.93l-.28-.49.28-1.1-.38-.13.38-.61V258c.08-1.47.12-3.93.12-7.36l.25-.37v-.49l.28-.73-.65-2.33c.06-5.56.06-9.11,0-10.67v-4.78l.28-.12.09-1-.37-.25a1.75,1.75,0,0,0,.62-1.47h.32l-.36-.61c-.39-2.3-.58-3.24-.58-2.83V213l.36-1.11a.71.71,0,0,0,.48-.62,2.67,2.67,0,0,0-.48-1.47q-.24-2.1-.36-6.4l.23-.24a4.18,4.18,0,0,1,.34-2.22l.46-.24v-1.6l-.41-.74a14.07,14.07,0,0,1-.62-4.31c0-2.29.62-3.44,1.88-3.44a14.35,14.35,0,0,1,2.35.49l.94-.49,3.39.49.76.49,1.41-.49h1.22l1.6-.49a1.15,1.15,0,0,1,.76.49h2.45a5.86,5.86,0,0,1,2.82-.41c1.57,0,2.57,0,3-.08l.38.49a6.39,6.39,0,0,1,2.64.49l.56-.49a14.59,14.59,0,0,0,4.14-.12c2.32-.25,3.77-.37,4.33-.37a19.09,19.09,0,0,1,4.33.49,8.15,8.15,0,0,1,3.11-.49l1.23.49,1.5-.49.38.49h3.11l.94-.49.56.49,2-.49.66,1,.36-.65q.27,0,2.64-.33l.55.49.09-.49q2.46.12,2,4.05a31.07,31.07,0,0,1,.09,4.43v4.54c0,.66,0,1.66.14,3s.14,2.32.14,2.89l-.28.62.66.36v2.95a5.56,5.56,0,0,0-.44,2.15,12.56,12.56,0,0,1-.22,2,8,8,0,0,1,.15,1.6,38.05,38.05,0,0,1,.4,6.63c0,3.44.06,5.24.11,5.41a16,16,0,0,0-.66,2.7l.66,5.65C594,240.24,594,241.31,593.87,242.78Zm-6.63-21.32-.94-2.57.56-1.35A11.42,11.42,0,0,1,587,215a19.21,19.21,0,0,0,.24-2.27l-.28-.86v-1.35l-.47-1.59.75-2.57-.28-.49a25.82,25.82,0,0,1,0-3.32v-.49l-1.39-1.22-.8.24-.59-.49a6.48,6.48,0,0,0-2.58,1l-.61-.91-.18.44-.38-.49-.19.25-.47-.74-.56.49-.56-.49-2.63,1-.75-.49a8.23,8.23,0,0,0-2.35.74l-.37.49h-.85l-.19-.37h-1.59l-.38.37-1.5-.25-.47.37a7,7,0,0,1-2.53.74l-.38.49a5.72,5.72,0,0,0-3.47,1.84l-.85-.49-1.5,1.1h-.28a18.44,18.44,0,0,0-3.85,3.06,12.32,12.32,0,0,0-3.1,4,14.25,14.25,0,0,1-1.69,1.23l-3,5.64q-2.16,4.29-2,5.64l-.38,1-.47-.13.19,1.11a9.93,9.93,0,0,0-1.5,5.15,21.47,21.47,0,0,1-.66,4.9,11.11,11.11,0,0,1-.37,2.45l.75,2.21-.75,3.43c.06,1.39.18,3.48.37,6.25L542,252a10.43,10.43,0,0,1,.19,2.45c0,.49.56,1.35,1.69,2.58a4.54,4.54,0,0,0-.29,1.84q0,5.14,6.1,12.13l.47,2.21q4,6,6.94,7.48l.37-.25q3.84,5.76,14.25,8.71c.13.32.72.77,1.78,1.35a4.63,4.63,0,0,0,1.69-.74q1.5.74,3,1.59l4,.74,1.5-1.23.19-1-.85-2.69,1.11-1.84.12-1.35-.25-2.21-.6-1.1.85-2v-3.8l-.76-1.23a2,2,0,0,1-1.59-.25l-1.22.5-.29-.5-.65-.24-.38-.49-.75.24-1.32-1-.84.13L572.3,270h-.85l-.56-.73-.19.24-.56-.73A14,14,0,0,1,567.6,267l-.38.49-.09-.25-.38.37a4.74,4.74,0,0,1-1.12-2.33,66.63,66.63,0,0,1-5.17-6,6.47,6.47,0,0,0-1.6-2,32.58,32.58,0,0,0-1.69-4.41v-.61a20.91,20.91,0,0,0-.66-2.21l.19-.25a6,6,0,0,1-.47-3.18c.06-2,.09-3.19.09-3.44a7.57,7.57,0,0,1-.75-2.33q.38-1.59,1.41-5a4.42,4.42,0,0,0-.09-1.47,11.66,11.66,0,0,1,1-3.31.72.72,0,0,1,.09-.62l-.28-1a1.09,1.09,0,0,0,.28-.49,112.26,112.26,0,0,1,8.37-11l1.22.24.47-.49,3.1-1.34a8.41,8.41,0,0,1,3,1.22,1,1,0,0,1-.1.74,6.12,6.12,0,0,1,.57,3.06l.56,1.11-.56,1.34-.1,2,.1,1.83.38,1h.28l.38.49h1.23l1-.86,1.42.86h2.84l.57-.86h.47l.76.61a7.18,7.18,0,0,0,3-1,13.59,13.59,0,0,0-.28-3.92A11.1,11.1,0,0,0,587.24,221.46Z"/><path d="M679.05,303.36l-.18,1.71a16.46,16.46,0,0,1-2.06,1.23c.06-.24,0-.37-.19-.37l-.19.25a9.23,9.23,0,0,0-2.43.12l-1.13-1-1.5,1-.74-.37-.57.37-.56-.37-.19.37-2.06-.09-.37-.28-.19.37a3.11,3.11,0,0,0-1.78-.24,1.58,1.58,0,0,0-.75-.74,5.54,5.54,0,0,1-2,.49l-.38.49-.37-.37a10,10,0,0,1-1.41.37h-2.43a24.71,24.71,0,0,1-5.72.15l-.47.22.1-.37-2.16.12-.75.25-.47-.28a2.53,2.53,0,0,1-1.51-.09l-1,.37-1-.37-.18.49a4.94,4.94,0,0,0-2,.25l-.37-.74-.38.74a2.3,2.3,0,0,0-1-.74l-.38.37-.56-.37-.38.25a17.27,17.27,0,0,0-3.38.49l-.38-.74-1,.37-.38-.37h-.47l-.47-.37h-.47c-.87.22-2.19.59-3.94,1.11l-.38-.74-.38.37a4.13,4.13,0,0,1-2.44,0l-.37.37-.38-.37a14.16,14.16,0,0,1-2,.37l-.38-.37-.85.37-.94-1.59a20.55,20.55,0,0,1,0-3.91l-.21-1.22c-.11,0-.13-.12-.07-.36a43.69,43.69,0,0,1,.38-6.35v-2.32l-.38-.12v-9.4l-.47-.61v-6l.38-2.2c-.13-.16-.1-.4.09-.73-.06-1.46-.06-3.34,0-5.61V260.9l-.47-.37v-8.78h.47l.38-2.21a6.86,6.86,0,0,1-.23-1.72c0-.32,0-.53-.15-.61v-10.3l-.47-.73a6.86,6.86,0,0,0,.29-3.38c-.12-1.75.13-2.88.75-3.37a18.41,18.41,0,0,1-.57-5.51l.38-.74-.28-1.22a23,23,0,0,0-.1-3.44V218a12.33,12.33,0,0,0-.47-3.55h.47q.48-2.46,0-11.65a21.25,21.25,0,0,1,.75-2.57l-.44-.37c-.07-.49-.22-1.51-.44-3.07a16.31,16.31,0,0,1-.34-2.82,5.06,5.06,0,0,1,.76-2.45,41,41,0,0,1,5.94-.49l.18.49,1.23-.49.19.33c1.63.11,2.89.16,3.77.16l.38-.33c.63,0,1.47-.05,2.54-.16l.19.49a7.93,7.93,0,0,1,3.3-.49h3.49l.19.49,1.22-.49a3.66,3.66,0,0,0,2.55.86l1.41-.86a4,4,0,0,0,2.93.49l3-.49.19.49.66-.49a11.2,11.2,0,0,1,4,.49l1.41-.08.95-.41h.94a10.49,10.49,0,0,0,2.83.22,9.9,9.9,0,0,1,2.92.27,16.31,16.31,0,0,1,4.72-.49h5.84l.85,1.6a37.07,37.07,0,0,1,.09,4.79v4.78a76.52,76.52,0,0,0,.47,9.83l-.47.49v.12c-.18,2.46-.28,4-.28,4.54,0,1.31.05,3.24.14,5.77s.14,4.42.14,5.65v4.91a34.65,34.65,0,0,1,.27,3.81,3.91,3.91,0,0,1,.2,1.6q0,2-.18,5.83t-.19,5.83l-.47,1.47a3,3,0,0,1-.05,1.6,2.85,2.85,0,0,0-.23,1l1.12,14.86v2.09l-.41-.25-.11,1.47-.42,1.11.47,2.81V277l.24.37q0,3.67.06,10.79l.17.73a15.55,15.55,0,0,0-.52,2.58l-.6,1a2.7,2.7,0,0,1,1.12,2.2,4.93,4.93,0,0,0,0,2l-.47,1.22a23.45,23.45,0,0,0,.24,2.7A25.1,25.1,0,0,1,679.05,303.36Zm-4.51-73.56a2.85,2.85,0,0,1-.28-1.72.85.85,0,0,1-.09-.73l-.38-.86v-.61c-.69-1-.84-1.8-.47-2.45l-.28-.86v.12c.25-.65.12-2-.38-4l.1-1.11a31.34,31.34,0,0,0-2.25-5.27l-1.21-.74c-1.63-3.18-2.62-5.06-3-5.63a9.57,9.57,0,0,0-4.68-3.32,28.24,28.24,0,0,0-3.27-2.32l-.66.24c-2.43-.81-4.14-1.06-5.14-.73l-.38-.5-.46.5c-1.31.16-2.12.08-2.44-.25l-1,.49a9.7,9.7,0,0,0-3.09-.61l-.19-.25-.19.49a13.27,13.27,0,0,1-2.8-.12l-.38.49-.28-.49a18.38,18.38,0,0,0-2.15.49l-.94-.74-.74.5-.28-.5-.38.5-.37-.37-.94.24-.09-.37-.38.5a2.46,2.46,0,0,0-.75-.13,5.32,5.32,0,0,0-3.27,1.72c.06,1.22,0,3.15-.09,5.76a5.67,5.67,0,0,1-.1,4.41v2.82a10.43,10.43,0,0,0,0,2l.29,1.1-.29,1.84a6.18,6.18,0,0,1,.57,2.57q-.85,1.72-.75,5.89a37.31,37.31,0,0,1-.19,6.25l.37.37v1.1l.85,1.59a8,8,0,0,0-.85,2.09v1.59l-.37,1.23.28.49c.06.73.09,1.84.09,3.31a6.89,6.89,0,0,0,.76,1.84c-.19.82-.44,2-.76,3.55.19,0,.29.13.29.37l-.29.25q.1,2.33.19,7l.38,1,1.41,1a25.6,25.6,0,0,0,4.15-.24,1.17,1.17,0,0,1,.66-.61c.69.41,2.47.61,5.36.61-.31,0,.45-.37,2.27-1.1l1.5.63.19.47a9.25,9.25,0,0,0,2.64-1.1l.66.73h.85l1.79-1.22a8.43,8.43,0,0,0,3.58.49c.75,0,1.78-.86,3.1-2.58l1.6.25.38-.49H662a41.83,41.83,0,0,0,4.9-5.46,36.54,36.54,0,0,0,4.24-6.07l.1-1.84c.77-1,1.36-1.79,1.78-2.45l-.28-.12c0-.08.09-.16.28-.25a21.59,21.59,0,0,1,.94-7.47l-.19-.25a3.75,3.75,0,0,0,.47-2.33Zm-19,55.54a7.27,7.27,0,0,0-1.6-4.54l-2.82-3.43-.19.24-.47-.73-.18.24-.38-.49a7.3,7.3,0,0,0-3.38.25l-.38-.49c-1.13,1-2.25,2-3.38,3.06a7.82,7.82,0,0,0-2.26,4.05,10.7,10.7,0,0,1-.18,3.31l-.19.24c.57,3.11,1.42,5.31,2.57,6.62a11.93,11.93,0,0,0,5.23,3.07V292l.47-.49-.47-1.23v-2.45l1.14-.86,1.14.25.38-.25.29-.49a25.25,25.25,0,0,0,2.76.49l.66-.49.38.25Zm3.38-51a4.38,4.38,0,0,0-.84,2.08l-.38,2.45a3.4,3.4,0,0,1-1.74,2.7,6.6,6.6,0,0,1-3,1.35l-.47.49-.19-.25-.47.74a7.8,7.8,0,0,0-2.72,1l-.38-.49-2.16-.25-.47.5-.37-.5-.38.5c-.25-.5-.56-1.23-.94-2.21q.28-9.44.09-9.81c.63-1.55.72-4.66.29-9.32a20.6,20.6,0,0,0,.18-2.69,9.08,9.08,0,0,0-.09-2.7v-2.7a3.63,3.63,0,0,1,1.22-1.22c.75,0,1.94,0,3.57-.13l.85.37.75-.24c1,.73,2.51,1.71,4.51,2.94q2.82,4.29,2.35,6.74a5.64,5.64,0,0,1,.33,2,3.52,3.52,0,0,0,.42,1.9Zm-.08,53.33a.83.83,0,0,1-.56-.25,32.53,32.53,0,0,1-5.26.37l-.37.49h-.37l-.73,1.35-.74.37a1.56,1.56,0,0,0-.74-.74l-.56-1.23-.55.49c.06,1.39.06,3.31,0,5.77l-.28.49h.09c.13,0,.14.35.05,1.08a34,34,0,0,0,.14,5l1.13,1a12.71,12.71,0,0,0,3.76-.74l1.41.74,2.35-.74.84.74.85-1.65q.09-2.16,0-6.73v-1.9A19.49,19.49,0,0,0,658.86,287.67Z"/><path class="cls-2" d="M742,304.22q-.84,1.47-1.5,1.47l-.56.49-.19-.49-.28.49a6.46,6.46,0,0,0-1.78-.2c.12-.19.06-.29-.19-.29s-.31.16-.19.49l-.56-.86-.65.12-.38.49-.28.25a3.59,3.59,0,0,1-2.06-.49l-.37.49a16.36,16.36,0,0,0-2.91,0l-.37-.49-1.41.49a2.4,2.4,0,0,0-.65-.86l-1.41.24-.75.62-.56-.49-1.59.49-.19-.49-.19.49h-8.52l-.38-.49a3.73,3.73,0,0,1-1.59.49c.12-.33.06-.49-.19-.49s-.31.16-.19.49h-2l-.28.24-2.91.25a.38.38,0,0,0-.19-.49q-.09.15-.18.33l-2,.16-1.4-.49-.94.49a4.9,4.9,0,0,1-2.25-.49l-.94.49-.56-.49-.47.49a6.59,6.59,0,0,0-.93-.87l-1.41-.11-1.22.49-.37-.49-.19.39-1.4.2-.38.39-.19-.49a8.11,8.11,0,0,1-2.43.24l-.38.25-.37-.49-.19.49-.84-.49-.47.49-.28-.49-.19.49-.37-.49a6.21,6.21,0,0,1-2.34,1,4.06,4.06,0,0,1-.75-2,17.62,17.62,0,0,0-.38-1.78V251.62h.3l.45-1.35L683,247.7V232.25a17.24,17.24,0,0,1,.75-2.69,12.34,12.34,0,0,0-.75-2.82V203.32a5.24,5.24,0,0,0,.75-2.57,27.79,27.79,0,0,1-.75-6.38c0-2.21.56-3.31,1.69-3.31h2.16a9.73,9.73,0,0,0,2.17,0l.75.49h.84a2.92,2.92,0,0,0,1.79.49,2.58,2.58,0,0,0,1.41-.49l.56.49.38-.49h2.07l.56-.49h1.41l.94.49h4.79l1.32.49h2.44l.38-.49a6.85,6.85,0,0,1,2.63-.24l.28-.25,2.44.49a7,7,0,0,0,1.79-.49c1.19.2,3,.53,5.36,1l.94-.49.56.49c.19-.24.78-.41,1.78-.49l.66.49a2.74,2.74,0,0,1,1.79-1l.19.65,3.38.33.19-.24a16.32,16.32,0,0,1,2.91-.25l.66.16.56.33.66-.24.56-.74a6.58,6.58,0,0,1,2,.49l2.53-.49,1,1.59a39,39,0,0,0,.19,7.61,15.24,15.24,0,0,0-.38,3.8c0,.57.08,1.84.24,3.8a36.79,36.79,0,0,1,.14,4.53,12.11,12.11,0,0,1-.47,3.8c.12,1.39,0,2.17-.47,2.33l.26.13a96.51,96.51,0,0,1,1,12,9.94,9.94,0,0,1-.66,3.31,2.81,2.81,0,0,1,.28,2.33q.09,0,0,.24c0,.09-.09.17-.28.25l.49.37a16.62,16.62,0,0,1,.17,3.55v5.4l-.66,1c.44-.08.66.36.66,1.35a20.94,20.94,0,0,1-1,6.74c.13,1,.38,2.29.76,3.92l-.38,2.09a8.93,8.93,0,0,1,.66,4.16q-.28,5.16-.28,4.54l.28,1a15.69,15.69,0,0,1-.66,3.43,15.77,15.77,0,0,1,.37,4.05l.29.86q.09,4.29-.44,12.5a1.27,1.27,0,0,0-.22.86,2.88,2.88,0,0,0,.25,1.1l.13,1.35-.38.61v5.52a1.78,1.78,0,0,1,.41,1.35,8.58,8.58,0,0,0,.08,1.72Zm-37.78-20.35-.38-.74-1.59.25-.19-.5-.38.5-1.31-.5-.29.5-.37-.5-.56.5-.29-.5c-1.38,0-3.47,0-6.29.13l-.76-.37-.56.49-1.22-.49-.38.49-.47-.49-.56.49-.56-.49-.76.49V284l4.14,6.86c2.32,3.68,3.69,5.52,4.13,5.52l2.82-3.31q-.93-1.35-2.91-3.8l-.19-.86,1-.86,4.6.49c1.19,0,2-.94,2.35-2.82l.47.13v-.49A2.58,2.58,0,0,1,704.24,283.87Zm33.17-11.41a2.41,2.41,0,0,0-1.27-1.83q-1.1-.61-2-1.11l-.56.25-.38-.49-.19.24-.28-.37a19.17,19.17,0,0,1-2.75-.24,4.81,4.81,0,0,0-1.79-1.23l-.38-.49-.19.25-.28-.49-.57.24-.38-.49-.19.25-.38-.37a1.94,1.94,0,0,1-1.13.12,10,10,0,0,0-2.46-1.59l-.28-.49a5,5,0,0,0-1.33-.25l-.37-.37-.67-.24L719,263a33.36,33.36,0,0,1-3.12-1.59l-.48.25q-.95-1.6-9.26-7.61l.19-.24c-.25-.82-.63-2-1.13-3.56v-.85c.19-.08.28-.41.28-1a4.14,4.14,0,0,1,.09-1.11,19.16,19.16,0,0,1,.29-4.9,5.77,5.77,0,0,1,2-1.6H719l1.22-1.47c-.18-.73-.5-1.84-.93-3.31a20.41,20.41,0,0,1,.93-2.33v-1.47l-.46-1.84v-.61c0-.9-1-1.35-2.9-1.35l-.19.49-.37-.49H712l-.28.49-.37-.32-.47-.17h-.28l-.56.49-.28-.49-.56.49-2-.49L707,228l-.18.49-.28-.49c-.44-.16-.78-.73-1-1.71a3.33,3.33,0,0,0-.75-1.72l.85-2v-1.84c.44-1.39.88-2.17,1.31-2.33a11.24,11.24,0,0,1,2.45-.12,12.92,12.92,0,0,0,2-.25,13.93,13.93,0,0,1,2.16-.24l.47-.25.76.37a15.83,15.83,0,0,1,6-.55,21.52,21.52,0,0,0,5.88-.31l.84.49.57-.24,1,.36a25.63,25.63,0,0,0,3.29-.36l.37-.49h.19a3.56,3.56,0,0,0,.28-2.09c-.25-1.14-.37-1.75-.37-1.84a13.06,13.06,0,0,1,.66-3.55,5.42,5.42,0,0,0-.57-2,10.42,10.42,0,0,0,.57-2.82l.18-.25v-1c-.31-.49-.72-1.23-1.22-2.21h-2.82l-1.13.19-.47.55-.94-.74-4.13.49-.1-.49q-2.45.73-2.91,1.47a6.63,6.63,0,0,1-1.79-1.47h-2.25l-.94.49-.38-.49-1,.49a24.7,24.7,0,0,0-4.51-.49l-.38.74-.56-.74-.1.74h-.75l-1.13-.74a26.11,26.11,0,0,1-3,1.23l-1.22-1.23-.37.54-1-.36-.37.31-1.21-.49-.37.62c-.68-.1-1,.1-1,.61l-.55-.61-2.6-.62-1.85.86q-1.11.38-1.11,12.67a11.3,11.3,0,0,0,.84,2.83,26.74,26.74,0,0,0-.67,10l-.45.24.28.74v4.92l.84,2.09c-.56,2.95-.74,4.92-.52,5.9l-.32.62a17.44,17.44,0,0,0,.84,3.81v2.34a36,36,0,0,1-.84,3.69l1.22,2.34-.51.86a24.75,24.75,0,0,0-.71,5.78l.09,1.72q2.64,3.81,17.05,13.16l.94-.24a19,19,0,0,0,5.14,3.67,19.91,19.91,0,0,0,5.88,2.33c.38.57.69.9.94,1l.57-.24a16.43,16.43,0,0,0,3.58,1.84l.37.49.19-.25.29.49a9,9,0,0,0,3.76.74l.38.49.19-.25.38.37h.47l.28.49h.85l.84-1.47-.09-.49a12.14,12.14,0,0,1,1.15-3.68l.35-1v-.37A51.87,51.87,0,0,1,737.41,272.46Zm-23.68,16.8-.94-.86-.56.49-.38-.49-.28.49-.38-.49-.56.49-4.51-.24-.28-.25a7.51,7.51,0,0,1-3.48,1,6.16,6.16,0,0,0-2.07-.49h-2.16l-1,.61c1.12,1.8,2.5,4.3,4.13,7.48q1.23,1.59,3.48,5.27l.56-.49c.32-.08,1.66-2,4-5.63Q713.36,289.74,713.73,289.26Z"/><path d="M805.08,301.76a22.42,22.42,0,0,1-.29,3.68l-.37.25-2,.24-.37-.73a7.83,7.83,0,0,0-1.13.73l-.37-.73H798.5l-.38.73h-1.31l-.29-.73-.37.59a6.09,6.09,0,0,0-2.92.14h-1.78a2.22,2.22,0,0,0-1.88-.73l-.38.73-.56-.73-.19.73-.75-.73a.45.45,0,0,1,0,.73,3.13,3.13,0,0,1-.28-.73l-.38.73-.37-.73-.38.73h-3.57l-.38.37-.37-.37h-3l-.85-.73a6.42,6.42,0,0,1-2.91.24l-.37.49h-3.67l-.09.37-.47-.37-.57.22a5,5,0,0,0-2.35.15,1.93,1.93,0,0,0-.65-.37c-.76,0-1.95.05-3.58.15l-.37.22-.94-.37-.66.37-.75-.32-.38-.47a7.5,7.5,0,0,0-2.91-.31l-.28.73h-3.1c.12,0-.88.29-3,.86l-.38-.49a5.72,5.72,0,0,1-2,.49l-.66-.49-.19.49-.94-.73c0-.58-.15-3-.47-7.36a25.38,25.38,0,0,0,.1-3.43,2.58,2.58,0,0,0,.47-1.6l-.28.37q-.29-9.44.09-10.17a2.5,2.5,0,0,1-.56-.86l.37-1-.47-.74v-5a13,13,0,0,0,.85-4.53q-.37-.37-.57-5.4a28,28,0,0,0-.09-5.14h.19c-.07-2.62-.19-5.44-.38-8.46l.94-2.21a1.49,1.49,0,0,0-.37-.74,18.8,18.8,0,0,1-.47-3.18q0-14.72.56-16.43c-.13-.9-.35-2.17-.66-3.8V214.72l.66-1.35a10.43,10.43,0,0,1-.19-3.8,1.16,1.16,0,0,1-.37-.49,1,1,0,0,1,.28-.24l-.38-5.76a8.16,8.16,0,0,0,.66-2.21,20.52,20.52,0,0,0-.42-3.25,21,21,0,0,1-.43-3.49,15,15,0,0,1,.19-2.09c.88,0,2.18-.06,3.91-.18s3-.19,3.91-.19l.84.25.57.49h2.26l.37-.49.76-.25h4.33l.47.49.94-.49h2.54a3.83,3.83,0,0,1,1.6.74l1-.49,1.78.49c.32,0,.94,0,1.89-.12a5.09,5.09,0,0,1,1.88-.13l.19-.49h2.91l.1-.36a35.63,35.63,0,0,0,7.34.85l.38-.34,5.08-.51.19.61,1.41-.25.66.49.19-.49a15.71,15.71,0,0,1,5.08.49,2.48,2.48,0,0,0,.85-.85l.56.51,1,.34.37-.49.57.25,1.22-.61a4.35,4.35,0,0,0,1.13,1,18.49,18.49,0,0,1,.19,2.84c0,.83-.08,2.06-.24,3.71s-.23,2.88-.23,3.7a12.76,12.76,0,0,0,.28,2.84,17.15,17.15,0,0,0,.19,4.07c.06,1.23,0,3.12-.13,5.68l-.21.49c-.09,2.63-.13,3.58-.13,2.84,0,.49,0,1.19.08,2.1s.08,1.48.08,1.72l.31.25v2.84c0,1.4.07,2.34.07,2.84H805a12.42,12.42,0,0,0-.25,4.29,3.9,3.9,0,0,0-.5,1.71,28.25,28.25,0,0,0,.23,2.82,26.55,26.55,0,0,1,.24,2.82v10.42a7.07,7.07,0,0,0-.51,2.46,21.24,21.24,0,0,1-.34,2.82l-.09.49.47.49c0,1.06,0,2.61.14,4.66s.14,3.51.14,4.41c0,.32,0,1,.14,2a12.43,12.43,0,0,1,.05,2.39l.28.49a21.73,21.73,0,0,1-.94,3.8l-.09.49a11.44,11.44,0,0,1,.75,2.7l-.47.49a7.8,7.8,0,0,0,.75,1.84,10.07,10.07,0,0,0-.28,3.43c0,4,.09,6.21.28,6.62l-.75,2.33c.2.65.35,1.23.47,1.72a14.63,14.63,0,0,0,0,3.68C805,300.29,805.08,301.68,805.08,301.76Zm-6.11-38a10.71,10.71,0,0,0-.94-4.41v-.86a12.25,12.25,0,0,0-1.41-5.15q-2-4.29-2.16-4.78-2.36-2.7-6.58-8.09l-.1.24-.37-.37-.75-.24q-2.45-2-5-4.29a9.53,9.53,0,0,1-3.34-3.68,9.53,9.53,0,0,1,.94-11.4q2.4-3.31,4.56-4l.37-.49h.47l.57-.36.47.12a33.22,33.22,0,0,0,7.7-2.94l.57.49,2.16.12.84-.37.57.25a3,3,0,0,1,.94-1,6.75,6.75,0,0,0-1.22-2.7l.09-.25q-.29-.6-3.29-5.39l.38-2.09a10.38,10.38,0,0,0-2.07-3.8l-.38.25-.75-.74-.09.49c-.07-.16-.13-.32-.19-.49l-.28.49a5,5,0,0,0-4.42,1.35l-1-.24-.47.49q-10.35,3.92-14,10.79-1.31.48-3.38,3.74a13,13,0,0,0-2.25,5.08h.18a7.73,7.73,0,0,0-.94,3.56,15.62,15.62,0,0,0-1,5.64c0,.24,0,.65.09,1.22a11.82,11.82,0,0,1,.1,1.35l.37,1a4,4,0,0,0-.28,1.6,10.85,10.85,0,0,0,1,4.35,6.65,6.65,0,0,0,2.4,3.13l.18,1.59a84.42,84.42,0,0,0,8.37,7.72,30.24,30.24,0,0,1,7.52,8.71c.37,1.22,1,3,1.87,5.39l-.37,1a11.63,11.63,0,0,1-2.44,8.22,35.5,35.5,0,0,1-5.55,5.76l-.75-.13-.28.37-.47-.24a5.66,5.66,0,0,0-1.88,1h-.57l-.37.49c-.88-.08-1.76.45-2.63,1.59l-1.22-.24A16.14,16.14,0,0,0,765,283l-.19.24-.56-.49-1.79.62-.18.36a3.69,3.69,0,0,0-2-.36l-1.78.24-1.79-.37-1.13,1.23a12.63,12.63,0,0,1,1.41,5.27l.38.12a6.29,6.29,0,0,0,.66,3.19,10,10,0,0,1,.84,3.68,3,3,0,0,0,1.7,3.06,11.86,11.86,0,0,0,3.1.25h.18a10.32,10.32,0,0,1,2.73-.74l.38-.49a6,6,0,0,1,3.38-.37l.37-.49,1.51-.49.37.25.19-.49.57.24L774,297a6.38,6.38,0,0,0,2.73-1c1.44-.73,2.38-1.18,2.81-1.35.25-.32.41-.41.47-.24l.47-.49,1.23-.37.56-.74c.44-.24,1.09-.57,2-1a29.21,29.21,0,0,1,3-2.69,27,27,0,0,0,3.52-4.6,26.32,26.32,0,0,1,3.43-4.48,8.87,8.87,0,0,1,.66-1.83q1.7-1.47,2.54-5.15l-.09-1,.18-.86.57-.74A22.35,22.35,0,0,0,799,263.76Z"/><path class="cls-3" d="M868.42,303.48l-1,1.59-.66.25h-2.53l-.47-.74-.94.13-.38.61h-5a2.48,2.48,0,0,0-1.69-.37l-.28-.37a6.42,6.42,0,0,1-.94.74l-.75-.74-.1.42a11.32,11.32,0,0,0-2.07.32h-7.14a4.45,4.45,0,0,0-1.41.37l-.94-.37h-2.72l-1.41.37a9.22,9.22,0,0,0-2.26-.37l-.47.37c-.44-.33-1.57-.33-3.38,0,.06-.17,0-.29-.19-.37-.06.12-.13.24-.19.37a5.47,5.47,0,0,1-3.76-.37l-.65.17-.47.69-.29-.49h-.94l-.37-.37h-5.83l-1.13.86-1.12-.49c.12.32.06.49-.19.49s-.32-.17-.19-.49l-1,.49-.76-.49-.18.49h-1.22l-.38-.49a6.57,6.57,0,0,1-2.73.49l-.65-1.47a25,25,0,0,1,.09-7.22,11.8,11.8,0,0,1-.19-3.18q0-2.56.19-6.72a28.61,28.61,0,0,1-.47-6.37l.09-.24-.28-2.57a3.1,3.1,0,0,0,.28-1l-.56-1.1a1.47,1.47,0,0,0,.56-.85l-.18-1a14.83,14.83,0,0,1,.56-3.55q0-2.56-.09-7.22-.2-5.25-.19-7.34c0,.49-.1-.53-.28-3a13.47,13.47,0,0,1,.56-3.43,21.53,21.53,0,0,1-.38-4.28,41.84,41.84,0,0,0,0-4.4l-.28-.5a3.7,3.7,0,0,0,.19-1.34,18.18,18.18,0,0,0-.28-2.63,18.43,18.43,0,0,1-.28-2.75c0-2,.28-3.3.84-4v-.37a47.62,47.62,0,0,0-.09-4.89c-.13-2.61-.22-4.28-.28-5l-.38-.49.28-.49c.06-1.22.1-2.49.1-3.79.06-2,.25-3,.56-3.18l-.47-.49a31.19,31.19,0,0,0-.47-4.41v-2.2l.28-.24a24.41,24.41,0,0,1,.66-3.43,23.29,23.29,0,0,1-.56-3.79,1.12,1.12,0,0,1-.1-.61c0-.41-.09-.57-.28-.49a21.15,21.15,0,0,0-.19-2.33,19.08,19.08,0,0,1,.57-2.45l1.5.61,3.29-.25a7.77,7.77,0,0,1,1.83.37,7.46,7.46,0,0,0,1.93.37,5.6,5.6,0,0,0,3.38-1.1l3.76.61.94-.61a16.12,16.12,0,0,0,4.7.57l.38.28,1.59-.24.85.49L834,192a4,4,0,0,0,1.69-.22l1.51-.44.18.36,1.51-.36a26.16,26.16,0,0,0,5.35.21l1.13.64,2-.49.18.49a5.62,5.62,0,0,0,2-.85,6.56,6.56,0,0,0,5,0l.75.46a6.59,6.59,0,0,1,2.35.15l.37-.25h3.48l.38-.22.75-.14.56.36a3.48,3.48,0,0,0,1.79-.3,5.2,5.2,0,0,1,1.6-.43c.31,0,.65.45,1,1.35,0,.65,0,1.88.09,3.67l.29.62-.38.37a13.57,13.57,0,0,1,0,3.18c-.06,1.15-.13,2.25-.19,3.31a34.29,34.29,0,0,1,.42,6.13l.15.37-.76,8.58.38-.24v15.44q0,.74.12,2.46c.09,1.14.13,1.88.13,2.2l.13.25a31.28,31.28,0,0,0-.38,6.68,29.66,29.66,0,0,1-.38,6.56l.38.49-.56,2.33.09,1,.47.12-.38.61q.28,5.52.66,13.24h.1v1.11a6.31,6.31,0,0,1-.76,3.31l.38,1.71v2.33l.4,1.47a11.43,11.43,0,0,0,.16,4.17v5.64a9.49,9.49,0,0,1-.94,2l.76,1.35a70.08,70.08,0,0,0,.18,8.95l-.18.25Zm-37.88-19.94-.28-.78-.75.25-.28-.49a6.59,6.59,0,0,1-3.1,0l-.38.49-.94-.49c-3.7,0-5.61-.09-5.73-.25l-.19.49a20.71,20.71,0,0,0-5.45,0q.75,2.58,8.18,13.37h.75l1.88-3.36q-.94-1.39-2.54-4.29l.85-.81h5l1.12-.65C829.1,286.33,829.73,285.17,830.54,283.54Zm9.68,5.11-.37-.74h-4.42l-.28.49-.38-.49-1.69.49-.66-.49a9.8,9.8,0,0,0-1.22.12,10.3,10.3,0,0,1-1.31.13l-.38.49-.56-.49-.47.49h-2.17l-.56-.49-2,.36-.19-.36-.66.85a29.24,29.24,0,0,1,4.32,6.13q1.89,3.32,3.67,6.62l.56-.36.19.36Zm19.46-29.55-.38.25V257a17.35,17.35,0,0,0-.75-4.54,11.16,11.16,0,0,1,.75-2.45V235.56l-.38-.12a14.27,14.27,0,0,0-.37-3.92l.09-1,.28-.49a24.39,24.39,0,0,1,.38-3.44V203.2a11.77,11.77,0,0,0-.66-2.82l-.37-.49-2.35-.12a2.82,2.82,0,0,1-1.6.73,2.68,2.68,0,0,1-1.41-.73l-1.41.49-.75-.49-.38.49-.84.49-.94-.49h-.47l-.57-.49-1.69.61-.56.73a14.64,14.64,0,0,1-.1,1.47v1.6a15.68,15.68,0,0,0,.29,4.29,17.4,17.4,0,0,0,.28,5.27v12a1.1,1.1,0,0,0,.37,1,12.76,12.76,0,0,0-.65,4.78l-.19.12V243l.66,1.47c-.13.74-.29,1.88-.47,3.44l-.19.24.19.25v12.5l1.69.74,1.5-1,.94.25.38.49.94-.24.18.49.57-.49c1.63.16,2.75-.09,3.38-.74l.56.49h.85l.75.49a6.25,6.25,0,0,0,1.65-.67A3.41,3.41,0,0,0,859.68,259.1Z"/><path d="M931.29,239.12l-.38,2.33v1.35a2.59,2.59,0,0,0-.38,1l.38.36a28.13,28.13,0,0,0,0,3.19v3.07a6.42,6.42,0,0,0-.38,2.94,2.87,2.87,0,0,0-.56,2l.56,1.35v.12l.38.49a20.31,20.31,0,0,0-.38,3.8c0,.57,0,1.8.1,3.68,0,1.47,0,2.7,0,3.68l.23,1.47c-.08.65-.21,2.37-.38,5.15l.3.49a24.32,24.32,0,0,0,.08,3.19l-.38.36.38.62q0,3.68-.08,11a4.62,4.62,0,0,0-.3,1.1l.38,1.84v10.55l-1.12,1.34-1.13.37h-2.25a6.38,6.38,0,0,0-1.31-.61,4.84,4.84,0,0,1-2.25.24l-.18.37h-5.25a1.93,1.93,0,0,0-.65-.61,42.63,42.63,0,0,0-5.34.61h-3.28l-.1.49-2.34-.49-.75.49-.37-.49-.84.49a7.62,7.62,0,0,1-1.6-.49l-.75.49-.37-.49-.47.49-.38-.49-.74.49a1.88,1.88,0,0,0-1.22-.49,3.08,3.08,0,0,0-2,.49h-3.56l-.37-.49-.94.49-.09-.49-.75,1-.38-.49a.78.78,0,0,0-.47.49c-.68-.07-1.84-.11-3.46-.11l-1.22-.87-5.25,1-.28-.49-.28.49H875l-.57.49c-.37-.24-1-.61-1.78-1.1l.1-.37c0-.49-.16-.65-.47-.49l.37-6.37-.37-.13q0-2.2.37-6.25l-.28-.86-.28-12.75-.19-.49.28-.49a28,28,0,0,1,.47-6.13c-.18-1.47-.43-3.14-.75-5q.2,0,.19-14.59c0-1.06.22-1.68.66-1.84l-.27-.86-.2-2.7V203.69l.47-3.07-.85-5.88.47-1.59v-.25l.38-1,1.13-.61.37.73a18.66,18.66,0,0,1,2.63-.73l.19.73.57-.73.18.73,1.23-.73.18.73,15.6-.73c-.62.08.38.32,3,.73a26.52,26.52,0,0,1,7-.37l.75-.36h2.72l.85.18.37.37a8.83,8.83,0,0,1,2.35.18,1.78,1.78,0,0,0,.66-.73h1.22l.94.73c.63-.12,1.6-.37,2.92-.73a2.25,2.25,0,0,0,1.59.73h2.45a6.67,6.67,0,0,1,2.53,0l1.23-.73,1.31.73,2.45-.73c1.18.41,1.78,2.82,1.78,7.23a23.84,23.84,0,0,1-.38,5.15v.73l.13.25c.08,2.94.1,5,0,6.13.08.49.15,1.35.21,2.57a20.19,20.19,0,0,0-.38,6.5l.26.49c0,.57.06,1.8.06,3.68h.06a9.22,9.22,0,0,1-.38,2.94l.38.12-.09.62c0,.81-.05,2-.14,3.49s-.15,2.64-.15,3.37C930.53,234.83,930.78,236.34,931.29,239.12Zm-5.92,21.08q-.48-1.47-1.51-4.53l.1-.12a37.91,37.91,0,0,0-1-5.64v-2.82l.47-.49a20.55,20.55,0,0,1-.66-3.93,13.34,13.34,0,0,1,.38-3.06,16.55,16.55,0,0,1-.09-4.17q.18-3.18.18-4.17l.19-.73-.28-.49v-.62l-.85-.85h-1.5l-1,1.1-.47-.49-2.73-.61-1.5.61-.1.37-.56-.37-.28.49v-.14l-2-1-1.79.49-.38.37a32.53,32.53,0,0,0,.57,4.94,14,14,0,0,0-.47,4,3.9,3.9,0,0,1,.19,1.48,10.18,10.18,0,0,1-1.13,5.43,12.43,12.43,0,0,1-3.29,1q-1.7-.49-5-1.59l-.38-.49-1.31-.48a17.69,17.69,0,0,1-2.64-3.3l.1-.25q-1.89-1.83-1.41-8.79l-.19-.12.19-.85-.09-.25v-1q2.05-7,4-9.28a5.48,5.48,0,0,1,3.71-1.71,6.61,6.61,0,0,0,3.8-1.47h1.13l.38-.2.37-.41q9.87.62,13.16.61a4.9,4.9,0,0,0,1.69-1.09V209l-.19-.6a1.53,1.53,0,0,1-.18-.86,4.28,4.28,0,0,1,.94-2.31c-.38-.32-.47-.93-.29-1.82l-1.22-1.58-6.86-.49-.66.49-.56-.25-1.22.49L912,201.6c-.37,0-1.85.21-4.42.62a15.56,15.56,0,0,1-4.22.12l-.29-.25-.37.49-.19-.49-.47.49-.38-.49q-1.87-.36-4.79,1.84l-.56-.24a28.16,28.16,0,0,0-5.74,4.29c-1.69,1.72-3.41,3.43-5.16,5.15-.51,1.22-1.26,3.19-2.26,5.88v.37a10.12,10.12,0,0,0-1,4.54,19.44,19.44,0,0,0-.76,5.64,40.9,40.9,0,0,1-.37,5.88l.19.74a15.91,15.91,0,0,0,1.22,7,38.58,38.58,0,0,1,2,5.4q4,6.49,8.65,9.07a17.93,17.93,0,0,0,7,1.84c2.45.16,4,.57,4.7,1.22l10.81-.36.09.36q6.67-.48,7-.36l.66.36,1.88-.24Zm-17.86,24.65-1.13-4.05-.37.25.18-.62a7.07,7.07,0,0,0-4.79-3.8l-.37-.49-.94.12-.19-.36a5.51,5.51,0,0,0-1.79.61l-.56-.25-.38.49-.19-.24-.47.74-.18-.25q-2.82,3.79-2.92,3.92a23.25,23.25,0,0,0-1.5,5q.75,7.35,5.26,9.32l.38.36a3.37,3.37,0,0,1,2.16.5,29.23,29.23,0,0,0,.56-8.22l1-.86h3.57A2.75,2.75,0,0,0,907.51,284.85Zm3.76,9.93v-6.26l-.76-1.22q-2.85.24-8.63.86c-.25.32-.48.44-.67.36a42.9,42.9,0,0,1-.09,4.79c-.19,2.36-.28,4-.28,4.9,0,1.72.4,2.57,1.22,2.57l.47.49a52.37,52.37,0,0,0,7.89-.49l.66-1C911.21,298,911.27,296.33,911.27,294.78Z"/><path class="cls-4" d="M994.53,300.05l-.28,2.7a8,8,0,0,1-3.76,2.2l-1.32-.73-.37-.37-.47.61h-2.54l-.37.49-.57-.49-.28.16a17.9,17.9,0,0,1-2.91.09,1.73,1.73,0,0,1-1.51.24l-.47-.49-1.12.49-.66-.49-.38.49h-7.23l-.38-.49h-1l-.38.49-.56-.49-.38.49h-.38l-.37-.33-.66-.16-1.5.49-.1-.49-.37.49h-1.51l-.28-.49-.19.49a1,1,0,0,1-.14-.24.77.77,0,0,1,0-.25l-.19.49-.38-.49-.75.49h-.56c-.69.22-1.29.38-1.79.49a1.61,1.61,0,0,0-1.22,0l-.38-.33a1.37,1.37,0,0,1-1.12-.16,11.24,11.24,0,0,1-5.36.49l-.56-.49-.38.49a3.76,3.76,0,0,0-2-1H947l-.85.49-.37-.49-1,.39-.37.4q-3.76.19-8.74.19l-.66-1.71v-2.58a19,19,0,0,1,.28-4,47.75,47.75,0,0,0,.1-4.91l.28-.24-.38-.25V289.5a2,2,0,0,1-.56-1.83l.12-1.48a1.5,1.5,0,0,0,.63-.85c-.25-2.54-.5-5.56-.75-9.08l.19-.61a13.47,13.47,0,0,1,.56-5.15,37.79,37.79,0,0,1-.75-9.19l.37-.49-.3-.37-.07-.61v-1.35q0-2.94.37-8v-.25a7.1,7.1,0,0,0,.38-2.32l-.28-.5a11.53,11.53,0,0,0,0-3.06,44.9,44.9,0,0,1-.47-4.54,2.81,2.81,0,0,1,.56-2.08c-.19.08-.28-.41-.28-1.47,0-.41-.05-1.12-.14-2.15s-.14-1.81-.14-2.39l.09-2.2.66-1.6a23.09,23.09,0,0,1-.75-3.31V203.93l.28-.36a40.39,40.39,0,0,0,.47-4.42c0-.73-.08-1.79-.23-3.19s-.27-2.4-.33-3.06l-.19-.74.47-1.59c.31-.24,2.82-.45,7.52-.61.56.41,1.94.61,4.13.61l.38-.15c1.5-.1,4.57-.16,9.21-.16l.19-.3c2,.27,3.16.41,3.47.41l.1.2a8.78,8.78,0,0,0,2.35-.61l.56.61a15,15,0,0,1,4.13-.36,18,18,0,0,0,4.05-.25c.62.57,1.81.78,3.57.61l.28-.41c1.19,0,3.13-.06,5.83-.2h5.92l.75.61,1.31-.61h3.76q1.61,1.35,1.41,4.41c-.25,2.7-.25,4.37,0,5a13.64,13.64,0,0,0-.47,3.31,38.67,38.67,0,0,0,.75,8.7l-.18.37c.06,1.23-.13,2-.57,2.33v3.68a15.8,15.8,0,0,1,.66,5.15,52.26,52.26,0,0,0,.28,5.39l-.28.49a15.53,15.53,0,0,1-.19,3.07l-.47.49a41.51,41.51,0,0,0,.85,4.16l-.19,2.82a22.81,22.81,0,0,1-.19,3.8c.25.09.25.25,0,.49a41.55,41.55,0,0,1,.19,4.3l-.28,1,.09.85-.28.49a6.69,6.69,0,0,1-.09,1.84,10.55,10.55,0,0,0-.19,1.47c0,1.15.12,3,.37,5.46s.38,4.35.38,5.58q0,6.25-.09,7.35l-.38-.24-.19,1.1a84.92,84.92,0,0,1,.94,16.06l-1,1.6q1.41,1.71.56,6.37l.38.49a6.72,6.72,0,0,1-.19,1.47Zm-7.14-42.3q-.28-.48-.28-7l-.66-2.08a30.37,30.37,0,0,1,.85-4.66v-1.35c0-.08-.35-1.63-1-4.66l.66-1.83L987,233a47.36,47.36,0,0,0-.28-6.13l-.28-.12v-.62l.19-.36-.38-1.6c.06-.32.19-.81.38-1.47l.28-2.7c-.19-1.79-.47-3.92-.85-6.37q.48-2.82.66-4.29a54.57,54.57,0,0,1,0-6.87c-.25-.16-.36-.57-.33-1.22s-.17-1.06-.61-1.23a33.49,33.49,0,0,0-5.45-.24,8,8,0,0,0-1.5.36,1.46,1.46,0,0,1-1.51-.36l-.37.73-1.13-.24-1,.61a3.13,3.13,0,0,0-.19,2.21,3.33,3.33,0,0,0,.09,2.32c-.12.82-.28,2.13-.47,3.93a3.8,3.8,0,0,1,.19,1.35,39.65,39.65,0,0,1-.56,8.21l-1,.25a24,24,0,0,1-3-4q-2.82-4.29-3.29-4.9l.09-.13a61.73,61.73,0,0,0-4-6.56q-3.66-5.7-4-5.7l-.94-.12-4.7,5.4a24.82,24.82,0,0,1-5.16,4.53v.86c1.88,2.78,2.81,4.95,2.81,6.5l.29.61c-1.32,4.9-1.95,7.85-1.88,8.83q-1.12,3.43-2.73,10.79l.1.49a24.68,24.68,0,0,0-.66,5.64c-.25,1.3-.69,3.35-1.32,6.12v1.23a24.36,24.36,0,0,1-.56,7,7.83,7.83,0,0,0-.38,2.21l-.28.49c0,.9.06,2.28.19,4.16l-.28.49a1.59,1.59,0,0,1,.18.37l.19,1a2.37,2.37,0,0,0,.38,2.21,100.62,100.62,0,0,0,.75,14.83l.28.13-.19.12q1.78,9.55,5.55,15.08,1.32-.37,10.71-10.18v-.73c-.31-.66-.78-1.68-1.41-3.07l.19-.12a33.58,33.58,0,0,1-1.69-6.25c-.19,0-.32-.13-.38-.37a.67.67,0,0,1,.1-.61,64.86,64.86,0,0,1-1.6-8.22l.19-.12c-.07-.66-.22-1.64-.47-2.94V253a1.82,1.82,0,0,0,.47-1.47,9.57,9.57,0,0,0,.47-3.31l-.1-.24.29-1.23-.1-.49c.31-1.72.63-3.47.94-5.27.5-3,.94-4.46,1.32-4.54v-1.35a13.46,13.46,0,0,1,1-2.69l.66-.37,3.66,4.74-.09.24q.84,2.43,8.83,14.59a5.2,5.2,0,0,1,1.6,1.33q1.7,5.72,3.67,7.17h5l1-1.1,1.41.73.75-.12A6.44,6.44,0,0,0,987.39,257.75Zm-.92,29.2q-2.36-3.19-6.78-8.85a4.54,4.54,0,0,0-1.65,1.72,4.46,4.46,0,0,1-1.64,1.72q-1.51,1.83-4.42,5.39,1.41,2.7,7.35,9.07l.76-.21Zm.17-11.54q-4.51-5.78-7-8.83a91.31,91.31,0,0,0-7.14,9.32,22,22,0,0,0,3.38,4.66h.66A18.7,18.7,0,0,1,979.5,277l.75.37a16.4,16.4,0,0,0,2.54,3.19l.65-.37C984.19,279.21,985.26,277.61,986.64,275.41Z"/><path d="M1057.12,301.76a22.45,22.45,0,0,1-.28,3.68l-.38.25-2,.24-.38-.73a7.88,7.88,0,0,0-1.12.73l-.38-.73h-2.07l-.37.73h-1.32l-.28-.73-.38.59a6,6,0,0,0-2.91.14h-1.79a2.21,2.21,0,0,0-1.88-.73l-.37.73-.57-.73-.18.73-.76-.73a.45.45,0,0,1,0,.73,3.65,3.65,0,0,1-.28-.73l-.37.73-.38-.73-.38.73h-3.57l-.37.37-.38-.37h-3l-.84-.73a6.42,6.42,0,0,1-2.91.24l-.38.49h-3.67l-.09.37-.47-.37-.56.22a5,5,0,0,0-2.35.15,1.87,1.87,0,0,0-.66-.37q-1.12,0-3.57.15l-.38.22-.94-.37-.66.37-.75-.32-.37-.47a7.53,7.53,0,0,0-2.92-.31l-.28.73h-3.1a30.92,30.92,0,0,1-3,.86l-.37-.49a5.72,5.72,0,0,1-2,.49l-.65-.49-.19.49-.94-.73q0-.87-.47-7.36a28.94,28.94,0,0,0,.09-3.43,2.52,2.52,0,0,0,.47-1.6l-.28.37q-.28-9.44.09-10.17a2.82,2.82,0,0,1-.56-.86l.38-1-.47-.74v-5a13.06,13.06,0,0,0,.84-4.53c-.25-.25-.44-2.05-.56-5.4a29.53,29.53,0,0,0-.1-5.14h.19c-.06-2.62-.19-5.44-.37-8.46l.94-2.21a1.53,1.53,0,0,0-.38-.74,19.93,19.93,0,0,1-.47-3.18q0-14.72.56-16.43c-.12-.9-.34-2.17-.65-3.8V214.72l.65-1.35a10.33,10.33,0,0,1-.18-3.8,1.19,1.19,0,0,1-.38-.49,1.16,1.16,0,0,1,.28-.24l-.37-5.76a7.81,7.81,0,0,0,.65-2.21,20.52,20.52,0,0,0-.42-3.25,20.72,20.72,0,0,1-.42-3.49,13.64,13.64,0,0,1,.19-2.09q1.32,0,3.9-.18c1.73-.12,3-.19,3.91-.19l.85.25.56.49h2.26l.38-.49.75-.25h4.33l.47.49.94-.49h2.54a3.72,3.72,0,0,1,1.6.74l1-.49,1.79.49c.31,0,.94,0,1.88-.12a5.09,5.09,0,0,1,1.88-.13l.19-.49h2.92l.09-.36a35.72,35.72,0,0,0,7.34.85l.38-.34,5.08-.51.19.61,1.41-.25.66.49.19-.49a15.66,15.66,0,0,1,5.08.49,2.4,2.4,0,0,0,.85-.85l.57.51,1,.34.38-.49.56.25,1.23-.61a4.19,4.19,0,0,0,1.13,1,20,20,0,0,1,.18,2.84c0,.83-.07,2.06-.23,3.71s-.24,2.88-.24,3.7a12.73,12.73,0,0,0,.29,2.84,16.38,16.38,0,0,0,.18,4.07,55.05,55.05,0,0,1-.13,5.68l-.2.49c-.09,2.63-.14,3.58-.14,2.84,0,.49,0,1.19.08,2.1s.08,1.48.08,1.72l.31.25v2.84c0,1.4.07,2.34.07,2.84h.22a12.34,12.34,0,0,0-.26,4.29,3.9,3.9,0,0,0-.5,1.71,26.14,26.14,0,0,0,.24,2.82,25.82,25.82,0,0,1,.23,2.82v10.42a7.07,7.07,0,0,0-.51,2.46,19.59,19.59,0,0,1-.34,2.82l-.09.49.47.49c0,1.06,0,2.61.15,4.66s.14,3.51.14,4.41c0,.32,0,1,.14,2a12.27,12.27,0,0,1,0,2.39l.29.49a22.67,22.67,0,0,1-.94,3.8l-.1.49a11.44,11.44,0,0,1,.75,2.7l-.47.49a8.23,8.23,0,0,0,.76,1.84,9.93,9.93,0,0,0-.29,3.43c0,4,.1,6.21.29,6.62l-.76,2.33c.2.65.36,1.23.47,1.72a15.84,15.84,0,0,0,0,3.68C1057,300.29,1057.12,301.68,1057.12,301.76Zm-6.11-38a10.56,10.56,0,0,0-.94-4.41v-.86a12.25,12.25,0,0,0-1.41-5.15q-2-4.29-2.16-4.78-2.36-2.7-6.58-8.09l-.09.24-.38-.37-.75-.24q-2.45-2-5-4.29a9.61,9.61,0,0,1-3.34-3.68,10.58,10.58,0,0,1-1.45-5.27,10.75,10.75,0,0,1,2.39-6.13q2.4-3.31,4.56-4l.38-.49h.47l.56-.36.47.12a33.15,33.15,0,0,0,7.71-2.94l.56.49,2.16.12.85-.37.56.25a3,3,0,0,1,.94-1,6.48,6.48,0,0,0-1.22-2.7l.09-.25c-.18-.4-1.28-2.2-3.28-5.39l.37-2.09a10.38,10.38,0,0,0-2.07-3.8l-.37.25-.75-.74-.1.49c-.06-.16-.13-.32-.19-.49l-.28.49a5,5,0,0,0-4.42,1.35l-1-.24-.47.49q-10.33,3.92-14,10.79-1.32.48-3.38,3.74a13.09,13.09,0,0,0-2.26,5.08h.19a7.73,7.73,0,0,0-.94,3.56,15.63,15.63,0,0,0-1,5.64,11.19,11.19,0,0,0,.1,1.22q.09.87.09,1.35l.38,1a3.83,3.83,0,0,0-.28,1.6,10.83,10.83,0,0,0,1,4.35,6.65,6.65,0,0,0,2.4,3.13l.19,1.59a82.65,82.65,0,0,0,8.36,7.72,30.08,30.08,0,0,1,7.52,8.71q.55,1.83,1.88,5.39l-.38,1a11.58,11.58,0,0,1-2.44,8.22,34.64,34.64,0,0,1-5.55,5.76l-.75-.13-.28.37-.47-.24a5.66,5.66,0,0,0-1.88,1h-.56l-.38.49c-.88-.08-1.75.45-2.63,1.59l-1.22-.24a16.06,16.06,0,0,0-3.38.49l-.19.24-.57-.49-1.78.62-.19.36a3.66,3.66,0,0,0-2-.36l-1.79.24-1.78-.37-1.13,1.23a13,13,0,0,1,1.41,5.27l.37.12a6.52,6.52,0,0,0,.66,3.19,9.85,9.85,0,0,1,.85,3.68,3,3,0,0,0,1.69,3.06,11.86,11.86,0,0,0,3.1.25h.19a10.18,10.18,0,0,1,2.72-.74l.38-.49a6,6,0,0,1,3.38-.37l.38-.49,1.5-.49.38.25.19-.49.56.24.56-.49a6.34,6.34,0,0,0,2.73-1q2.16-1.1,2.82-1.35c.25-.32.4-.41.47-.24l.47-.49,1.22-.37.56-.74c.44-.24,1.1-.57,2-1a27.12,27.12,0,0,1,3-2.69,26.88,26.88,0,0,0,3.53-4.6,25.3,25.3,0,0,1,3.43-4.48,7.84,7.84,0,0,1,.66-1.83,9.57,9.57,0,0,0,2.53-5.15l-.09-1,.19-.86.56-.74A22,22,0,0,0,1051,263.76Z"/></svg>