<svg id="Layer_1" data-name="Layer 1" xmlns="http://www.w3.org/2000/svg" viewBox="0 0 1366 336"><defs><style>.cls-1{fill:#00f9ff;stroke:#000;stroke-miterlimit:10;stroke-width:2.13px;}.cls-2{fill:#f0f;}.cls-3{fill:#00c600;}.cls-4{fill:#ed1c24;}.cls-5{fill:#fbb03b;}.cls-6{fill:#00c;}</style></defs><title>portfoio-div-01</title><path class="cls-1" d="M396.34,82.51a6.3,6.3,0,0,1,2.21-.27q3.81,0,4.86,4v.53a46.16,46.16,0,0,1-.8,6.33,72.87,72.87,0,0,0-1.15,9.74q1,9.89,7.45,15.77a24.94,24.94,0,0,0,15.74,6.7l3.78-.54c1.15-.09,2.06-.18,2.75-.27s1.36-.22,2.24-.4q2.24-.44,6.55-3.45c2.8-2,4.84-3,6.14-3a3.81,3.81,0,0,1,3.56,2.48,13.28,13.28,0,0,1,1.18,5.49,30.16,30.16,0,0,1-1.06,7.8q-3.42,12.22-11.26,17.41-7.86,5.35-20.44,5.36-12.85,0-21.36-6.87t-11.94-19.62a72.7,72.7,0,0,1-1.82-14A64.3,64.3,0,0,1,387,93.89Q390.84,84.19,396.34,82.51ZM449.28,71v.84a18.63,18.63,0,0,1-3.68,10.85q-3.93,5.58-9.43,5.76a9.89,9.89,0,0,1-4.32-1.81,26.88,26.88,0,0,1-4.45-3.69,26.12,26.12,0,0,0-4.48-3.71A9.19,9.19,0,0,0,418.09,78a17.94,17.94,0,0,0-6.43,1.81,22.59,22.59,0,0,1-6.94,1.91c-1-.38-2.09-.75-3.13-1.11A4.32,4.32,0,0,1,399,79a5.32,5.32,0,0,1-1.18-3.15,17,17,0,0,1,4.58-10.44,49,49,0,0,1,13.49-8.78,37.82,37.82,0,0,1,14.69-3.28,22.09,22.09,0,0,1,13.24,4.39Q448.87,61.83,449.28,71Z"/><path class="cls-1" d="M471.8,53.05a11.52,11.52,0,0,1,9.57,4.52,18.58,18.58,0,0,1,3.39,11.25V71.7c-.09.73-.18,1.56-.26,2.47q-2.12,27.28-4.86,44.57a122.2,122.2,0,0,1,10.49-23q6.18-10.58,11.52-10.58h.54q6.81.57,10.2,10a136.09,136.09,0,0,1,5.63,22.5q1.32,11.93,1.31,15.5a54.87,54.87,0,0,1-2.75,17.55q-2.75,8.23-10.07,8.23c-2.8,0-4.5-.69-5.12-2.07s-1.33-4.19-1.95-8.47a107.55,107.55,0,0,0-2.37-12.09q-1.95-7.53-3.52-11.92-1.19-3.58-3.93-3.58-2.37,0-4.61,3.58-2.62,4.26-6.16,15.08t-4,12.21q-2,5.35-5.12,5.35-2.24,0-3.68-7.56-1.44-7.41-2.62-19.59t-2.59-27.59q-.81-8.64-1.6-26.72.68-10.85,2.62-16.74T471.8,53.05Z"/><path class="cls-1" d="M552.38,87.6a30.31,30.31,0,0,1,11.8,2.74,16.4,16.4,0,0,1,7.58,7.27,16.19,16.19,0,0,1,1.7,7.53,23.35,23.35,0,0,1-.39,4.12,15.76,15.76,0,0,1-6.42,10.28,23.47,23.47,0,0,1-11.52,4.55,9.42,9.42,0,0,1-5.25-1.94,3.63,3.63,0,0,1-1.69-3,4.26,4.26,0,0,1,.13-1q.25-1.22,3.66-4.24a9.7,9.7,0,0,0,3.41-7.55q0-6.73-6.15-6.73-5,0-7.61,5.76a32.72,32.72,0,0,0-2.88,12,20.28,20.28,0,0,0,1.83,7.67q3.67,7.83,14,8.37a18.56,18.56,0,0,0,6.68-1.64c1.84-.92,3.88-2,6.14-3.42s4-1.94,5.12-1.94q3.81,0,3.81,5.63a25.76,25.76,0,0,1-2.5,10.41,22.79,22.79,0,0,1-8.26,9.74q-5.77,4-14.8,4H550q-10.46,0-16.38-4.25a20.75,20.75,0,0,1-8-11.39,59.26,59.26,0,0,1-1.95-15.9q.25-17,7.45-27.16,7.1-9.87,21-9.87Z"/><path class="cls-1" d="M610,87.6q6.56,0,6.56,3.71c0-1,1-1.91,3-2.74a13,13,0,0,1,5-1.24,11.12,11.12,0,0,1,7.85,3.57,12.08,12.08,0,0,1,3.66,9,11.39,11.39,0,0,1-3.39,8.51,12.45,12.45,0,0,1-8.12,3.55,9.46,9.46,0,0,1-7-3.29,12.59,12.59,0,0,1-3.29-8.77c.19-1.29.37-2.3.54-3s.17-1.52.26-2.34a17.79,17.79,0,0,0-7.61,8.1,46.92,46.92,0,0,0-3.4,12.18c.18,5.12,1.44,9.28,3.81,12.49a12.73,12.73,0,0,0,9.95,5.49h.51a12.27,12.27,0,0,0,7.36-2.74c2.54-1.92,4.28-2.88,5.24-2.88a4.06,4.06,0,0,1,3.52,1.91,7.74,7.74,0,0,1,1.31,4.52,17.69,17.69,0,0,1-4.44,11.53,28.33,28.33,0,0,1-11,8.09,30.68,30.68,0,0,1-11.67,2.61h-.51q-10.25-.14-16.92-6.33t-8.9-17.28q-.37-2.17-1-8.2a42.86,42.86,0,0,1,8-25A26.82,26.82,0,0,1,610,87.6Z"/><path class="cls-1" d="M664.53,113.51q1.69-5.06,10.75-12.74a84,84,0,0,1,16.89-11.53,7.16,7.16,0,0,1,3.29-.8A8.75,8.75,0,0,1,702,91.15,10.3,10.3,0,0,1,704.48,98q0,5.49-2.88,7.28a57.86,57.86,0,0,1-10.07,4.37q-7.2,2.75-9.06,6.33a14.31,14.31,0,0,1,6,5.06,102.46,102.46,0,0,1,6.14,13.19q3.3,7.26,6.05,9.71a12.79,12.79,0,0,0,5.08,3.18c1.58.53,2.5,1.21,2.75,2a4.5,4.5,0,0,1,.29,1.51c0,1.83-1.23,3.15-3.68,4a28.5,28.5,0,0,1-9.18,1.51,16.37,16.37,0,0,1-12.57-5.23q-5-5.19-10.49-15.33t-9.15-13.73q0,.27-3,20.56-2.09,13.73-5.88,13.73h-.26q-2.12,0-3.13-4.66-1.19-4.51-2.76-14.7-1.47-12-2.91-30.16t-1.69-28.09q.25-10.16,2.35-16.32t9.71-6.18a10.15,10.15,0,0,1,7.07,2.61,15.62,15.62,0,0,1,4.06,6.58,25.71,25.71,0,0,1,1.31,8.09Q668.59,84.71,664.53,113.51Z"/><path class="cls-1" d="M782.42,53.58a33.12,33.12,0,0,1,12.05,2.75q5.63,2.61,5.62,8.23a8,8,0,0,1-1.82,5.23A7.59,7.59,0,0,1,794,72.67a22,22,0,0,1-4.73-1.53,20,20,0,0,0-7.07-1.52q-8.37,0-13.07,8.8A39.35,39.35,0,0,0,764,96.64a30.24,30.24,0,0,0,2.62,12.08,20,20,0,0,0,5.88,8.37A16.78,16.78,0,0,0,781.4,120a16.24,16.24,0,0,0,13.2-7.56,28.46,28.46,0,0,0,4.73-16.31,46.19,46.19,0,0,0-.93-8.23c-.71-3.29-1.1-5.34-1.19-6.16a11.63,11.63,0,0,1-.12-1.64,9.05,9.05,0,0,1,1.7-5.23,6.53,6.53,0,0,1,5.63-3q7.64,0,11.83,15.23a67.81,67.81,0,0,1,1.69,16.58,98.06,98.06,0,0,1-3.26,25.51,37.29,37.29,0,0,1-13.49,19.22q-10.08,7.53-20.31,7.53a34.39,34.39,0,0,1-18.57-5.22q-8.53-5.19-12.85-15.64a78.28,78.28,0,0,1-5.12-26q.54-21.66,11.53-38.27a47.83,47.83,0,0,1,12.18-12.48A25.38,25.38,0,0,1,782.42,53.58Z"/><path class="cls-1" d="M844.94,87.33q4.6,0,4.61,6.43a41.16,41.16,0,0,1-1.47,9.47,44.59,44.59,0,0,0-1.7,9.31q.54,14.83,10.36,15.24H857q5.12,0,7.33-4a21,21,0,0,0,2.36-10.55,45.1,45.1,0,0,0-.51-5.62c-.36-2.37-.71-4.46-1-6.29s-.89-3.53-1.32-5.36a9.89,9.89,0,0,1,2.11-6,6,6,0,0,1,4.83-2.34q5.13,0,9.7,12.75a75.51,75.51,0,0,1,4.6,25.52A29.74,29.74,0,0,1,876.77,147a26.83,26.83,0,0,1-20.28,8.91h-.29q-8.51,0-16.09-6.6a31.81,31.81,0,0,1-10.36-15.36,79.12,79.12,0,0,1-.93-8.07,81.78,81.78,0,0,1,4.86-25.65Q838.12,87.34,844.94,87.33Z"/><path class="cls-1" d="M914.77,62.92q8.25,0,10.62,4.39,2.08,4,2.08,13.69v2.35H928c3.22,0,5.4.73,6.53,2.21s1.73,4.64,1.73,9V96a11.11,11.11,0,0,1-1.44,6.16q-1.74,2.61-6.82,2.61,0,1.11-1.72,14.67a210.84,210.84,0,0,1-4.58,25.24q-3,11.52-6.94,11.52-2.88,0-5-4.79a65.19,65.19,0,0,1-3.65-12.49q-1.59-7.53-2.64-17.28T901.66,105c-3.4,0-5.75-.83-7.07-2.48s-2.18-4.18-2.37-7.93q0-6.6,1.85-9c1.13-1.66,3.49-2.48,7.07-2.48V81.44q0-9.89,2.75-14Q906.77,62.93,914.77,62.92Z"/><path class="cls-1" d="M967.42,81.14q0,11-4.06,30.06t-10.62,19.19q-6.13,0-10-18.52t-4.32-31q0-11.66,2.63-19.59t11.64-8q8.13,0,11.4,7a38,38,0,0,1,3.28,16.31Zm-14.68,49.25a12,12,0,0,1,8.8,3.71,13.11,13.11,0,0,1,3.52,9.18,12.78,12.78,0,0,1-3.54,9.19,11.67,11.67,0,0,1-8.78,3.7,11.2,11.2,0,0,1-8.51-3.85,12.37,12.37,0,0,1-3.65-9,12.63,12.63,0,0,1,3.65-9A11.43,11.43,0,0,1,952.74,130.39Z"/><path class="cls-2" d="M178.48,297.45c-.4.93-.73,1.4-1,1.4l-.4.25h-3.87l-.62-.63-1.35.63H164.3a10.6,10.6,0,0,1-1.56-.27l-.52-.36-.2.63-.21-.63-1.45.63H153.1a7.69,7.69,0,0,0-2.79,0h-2.89a26.44,26.44,0,0,0-5.26,0H128.54l-1.44-.63h-.93l-.41.63-.42-.63h-1c-.07.32-.65.53-1.75.63h-8.77q-.21,0-.42-1.71a51.39,51.39,0,0,1-.2-5.51c0-3,.1-6.73.31-11.29l-.42-.51q0-7.86-.2-9,.93-4.06,0-29.17c.2,0,.31-.46.31-1.39a8.65,8.65,0,0,0,0-1.78,71.39,71.39,0,0,1-.31-9.51q.19-10.9.2-9.51l1-1.39-.58-.76-.35-2.29V190.56l.93-1v-1.65a21,21,0,0,0-.38-3.17,21,21,0,0,1-.37-3.42l-.18-.63.51-1.15.73-.63,1.23.51q6.81-.77,8.57.51a26.17,26.17,0,0,1,5.47-.51H135l1-.51,1.55.51,1.65.51h5.37a8.76,8.76,0,0,1,3,0l.21-1,.62,1,.2-.77,1.55-.25,1.65,1a11,11,0,0,0,2-1l2.79,1,1.65-.51a50.7,50.7,0,0,1,6.6.51h6.81a14.54,14.54,0,0,1,4.34-.26l.82-.25,1,.38.31,1.14.31.25c0-.5-.1,2.16-.31,8a55.38,55.38,0,0,0,.31,8l-.31,1a27.28,27.28,0,0,1,.31,6c-.55,0-.65.3-.31.89a23.53,23.53,0,0,0-.31,3.43l.31-.26.31,7.89a1,1,0,0,0,0,.63v1.15a39.6,39.6,0,0,1-.62,6.73c.21,1.11.42,2,.62,2.67l-.31,1,.31.25a16.76,16.76,0,0,0,0,2.67,24.35,24.35,0,0,1-.31,3.18,15.09,15.09,0,0,1,.31,5.72,29,29,0,0,1-1.13,5.85q.3,2.79.62,8.9l.51.38v3.56c-.2,2.12-.55,4.74-1,7.88a13.74,13.74,0,0,1,.65,5.34l.38.89v7.37q0,1-.24,3.18-.72.38-.24.63l-1,.77a2.64,2.64,0,0,1,.82,1.14c.28.59.28.89,0,.89l.47.13.15,1.27-.62.51.31.25a64.23,64.23,0,0,1,0,7.37,2.66,2.66,0,0,1,.1.64C178.29,297.41,178.36,297.54,178.48,297.45Zm-5-55.09a13,13,0,0,0-.16-1.52,14.66,14.66,0,0,1-.15-1.78,7.8,7.8,0,0,0-.62-3.17c0-.34.14-1.61.41-3.81a13.47,13.47,0,0,0,.1-3.68,4.35,4.35,0,0,0,0-1.91q.21-1.4.21-7.74l.1-.89-.72-2.66.62-2.67V191.58a1.68,1.68,0,0,0-.72-1.33l-1.33-1.08-.41.51-.62-.51-2.15.76-.41-.5c-.34,0-.89-.05-1.64-.13s-1.34-.13-1.74-.13l-1.24.76a1.74,1.74,0,0,0-1.33-.76H159l-.3.51-.41-.51-1.23.64q-2.16,2.53-2.88,3.55a8.83,8.83,0,0,0-1.74,4.19l-.51.51-.62-.26q-.72,0-4.41,5.21h-.72l-5.53-6.6c-.14-.43-.72-.9-1.75-1.42a6.74,6.74,0,0,0-2.41-4.33,5.23,5.23,0,0,0-4.25-1.1,3.18,3.18,0,0,0-1.54-.39,5.12,5.12,0,0,0-1.64.59L128.2,191c-.82-1-1.61-1.44-2.36-1.27l-.41-.51a8.56,8.56,0,0,0-2.57.51l-.41-.51a5.69,5.69,0,0,1-3.28.51q-.23,2.28-.22,10.41a11.77,11.77,0,0,1-.31,2.41l.31.64a9.45,9.45,0,0,0-.52,1.9,3.2,3.2,0,0,1,.09,1.52,24,24,0,0,0,.63,5.46,45.74,45.74,0,0,0-.65,11.3l-.28.89.28.76a47.41,47.41,0,0,0,.19,5.2l.46,1a71.69,71.69,0,0,0-.2,8.12,14.27,14.27,0,0,0,.92,5.59q-.51,1.53-1.23,4.44c.34.43.51,2.88.51,7.37a41.64,41.64,0,0,0,.72,8l.83,1.15a3.73,3.73,0,0,0-.52,2.15,12.26,12.26,0,0,0,.31,2.54l-.31.38.62,1a18.13,18.13,0,0,0,.83,4.57,15.29,15.29,0,0,1,.72,4.82l.52,1.78-.11.25a22.65,22.65,0,0,0,1.24,3.18l-.1.12,1.24,2.42v.63a3.12,3.12,0,0,0,1.13,2.41,4.79,4.79,0,0,0,1.65,2.92q2-1.52,4.08-3.11a12.84,12.84,0,0,0,3.35-3.62l1.86.26c.69-.76,1.68-1.95,3-3.56l-1-2.28-.31.38-.41-1.52q-1.45-1.79-2.79-9.14-.93-5.2-1.86-10.29h.11c.13,0,.2-.12.2-.38l-.1-1.39-.62-.26v-3.3l.31-.38-.31-1.4-.31-6-.41-.51v-6.35l.21-.5a10.79,10.79,0,0,0-.62-3.18,19.92,19.92,0,0,0,.41-5.2,14.68,14.68,0,0,0-.62-3.43l.31-1.4a35.71,35.71,0,0,0-.72-8.63,12,12,0,0,0,.51-3.55,2.09,2.09,0,0,1,.42-1.53,1.61,1.61,0,0,0,.41-.12,1.24,1.24,0,0,1,.41-.13,10.18,10.18,0,0,1,1.81,2.22c1.06,1.48,2.11,2.22,3.14,2.22.35.76.73,1.53,1.14,2.29.55,1,1.1,1.57,1.65,1.65,1.93,2.79,3.3,4.19,4.13,4.19a13.82,13.82,0,0,0,5.26-5.84,25.61,25.61,0,0,0,2.89-3.3l.1-1.27a14.83,14.83,0,0,0,2.69-2.41l.82,1.14-.21,12.74a61.64,61.64,0,0,0,.62,7.77l-.41,1.27-.1,1.78.1.39-.21.25a5.54,5.54,0,0,1,.26,2.36,3.94,3.94,0,0,0,1,2.86,5.67,5.67,0,0,0-.93,2.93v2.93l-.31.38c.21.09.37.41.47,1s.32.83.67.83l.41.38h1.76l.82-.51q1.55.89,4.85.51l1.14-1a3.19,3.19,0,0,0,2.27,1,10.67,10.67,0,0,1,3.2-.64,12,12,0,0,0,.72-4.82c0-3.13,0-4.87.1-5.2Zm-3.82,39.1v-.89q-2-2.28-3.92-4.44a22.55,22.55,0,0,1-3.51-4.95q-4.76,4.95-8.56,9.64l5.36,7.11.52-.38-.31.38a11,11,0,0,0,2.68,2.67A112.28,112.28,0,0,0,169.61,281.46Zm.1-12.57h-.1a24,24,0,0,0-5.37-7.11,5.63,5.63,0,0,0-1.85-2.15h-.62a40.47,40.47,0,0,1-3.1,3.55l.21.25q-1.65,2.16-4.85,6.1c1,1,2.27,2.54,3.92,4.57l4-4.19,3.82,4.19A40,40,0,0,0,169.71,268.89Z"/><path d="M237.09,192.6c-.07.17-.24,1-.52,2.54l-.31.38c-.06.42-.2,1.16-.41,2.22a14.56,14.56,0,0,0-.31,2.48l.11.25a6,6,0,0,0-.62,2.41q0,13.08-9.6,39.48l.21.26a28.58,28.58,0,0,0-1.86,3.3,9.16,9.16,0,0,1-1.34,4.69l.31.26-3.61,5.84v1.14l-.62.12.41.13q-4.12,8-8.36,15.87-5.77,10.41-9.8,13.58a18.51,18.51,0,0,0-3.51,4.19,24.63,24.63,0,0,1-3.61,4.44h-.72a23,23,0,0,1-1.86-1.9q.21-.88-3.3-6.09a46.43,46.43,0,0,0-4.75-6.35q2.07-1.65,6.09-5.33a89.08,89.08,0,0,1,7.12-8c.14-.85,1-2.47,2.58-4.89a26.09,26.09,0,0,1,3.4-4.5l.52-2.29c2.13-3.64,3.2-6.17,3.2-7.61l1.13-1.91-.72-2,.21-.25A34,34,0,0,0,204.9,241a2.26,2.26,0,0,0-.73-1.77,26.05,26.05,0,0,1-4.23-7.87q.31-.25-.72-1.65c-.41-.59-.82-1.19-1.24-1.78a28.92,28.92,0,0,1-2.78-6.73,31.25,31.25,0,0,1-3.51-6.73,36,36,0,0,0-2.06-5.2c-1-1.52-2-3-3-4.44a14.2,14.2,0,0,1-2.06-5.21l-1.44-1.9.1-.38q-2.58-4.06-2.58-5.46l.93-1.53,5,.77h.62l1.45.5.31-.5h.82l.21-.77.62.77H191a32.11,32.11,0,0,0,3.61.5l.41-.31.31-.64,1-.32a.73.73,0,0,0,.21.77l.21-.38.82.38h.52a29.21,29.21,0,0,1,3.5,7.68l-.2.25v1a24.59,24.59,0,0,1,5.16,9.2l-.21,1.26a9.23,9.23,0,0,1,2.79,3.65,14.67,14.67,0,0,0,1.44,3.27l.21.89q3.19,5.79,3.61,5.79h.52a15.53,15.53,0,0,0,2.27-4.73l1.44-5.12-.1-1.4q.3-1.54,1.86-6.27a13,13,0,0,1,.15-3.78,20.43,20.43,0,0,0,.36-3v-.26a6.09,6.09,0,0,0,.62-2.68l-.1-.77a37.67,37.67,0,0,0,.72-4.86l.93-.9.93.77.82-.77a3.41,3.41,0,0,1,1.76.77,3.54,3.54,0,0,1,3.71-.19l.31-.58.52.77h.61a7.1,7.1,0,0,1,2.89-.77,2.56,2.56,0,0,1,1.6.77A2.06,2.06,0,0,1,237.09,192.6Z"/><path class="cls-3" d="M328.92,229.92l-.41,2.41v1.4a2.6,2.6,0,0,0-.41,1l.41.39a25.8,25.8,0,0,0,0,3.3v3.17c-.28.34-.41,1.35-.41,3.05a2.79,2.79,0,0,0-.62,2l.62,1.39v.13l.41.51a19.3,19.3,0,0,0-.41,3.93c0,.59,0,1.86.1,3.81q.06,2.28.06,3.81l.25,1.52c-.09.68-.23,2.46-.41,5.34l.33.5a21.4,21.4,0,0,0,.08,3.3l-.41.38.41.64q0,3.81-.09,11.42a4.86,4.86,0,0,0-.32,1.15l.41,1.9v10.92l-1.23,1.39-1.24.38h-2.47a7.42,7.42,0,0,0-1.44-.63,5.6,5.6,0,0,1-2.46.25l-.21.38H313.7a2.21,2.21,0,0,0-.72-.63,49.39,49.39,0,0,0-5.86.63h-3.6l-.11.51-2.57-.51-.82.51-.41-.51-.93.51a8.79,8.79,0,0,1-1.75-.51l-.82.51-.41-.51-.51.51-.42-.51-.82.51a2.06,2.06,0,0,0-1.33-.51,3.51,3.51,0,0,0-2.17.51h-3.9l-.42-.51-1,.51-.11-.51-.82,1-.41-.51a.76.76,0,0,0-.51.51c-.76-.08-2-.11-3.81-.11l-1.34-.91-5.76,1-.31-.51-.3.51h-4.63l-.62.51q-.62-.39-1.95-1.14l.1-.39c0-.5-.17-.67-.52-.5l.42-6.6-.42-.13q0-2.28.42-6.48l-.31-.88-.31-13.21-.21-.5.31-.51a26,26,0,0,1,.52-6.35c-.21-1.52-.49-3.26-.83-5.2q.21,0,.21-15.11c0-1.1.24-1.73.72-1.9l-.3-.89-.22-2.8V193.23l.52-3.17-.93-6.09.52-1.65v-.26l.41-1,1.24-.64.41.76a22.47,22.47,0,0,1,2.89-.76l.21.76.61-.76.21.76,1.34-.76.21.76,17.13-.76q-1,.14,3.3.76a31.21,31.21,0,0,1,7.64-.38l.82-.38h3l.93.19.41.38a10.25,10.25,0,0,1,2.58.19,1.88,1.88,0,0,0,.73-.76h1.34l1,.76c.69-.12,1.75-.38,3.2-.76a2.53,2.53,0,0,0,1.75.76h2.68a8.1,8.1,0,0,1,2.79,0l1.34-.76,1.45.76,2.68-.76c1.31.43,2,2.92,2,7.49a23.62,23.62,0,0,1-.41,5.33V194l.13.25c.1,3.05.11,5.16,0,6.35a23.58,23.58,0,0,1,.23,2.66,19.55,19.55,0,0,0-.41,6.73l.27.51c.05.59.07,1.86.07,3.81h.07a9.17,9.17,0,0,1-.41,3l.41.13-.1.63c0,.85-.05,2.06-.16,3.62s-.15,2.73-.15,3.49C328.1,225.48,328.37,227,328.92,229.92Zm-6.5,21.83c-.34-1-.89-2.58-1.65-4.69l.11-.13a37.82,37.82,0,0,0-1.14-5.84v-2.92l.52-.51a19.73,19.73,0,0,1-.73-4.06,12.86,12.86,0,0,1,.42-3.17,16.13,16.13,0,0,1-.11-4.32c.14-2.2.21-3.64.21-4.31l.21-.77-.31-.5v-.64L319,219h-1.65l-1.14,1.15-.51-.51-3-.64-1.65.64-.1.38-.62-.38-.31.51V220l-2.17-1-2,.51-.41.39a32.47,32.47,0,0,0,.62,5.11,13.75,13.75,0,0,0-.52,4.09,3.71,3.71,0,0,1,.21,1.54c0,2.55-.41,4.43-1.24,5.62a13.63,13.63,0,0,1-3.61,1q-1.86-.5-5.47-1.64l-.41-.51-1.45-.5a18,18,0,0,1-2.88-3.41l.1-.26c-1.38-1.26-1.89-4.3-1.55-9.1l-.21-.13.21-.88-.1-.25v-1q2.26-7.2,4.43-9.6a6.23,6.23,0,0,1,4.08-1.77,7.65,7.65,0,0,0,4.18-1.52h1.24l.41-.21.41-.43q10.83.64,14.45.64a5.66,5.66,0,0,0,1.86-1.13v-6.8l-.21-.63a1.4,1.4,0,0,1-.21-.88,4.32,4.32,0,0,1,1-2.4c-.42-.33-.52-1-.31-1.88l-1.35-1.64-7.53-.51-.72.51-.62-.25-1.34.5-1.24-.5c-.41,0-2,.21-4.85.63a18,18,0,0,1-4.64.13l-.31-.26-.42.51-.2-.51-.52.51-.41-.51c-1.38-.25-3.13.38-5.26,1.91l-.62-.26a30.76,30.76,0,0,0-6.3,4.45c-1.85,1.77-3.75,3.55-5.67,5.33q-.82,1.91-2.48,6.09v.38a10,10,0,0,0-1.13,4.7,19.07,19.07,0,0,0-.83,5.84,40.15,40.15,0,0,1-.41,6.09l.21.76a15.71,15.71,0,0,0,1.34,7.24,38,38,0,0,1,2.16,5.59q4.44,6.72,9.5,9.39a20.59,20.59,0,0,0,7.63,1.9c2.69.17,4.4.6,5.16,1.27l11.87-.38.1.38c4.88-.34,7.46-.46,7.74-.38l.72.38,2.07-.25Zm-19.6,25.52-1.24-4.19-.41.25.2-.63a7.72,7.72,0,0,0-5.26-3.94l-.41-.5-1,.12-.21-.38a6.59,6.59,0,0,0-2,.64l-.62-.26-.41.51-.21-.25-.51.76-.21-.25-3.2,4.06a23.19,23.19,0,0,0-1.65,5.2q.82,7.62,5.78,9.65l.41.38a3.9,3.9,0,0,1,2.37.51,28.6,28.6,0,0,0,.62-8.51l1.14-.88h3.92A3,3,0,0,0,302.82,277.27Zm4.12,10.28v-6.47l-.83-1.27c-2.08.17-5.24.46-9.48.89-.27.34-.52.46-.73.38a41.46,41.46,0,0,1-.1,4.95c-.21,2.45-.31,4.14-.31,5.08,0,1.77.45,2.66,1.34,2.66l.52.51a60.85,60.85,0,0,0,8.67-.51l.72-1C306.88,290.89,306.94,289.16,306.94,287.55Z"/><path d="M398.37,279.17a9.89,9.89,0,0,0-.31,3.56,15.62,15.62,0,0,0-1,2q.83,2,.62,8.76l.31.25a6.78,6.78,0,0,0,.31,3.05l-.51,1.78c-.49.08-1.21.25-2.17.5l-1-.5-.83.5c-.76-.22-1.41-.39-2-.5a19.24,19.24,0,0,0-3.51.5h-.72l-1.24-.5-.82.5-.42-.5-.72.5-.51-.25c-1.86-.17-2.58-.25-2.17-.25l-1,.17-.11.33h-5.46l-.42-.33a1.63,1.63,0,0,1-1.23-.17,15.26,15.26,0,0,1-2.17.5h-3.72l-.62-.5a7.07,7.07,0,0,0-2.16,1l-.83-.51-.41.51.1-.51a24.29,24.29,0,0,1-2.77.26l-.41.25-.83-.51h-.31a9.08,9.08,0,0,1-4.83,0l-2.26.51-.41-.51-.21.51h-1.64l-.42-.4-1.13-.21-.2-.4a9.33,9.33,0,0,1-3.91.61l-.31.4-.82-.51-1,.89-.61-.38a.53.53,0,0,1-.52,0h-2.26l-.93.38-.41-.38h-.62l-.2-.51-.31.89H335l-.72-1a22.27,22.27,0,0,1-.11-5.59l-.3-1.77v-1c0-1.19,0-1.57.07-1.14l.37-1.65a.89.89,0,0,1,.07-.64,7.76,7.76,0,0,0-.51-2,15,15,0,0,1,0-2.54v-3.3a28,28,0,0,1,0-3.43l-.73-.5.73-.77-.73-.63v-4.44l.21-.51a36.84,36.84,0,0,1,.52-4.82l-.52-2.92a45.58,45.58,0,0,0-.21-8.51v-7.11l.32-.38a17.21,17.21,0,0,1,.41-4.7q-1.25-3.68,0-5.07v-4.32l-.73-.51q.21-.37,0-12.57v-13.2a8.94,8.94,0,0,1,.73-2.92,15.84,15.84,0,0,1-.73-2.92c0-4.14.24-6.81.73-8v-2.67l-.52-.63a21.1,21.1,0,0,1-.52-5l.11-1.77a10.18,10.18,0,0,0,1.75-.76l2.17.38c.68-.09,1.48-.21,2.37-.38l1.65.38.72-.38a3.17,3.17,0,0,1,1.76.76l1.24-.76,1.13.76.83-.48a22.63,22.63,0,0,0,4-.28h1.76l1.54.38a13.65,13.65,0,0,1,3.1-.38,5.12,5.12,0,0,0,3,.76l1-.76.52.38.41-.38h2.79a4.82,4.82,0,0,1,2-.64l.82.64h.73l4.23-.64.2.64h1.14l.93.3a3.7,3.7,0,0,1,1.34.08l1.13-.38h11l1.86.38,2.48-.38h1.75l2-.64.93,1.53c.07.43.07,2.3,0,5.62s-.14,5.12-.21,5.42a4.35,4.35,0,0,0-.1.83,9.23,9.23,0,0,0,.31,2.17,9.23,9.23,0,0,1,.31,2.17,6.39,6.39,0,0,1-.31,1.91,19.42,19.42,0,0,1,.31,2.43v1.91c.07,1.36-.17,2.2-.72,2.54v1.65l.72,2.16v.51c0,.93,0,2.28.15,4.06.14,2.2.22,3.6.22,4.19a8.27,8.27,0,0,0,.15,3.43,3.73,3.73,0,0,0-1,1.65l.31.5c-.13,2.71.11,4.58.73,5.59v11a10.65,10.65,0,0,0-.83,3.81l-.62,1.53.37,1.39a7.67,7.67,0,0,0,.19,1.65l.37.51V261c.27.26.34.72.21,1.4l.31.25a1.2,1.2,0,0,0-.52.51,2,2,0,0,0,.31.51l-.62,2.66a4.84,4.84,0,0,1,.31,3.43l.31.51-.31.63v3.18l.41.25a23.87,23.87,0,0,0,0,3.17Q397.74,278.91,398.37,279.17Zm-3.93.51q0-1.14-6.6-8.25l.1-.38A91.42,91.42,0,0,0,380,256.71l.1-.26a34.14,34.14,0,0,1-1.34-4.7l-.31.26a6.24,6.24,0,0,0-.51-2.29c-.62-1.43-.93-2.2-.93-2.28l-.73-.51v-1.52l.21-.64c-.41-.51-.62-1.69-.62-3.55l-.2-.13a9.34,9.34,0,0,1,1.54-3.17l2.69-1.78.61.25q1.35-.63,7.23-5.71a4.87,4.87,0,0,0,.1-1.33c0-.72.52-1.42,1.55-2.1a27.08,27.08,0,0,0,1.65-9,9.38,9.38,0,0,0,.72-3.55l-.1-.38q-3.41-11.43-3.72-12.44-3.19-7.37-7.94-8.26l-.41-.5-.21.25a2.85,2.85,0,0,0-.93-.89l-.62.38v-.12a7.05,7.05,0,0,0-1-.51l-.41.76h-1.76l-.31-.85L373.19,191l-1.34.51-3.92-1-.83.51-.82-.38a2.11,2.11,0,0,0-1.14.89,4.14,4.14,0,0,0-2.37-.26l-.42-.5-.41.5-.72-.5-.41.5-.62-.5a6.73,6.73,0,0,1-2,.76L358,191l-.62.51-.31-.51a3.1,3.1,0,0,1-1.86-.25l-.41.5-.31-.5a10.21,10.21,0,0,1-2.27,0l-.31.5a6.42,6.42,0,0,0-3,.26l-1.13-.76-.42.5L346,191l-.41.51-1.14.25-1.44-.38-.93.76-.31,2.67.51,2.16v.5a15,15,0,0,0,.73,2.92l-.42,1.27-.62.13v2.92l.31,1.78a41,41,0,0,1,0,4.19l.31.38-.2.76a4.85,4.85,0,0,1-.11,2.16v2.28a.71.71,0,0,0,.73.64l-.73,1.39v1.52a2,2,0,0,0-.31,1l.31.25V225l.73,2a7.27,7.27,0,0,0-.62,2.92,10.79,10.79,0,0,1-.42,2.79h.31c.07,1,.07,2.71,0,5.08a23.58,23.58,0,0,0,.73,2.79l-.73,1.53q0,8.25-.1,6.72l-.21.51v1.15l.93.76h1.45l.31.5h1.44l.52-.5a2.15,2.15,0,0,0,1.55-.26,14.07,14.07,0,0,1,2.78,1.15h1.55a4.8,4.8,0,0,0,1.86-.64l1.34.38a3.17,3.17,0,0,0,1.65-2c0-.25,0-1.35-.1-3.3l-.31-.51a5.56,5.56,0,0,0,.1-1.78c-.14-2.11.24-3.68,1.13-4.69l.73-.26,2,1.15a3.92,3.92,0,0,0,.93,1.65l.3,1.9-.2,1,.62,1.14-.21.25a22.37,22.37,0,0,0,.93,3.18,7.55,7.55,0,0,1,.62,3.17l1.86,4.19-.21,1.14,2.79,6.1-.11.25a11.71,11.71,0,0,1,1.14,2.41q0,1.27,2.68,6.09l-.21.13c.21.34.24.59.11.76,1.3,2.2,2.65,4.45,4,6.73,1.93,3.05,3.44,4.82,4.54,5.33v.89q.31,2.41,4.44,4.44A128.71,128.71,0,0,0,394.44,279.68Zm-19.19-64c-.41,2-.69,3.13-.82,3.56a6,6,0,0,1-2,2.54l-1-.26-.2-.51-.31.51c-.9.43-2.17,1.1-3.82,2l-.41-.5a9.25,9.25,0,0,0-3.3,1.14l-.52-.51a4.88,4.88,0,0,1-1-.13l-.41.38a11.4,11.4,0,0,0-2.38,0l-1-1.27a21.61,21.61,0,0,1-.31-6.47l-.21-.25.11.12c.14,0,.2-.46.2-1.39a18.68,18.68,0,0,1,.52-6.48l1.24-.5,1.24.25.72-.25.41-.51,1-.26,1.14.51.62-.51c2.95,0,4.88.22,5.78.64l.72.89.82-.26a14.32,14.32,0,0,0,1.45,2l1,2.54-.21.64.52.51Z"/><path class="cls-4" d="M467.4,230.41l-.13.51-.18,2.67V242a4.77,4.77,0,0,1-.37,1.47,11.08,11.08,0,0,0-.56,2,10.46,10.46,0,0,0-.31,1.91,16,16,0,0,0,.36,2.1,14.33,14.33,0,0,1,.36,2.22v.51a86.91,86.91,0,0,1,.41,9.42,16.5,16.5,0,0,0,.11,2.92,17.79,17.79,0,0,1-.91,2.29q.45,0-.33.51a20.5,20.5,0,0,1,.72,2.29v1.53a7.85,7.85,0,0,1,.26,4.07l.26,1.52-.23.64a37.23,37.23,0,0,1-.12,6.36l-.69,1.65.78,2.17c-.43,4.41-.35,7.29.26,8.65v2l-.33,1a3.34,3.34,0,0,0-1.73.64l-.32-.51-.22.51-1.51-.13-.43-.38.1.51c-.55-.43-.9-.45-1-.08l-.83-.43-3.3.51-1-.51-.31.38-1,.13-.62-.51-.31.51a2.56,2.56,0,0,0-.93-.51l-.31.51-1.14-.51h-.61l-.42-.26-.72.26-.41-.26-1.45.77a2.61,2.61,0,0,1-1.85-.51l-.42.51-.41-.51-.62.51-.2-.51-.42.51-.41-.51-.93.51-.21-.51-1.13.34c-.55,0-1.27,0-2.17.08q-1.65.09-2.16.09a2.55,2.55,0,0,1-1.66-.51l-.51.51-.62-.51-.21.51-2.37-.51-.31.2c-1.1,0-2.75.1-4.95.31h-1.86a10.93,10.93,0,0,0-2.48,0h-.62q-2.26-.12-3.3-.12l-1.65-1-.93-.11-.1.76-2.06-.26a6.67,6.67,0,0,1-3.31.51l-.41.26h-6.5a6.29,6.29,0,0,1-.62-4.43l-.1-.26a2.79,2.79,0,0,0-.31-2.4V266.46a11.37,11.37,0,0,0,.72-2.79l-.31-1V259.5l-.41-14.73.31-.51a5.41,5.41,0,0,1,.1-1.9v-.25l.52-.76v-.64q-.37-.63-.52-8v-8.25a17.17,17.17,0,0,0,0-2.79v-.25l.93-2.16a1.19,1.19,0,0,1-.57-1.08,1.48,1.48,0,0,0-.36-1.08v-9.52a7.1,7.1,0,0,0,.47-3.05,17,17,0,0,1,.25-3.17l-.41-1.53.1-1.9-.1-.51a2.74,2.74,0,0,1,.21-1.39l-.52-1h.31a8.64,8.64,0,0,1,.62-4.57c.14.09.21,0,.21-.25l-.21-1.15h-.31c0-.59-.05-1.5-.15-2.72s-.16-2.14-.16-2.73c0-2.29.38-3.43,1.14-3.43H405l.62.38a42.7,42.7,0,0,0,4.74-.38l.21.38.93-.38,1,.25.41.51,1.34-.38.21.51a14.29,14.29,0,0,1,5.8-.89h6l.21.38,1.24-.38,1,.81a8.91,8.91,0,0,1,2.48.33l.31-.38a39.45,39.45,0,0,1,6.94-.25l.63-.51.2.38a19.36,19.36,0,0,1,3.89.19,31.29,31.29,0,0,0,3.57.32,4,4,0,0,0,1.5-.45,4.46,4.46,0,0,1,1.3-.44l1.35.76,1-.38a35.47,35.47,0,0,0,6.32.51h2.49l1.24-.89c.21.17,1.59.25,4.14.25l.94,1v.13a27.32,27.32,0,0,0,.31,3.31l-.21.51c0,.67,0,1.61-.1,2.79-.07,1.45-.11,2.42-.11,2.93l-.41,1.27v2.16l.3.13c0,.59,0,1.51.1,2.74s.12,2.14.12,2.73a41.8,41.8,0,0,1-.52,7.63,76.58,76.58,0,0,1,.52,8c0,1.19-.09,2.88-.26,5.09s-.26,3.86-.26,5A26.81,26.81,0,0,0,467.4,230.41Zm-10.12-27.34-.55-1.62a6.26,6.26,0,0,0-.27-3.63,22.74,22.74,0,0,0,.82-5L456,190.57h-.83a23.9,23.9,0,0,0-3.51.63l-.21-.27a5.67,5.67,0,0,0-2.17-.36h-.41l-1.35-.51-1.24.51-.72-.51-1,.17-.31.34h-1.86c0,.17-.38.25-1.14.25l-.51.38-.94-.63h-4.65l-.83-.51-.2.51-.52-.51-3.21,1a3.83,3.83,0,0,0-1.34-.51h-.42l-.72-.17-.41-.34a4.51,4.51,0,0,1-1.87,1l-.51-.51h-3l-.42-.76-2.17.76-.72-.76-.83.76a12,12,0,0,1-3.52,0l-1.13,2.28a9.39,9.39,0,0,0,1,2.92,11.09,11.09,0,0,0-.62,2.16q.21,2.16.21,1.65a1.1,1.1,0,0,1-.52.89v6a7,7,0,0,0,2.58.76l1.24-.76q4.33,0,4.33,2.53c-1.44,5.08-2.16,8.05-2.16,8.89a2,2,0,0,1-1,1.52q-.89,2.3-2.07,6.61-1.49,5.2-1.18,6.72c-.34.17-.34.38,0,.64q-.93,7.36-1.85,11.68a3.45,3.45,0,0,1,.41,1.65l-.1.25c-.21,1.52-.49,3.13-.83,4.82v1l.21.25a34.88,34.88,0,0,1,.1,6,19,19,0,0,1,1.34,7.62,18.34,18.34,0,0,0,.72,2.41v.38q0,2,3.93,9.27v1.27q2.26,4.19,9.28,11.42a20.66,20.66,0,0,0,2.68-2.28,7.16,7.16,0,0,0,2.07-2.92l1.24-.77a10.94,10.94,0,0,1,3.2-4.31,8.84,8.84,0,0,1,2-3.43l-4.24-4.95-.61-.25-2-2.29.1-1.14a46.48,46.48,0,0,0-3.1-6.35L430,261a9.82,9.82,0,0,0-.41-2.28,6.24,6.24,0,0,1-.31-2.29l-.72-1.9-.1-6.6.61-1.53-.1-.89a1.36,1.36,0,0,1,1-1.52l.42-.51h1.23a2.58,2.58,0,0,0,1.86-1c.14.25.31.34.52.25l1.85,1.52.11-.5.82.25,1.14-.51,2.16,1.27.42,1v.51a3.52,3.52,0,0,0-.11,2,2.87,2.87,0,0,1-.2,2l.91.89a5.72,5.72,0,0,0,2.53-1l1.11,1.27,1.93-.25.2.5c.88-.16,1.92-.42,3.14-.76l.51-.5,2.12.76q3.75-.51,3.75-2.29a16.4,16.4,0,0,0-.62-3.43v-7a16.85,16.85,0,0,1,.2-2,6.93,6.93,0,0,0,0-2.41v-7.24a79.11,79.11,0,0,0,.42-9V206.58A22,22,0,0,0,457.28,203.07ZM441.5,224.21l-.52,1v.51c0,1-.17,1.65-.52,1.91l.62,1.27-.93,1.26-1.54,1-1.55-.51c.07.17,0,.3-.21.38s-.34.05-.41-.12l-.52.25-.41.38-1-.38-.72.25-.42.38c-.13-.08-.55-.29-1.23-.63s-1-.68-1-1l.21-.38a3,3,0,0,1,.41-2.92l-.2-.25.2-.25q3.82-18.17,7.74-18.16l1.14,1.4-.31.13a2.47,2.47,0,0,1,.72,1.77,13.73,13.73,0,0,1,0,2.42c-.07,1.35-.1,2.11-.1,2.28,0,.76,0,2,.1,3.68s.1,3,.1,3.81Z"/><path d="M536.94,286.28l-.2.26q-.21,2-.21,11a3.9,3.9,0,0,0-1,.89h-.83l-.31.63a10.52,10.52,0,0,1-4-1l-1.55.79c-2.06.15-3.65.22-4.75.22l-.41-.63-.41.63-.41-.63-.31.63-.52-.36-3.3-.27-.72.63a10.58,10.58,0,0,0-2.27,0h-2.27l-1-.63-.31.63-1.75-.63-.1.63-.42-.63h-7.22v.63a9.36,9.36,0,0,0-3-.63l-1.14.63-.72-.63a3.37,3.37,0,0,1-2.58.63l-.41-.63h-1.45l-.61.63h-2.17l-.62.39-.41-.39-.93.39-2.07-.77-.61-.63-.73.38h-1l-.31-.38a2.33,2.33,0,0,0-1.55,1,6.42,6.42,0,0,1-4,0l-.41.39-.42-.39-.72.39-.51-.39h-.31l-.42.39-.41-.39-.93.39h-1l-.93-1a21.54,21.54,0,0,0-.51-4.44v-4.95l.28-.26.85-2.54-.57-.5a67.87,67.87,0,0,0-.11-8.64q-.45-6.47-.45-8.63c0,.42,0-.8.13-3.68a4.25,4.25,0,0,0,.18-1.14v-1.27a1.59,1.59,0,0,1,0-1.14,15.5,15.5,0,0,1-.31-1.78v-17l1.13-1.78a16.79,16.79,0,0,1-1.13-3.3h.23a18.13,18.13,0,0,1,.39-3.18l-.62-.26.62-.12-.62-.26V222.27c.13-.08.24-.47.31-1.14a2.94,2.94,0,0,1,.82-1.79,9.54,9.54,0,0,1-1.13-2.92l.31-11.2v-1.91c.09-.93.36-1.48.82-1.65a4.27,4.27,0,0,1-.85-2.29c-.1-.93-.19-1.78-.28-2.54l.31-.77-.31-1.27a12.93,12.93,0,0,1,1.13-5.34q-.7-.9-1-5.86l-.17-.38v-.89a9.82,9.82,0,0,0,.41-1.65q.19-1,.72-1c1,0,2.65.13,4.88.38a46.6,46.6,0,0,0,4.89.38c1.37,0,3.39-.12,6.07-.38s4.69-.38,6.07-.38a20.22,20.22,0,0,1,3.24.38,18.77,18.77,0,0,0,3.13.38c2.4-1.1,4.43-1.27,6.07-.5l.82-.26.21.33a18.55,18.55,0,0,1,4,.29,11,11,0,0,0,3.65.14,7,7,0,0,1,1.44-.76l6.89.76.62-.76,1.54.76.41-.5a5.5,5.5,0,0,0,2-.26,1.84,1.84,0,0,0,.82.76,6.84,6.84,0,0,1,2.16-.76l2,.76a2.42,2.42,0,0,0,.92-.76l1.24,1,.72,2.38-.42.63v7.17l-.31,1,.31.88h-.41a76.91,76.91,0,0,1,.72,9.64,11.75,11.75,0,0,0,.11,2.29l-.52.63-.1,2.54-.21.64.41,1.14q.42,5.58.42,11.81v16.5l-.31.51c0,.84,0,2.15-.11,3.93l-.41.64c0,.42,0,1-.1,1.84s-.11,1.37-.11,1.71a10.45,10.45,0,0,1,.31,5.71c0,2,.16,4.45.31,7.49v.51l.42,1.4-.21,2-.83,1.9.42.76a19,19,0,0,1,.62,5.84,17.25,17.25,0,0,1,.31,4.06c-.07,3.31-.11,4.74-.11,4.32l.21.13a2.85,2.85,0,0,0-.31,1.65c0,.84-.21,1.31-.62,1.39l-.31.39A12.58,12.58,0,0,1,536.94,286.28Zm-6.09-80.1a26,26,0,0,0-2.78-7c-1.52-2.62-3.1-4.36-4.75-5.2a11.74,11.74,0,0,0-2.78-2.92l-1.24.25c-.07-.68-1.24-1.52-3.51-2.54l-.62.25-2.17-.25-.62-.38-.2.38-.42-.38-.3.38-.62-.38c-1.31.09-2.24.13-2.79.13l-.83.76-1.85-.64-.52-.5-.41.5-.93-.25a2.94,2.94,0,0,1-2.17.38l-.62.51a3.91,3.91,0,0,1-2.37-1.14h-.82a15.91,15.91,0,0,0-3.1.63V189h-.62l-.41.51a7.42,7.42,0,0,0-4.34-1.14l-.41.38-.62-.13-1.34.77a30.38,30.38,0,0,0,0,9.43c-.11.34-.25.51-.41.51v6.5l.16.89a11,11,0,0,0,.56,4.46L485.66,213v3.06l.62.25v2.17c.11.51.28,1.32.51,2.42a15.08,15.08,0,0,0-1.13,2.93v6l.62.13v.13l.18.89a1.16,1.16,0,0,0,.07.64l.06,1.27a8.83,8.83,0,0,0-.93,2.68,34.94,34.94,0,0,0,1,7.77l-1,2.42.51,4.85,1.35,1.27h1.23l.62-1a17.86,17.86,0,0,1,3.1,1,10.1,10.1,0,0,0,4.23-.76l1.34.76h2l1-.38a26.08,26.08,0,0,1,.11-3.81l.31-.51a31.58,31.58,0,0,0-.52-4.18c.1-1.7.27-3.52.52-5.46a21.33,21.33,0,0,0-.42-2.67,8.3,8.3,0,0,1,.42-1.65,10.15,10.15,0,0,1-.52-2.67,3.69,3.69,0,0,0,.21-1.39,15,15,0,0,0-.52-3.56,32.23,32.23,0,0,0,.83-8.5q0-11.17.1-10.41l.21-.64v-.38l.82-1.39,1.45-.51.3-.38.31.51.62-.26.83.51,2-.51,3.2,1.53.51-.26c.55,0,1.62,1.36,3.2,4.06l.31,1.91a6.13,6.13,0,0,1-1.24,4.19,10.12,10.12,0,0,1-3.4,1.78l-.41.38h-1.76l-.41.5-1,.51-2.38-1c-.27,0-.48.34-.61,1l-.42,1.52c-.27,4.32-.14,7,.42,7.88a7.12,7.12,0,0,1-.83,2.41,7,7,0,0,0,1.14,1.27l.21.5h1.35l.63.26a2.58,2.58,0,0,0,1.76-.26l.84.51h1.56l1.14-1a3.69,3.69,0,0,0,2,.25l1-.63,2.18.12,3.64-1.9.41-.51a8.19,8.19,0,0,0,3.75-2.79q2.59-3,3.12-3.56a22.1,22.1,0,0,1,1.56-3.17,12.25,12.25,0,0,1,.93-3L530,216a16.92,16.92,0,0,0,.41-6.22v-.38Zm-19.5,71.34-.93-1.16v-.26a7.74,7.74,0,0,0-1.29-4.62,6,6,0,0,0-3.25-3.08l-.51-.77-.83-.26-.41.76a1.56,1.56,0,0,0-1.34-.76,7.19,7.19,0,0,0-4.44,1.39,33,33,0,0,0-3.3,3.69l.1.25c-.55.42-.93,1.52-1.13,3.3l-.31.51v3.68l.62.63-.11.77c.62,1.1,1.21,2.15,1.76,3.17q1.23,2,2.37,2.16a5.66,5.66,0,0,1,1.55,1.14l1.24.25,1.24-.25.1-.76a12.81,12.81,0,0,0-.52-3.11,13,13,0,0,1-.51-2.86c0-1,.37-1.61,1.13-1.77v-.26l1.34-1.14h2.58l.21-.25.41.25.1-.25.62.25.21-.25a13.31,13.31,0,0,1,3,.25Zm3.51,11.2q.1-9.2-1.16-9.93l-.31.51-.95-.25-1.26.51-2.41-.26a4.58,4.58,0,0,1-2.73.38,3.49,3.49,0,0,0-2.84.76l.41,1.15-.1,1.27-.31.12v8.38l.62,1.78a18,18,0,0,1,3.82.51l1-.77H514l.73-1.71Z"/><path class="cls-5" d="M606.07,230.81l-.51.76.41.13a41.29,41.29,0,0,1-.62,4.69l.52.13a28.43,28.43,0,0,0-.83,9.27l-.31.51a6.78,6.78,0,0,0,.62,2.15c0,1,0,2.33.11,3.94.06,2,.1,3.38.1,4.06,0,6.43,0,9.27-.1,8.51l-.21-.26-.31,1.65.41,1.91q-.11.25.21.63a11,11,0,0,0,.2,4.19,46.25,46.25,0,0,0-.1,5.08v3.55a10.59,10.59,0,0,1-.93,3.05c.42.68.83,1.31,1.24,1.9v11.17c-.76.34-2.58.51-5.47.51l-.62-.51-1.34.51H597.1v.51l-1.24-.51-.41.51-.83-.51-.41.51-.21-.51-.51.51-.62-.51-.31.51H592l-.31-.51h-.82a3.5,3.5,0,0,0-1.66-.51c-1.23.68-3.37,1-6.39,1l-.41-.51-1.14.51-.83-.51-.41.51-.41-.51-.21.51-.31-.51-.41.51-.41-.51-.31.51h-2.48l-.41-.51-1.45.13-.41.38a2.44,2.44,0,0,1-1.75-.51l-.11.51-.41-.51-2.89.51-.41-.51-.41.51h-.93l-1,.51-2.48-1a4.46,4.46,0,0,0-1.86,1l-.31-.51-.2.13a5,5,0,0,0-2.38.38,5.21,5.21,0,0,1-2.37-1,4.91,4.91,0,0,1-2.89.2l-.62.21-.41.41q-2.58.19-9.08.2-1,0-1.14-1.53V295.3q0-3.32-.31-12.19-.19-7.74-.1-12.19l-.31-.38v-5l.72-.51v-1.65a7.17,7.17,0,0,1-.45-3.55l-.27-.64V242.87l1-1.91c-.1-.67-.31-1.65-.62-2.92a60.22,60.22,0,0,0,.31-8.5q-.41-7.11-.31-8.63l.62-1.53-.62-2.92V194l.16-.26c0-.51,0-1.2.08-2.09s.07-1.55.07-2q0-1.14-.15-3.81c-.1-1.78-.16-3.17-.16-4.19.42-.25.48-.38.21-.38q.72-.63,7.2-.63a8.2,8.2,0,0,1,2.57.25l.41.51h2.68a2.75,2.75,0,0,0,1.54-.76l.41.5q.42-.24,9.16-.5l.82.25a1.75,1.75,0,0,0,.82.63c2.4.09,3.87-.21,4.42-.88l.62.5,2-.5.21.5,1.54-.5.21.5.41-.5h4.94a4.4,4.4,0,0,0,1.13.88h1.75l2.36-.88.21.5a14,14,0,0,1,6.68.26l2.88-.76.21.5,7.61-.5.82.64.31,1.53-.2.13a8.7,8.7,0,0,0,.2,1.78c0,.26,0,.73,0,1.41a7.75,7.75,0,0,1,0,1.66c0,.59-.07,1.57-.2,2.93s-.21,2.43-.21,3.19a41.28,41.28,0,0,0,.36,4.41,41.6,41.6,0,0,1,.36,4.6,9.26,9.26,0,0,0,.1,1.85c-.13.76-.37,1.91-.72,3.44.14,0,.17.09.11.26l-.21.25q1,2.56,1,11a23.57,23.57,0,0,1-.82,5.49l.31-.38a24.34,24.34,0,0,1,.2,4.07,3.94,3.94,0,0,1,.1,1.77ZM600,246.42a2.94,2.94,0,0,0,.1-1.77c-.14-1-.21-1.61-.21-1.78,0-.51-.07-1.65-.2-3.43a25.62,25.62,0,0,1,0-3.3l-.83-2.41a7.62,7.62,0,0,0,.72-3.18l.31-.12c-.27-6.94-.31-10.54-.1-10.79a27.05,27.05,0,0,1-.93-4.32,10.72,10.72,0,0,1,.41-2.35,10.16,10.16,0,0,0,.42-2.22,49.47,49.47,0,0,0-.42-6.22v-.25a26.49,26.49,0,0,0-.61-5.84l.31-.38a35.7,35.7,0,0,1,.3-3.56v-1.9l-.3-.89-1.24-1.14-.42.25-1.65-.51-.82.26-.42.51-1.13-.26-.21-.51-.41.51-.21-.51a3.38,3.38,0,0,1-2.58.51l-.31.51-.61-.51-1.55-.25-.41.51-1,.25-1.24-.25-.51.12c-1.1,1.1-1.38,2.16-.83,3.18l-.2.38a1.93,1.93,0,0,1,.51.89.26.26,0,0,0-.2.12l.1.51a1.56,1.56,0,0,0,.52,1.9v12.95a5.51,5.51,0,0,0-.83,1.4,11.63,11.63,0,0,1-1.44,1c-1.11-.08-2.79-.25-5.06-.5l-.83.5-2.68-.5h-2.78c-3.31.59-5.23-.54-5.78-3.39a20.66,20.66,0,0,0,.31-2.51c0-2.93-.25-4.81-.73-5.65a22.54,22.54,0,0,0,.57-6.77l.16-.25v-2.39a6.23,6.23,0,0,0-2.93-.37l-.41-.38-.32.38-.42-.38-.62.25a5.79,5.79,0,0,1-1.78,1.4,3.79,3.79,0,0,0-1.15-1.65l-.83.25-.83-.25-.72.25-.42-.5-.41.5a13.54,13.54,0,0,0-2.78-.25l-1.24.51a34.77,34.77,0,0,0-.52,4.44,7.79,7.79,0,0,1,0,2.79l.72,2.42h-.2a16.35,16.35,0,0,0-.52,5.45c.35,4.57.52,6.44.52,5.59a14.1,14.1,0,0,1-.52,4.19l.11.51-.42.5.52,1.53q-.42,10.67.31,13.33l.41.12a62.26,62.26,0,0,0-.41,6.35q0,5.46,1.13,7a4.45,4.45,0,0,0-1.13,3.43,123.86,123.86,0,0,0,1.08,14.73l1.09,1.39-1,2.67q.11.12,1.35,6t1.23,6.22l.21,1.91.41.63a30.92,30.92,0,0,0,2,5.59l.11,1.27L559,294l.83.5.2-.5c1-.68,2.48-1.74,4.34-3.18.2,0,.65-.42,1.34-1.27a10.93,10.93,0,0,1,1.55-1.65l.41.51a45.34,45.34,0,0,0,4.64-3.93,12.47,12.47,0,0,1-1.34-2.73,7.07,7.07,0,0,0-1.75-2.86l.2-.25c-1.85-5.34-2.65-8.81-2.37-10.41a19.75,19.75,0,0,1-1-4.95c0-.26.07-.34.21-.26l-.42-.76.11-1-.52-1.78.1-1.65a62.63,62.63,0,0,0-.51-7.49v-.26l-.52-1.9c0-1.1-.07-3.94-.21-8.5-.07-3.47-.07-6.27,0-8.38A10.14,10.14,0,0,1,564,229l.31-1.14-.2-.25a7.26,7.26,0,0,1,1.84-1.53l1.33.26a3.88,3.88,0,0,1,3.16-1l.61.51h6l.2-.51.51.51.21-.51,1.43.25.71-.25.41-.51a3.26,3.26,0,0,0,1.74.51l.41.51c.61,0,1,1.18,1.22,3.55l.21,4.83a14.9,14.9,0,0,0-.42,3c0,.43,0,1,.11,1.78s.1,1.31.1,1.65l1,2.41a3.69,3.69,0,0,1-.41,1.4,3.52,3.52,0,0,0-.41,1.4,4.27,4.27,0,0,0,.51,1.9l-.51-.51v1.14l.41,1-.41.25a1.09,1.09,0,0,0,1.15,1l.21.51,1.35-.51.21.51.63-.51h2.4l.53-.25,1.25.25,2.3-.76,1.47.76a9.24,9.24,0,0,0,2.4-.51l1.15.26.73-2.42.11-.25-.11-1.27Zm-2.48,34.4q-2.58-3.17-7.74-9.26c-.69.76-1.75,1.9-3.2,3.43h-.31a42.27,42.27,0,0,0-4.85,6.09q2.69,3,7.64,9.27h.72Zm.21-11.55q-.63-1-7.74-9.77-1.14.12-8.26,9.77,1.14,1.53,3.92,5c.55-.08,1.9-1.48,4-4.19a7.94,7.94,0,0,1,1.86,1.78c1.16,1.44,1.82,2.24,2,2.41A53.74,53.74,0,0,1,597.72,269.27Z"/><path d="M675.52,296.57l-1.14,1.65-.72.25h-2.78l-.52-.76-1,.12-.42.64h-5.46a2.86,2.86,0,0,0-1.86-.38l-.31-.38a7.06,7.06,0,0,1-1,.76l-.83-.76-.1.43a12.37,12.37,0,0,0-2.27.33h-7.84a5.18,5.18,0,0,0-1.55.38l-1-.38h-3l-1.54.38a11.26,11.26,0,0,0-2.48-.38l-.52.38c-.48-.34-1.72-.34-3.71,0,.07-.17,0-.3-.21-.38-.07.13-.14.25-.2.38a6.28,6.28,0,0,1-4.13-.38l-.72.18-.52.71-.31-.51h-1l-.41-.38h-6.4l-1.24.89-1.24-.51c.14.34.07.51-.2.51s-.35-.17-.21-.51l-1.14.51-.82-.51-.21.51h-1.34l-.41-.51a7.76,7.76,0,0,1-3,.51l-.73-1.52a24.66,24.66,0,0,1,.11-7.47,11.78,11.78,0,0,1-.21-3.3q0-2.65.21-7a27.33,27.33,0,0,1-.52-6.59l.1-.25-.31-2.66a3.33,3.33,0,0,0,.31-1l-.61-1.14a1.52,1.52,0,0,0,.61-.88l-.2-1a14.5,14.5,0,0,1,.62-3.67q0-2.65-.11-7.47c-.13-3.63-.2-6.17-.2-7.6,0,.51-.11-.55-.31-3.17a13,13,0,0,1,.62-3.54,20.8,20.8,0,0,1-.42-4.44,44.91,44.91,0,0,0,0-4.56l-.31-.51a3.69,3.69,0,0,0,.21-1.39,17.64,17.64,0,0,0-.31-2.72,19.39,19.39,0,0,1-.31-2.85c0-2,.31-3.42.93-4.18v-.38a46.08,46.08,0,0,0-.1-5.07c-.14-2.7-.24-4.43-.31-5.19l-.41-.51.3-.5c.07-1.27.11-2.58.11-3.93.07-2,.27-3.12.62-3.29l-.52-.51a30.38,30.38,0,0,0-.51-4.56v-2.28l.3-.25a24.66,24.66,0,0,1,.73-3.55,22.72,22.72,0,0,1-.62-3.93,1.13,1.13,0,0,1-.11-.63q0-.63-.3-.51a21.54,21.54,0,0,0-.21-2.41,19.7,19.7,0,0,1,.62-2.54l1.65.64,3.61-.26a9,9,0,0,1,2,.38,8.54,8.54,0,0,0,2.12.38,6.38,6.38,0,0,0,3.71-1.14l4.13.64,1-.64a18,18,0,0,0,5.16.6l.41.29,1.76-.25.93.5.82-.45a4.63,4.63,0,0,0,1.86-.23l1.65-.46.21.38,1.65-.38a29.59,29.59,0,0,0,5.88.22l1.24.67,2.16-.51.21.51a6.29,6.29,0,0,0,2.17-.89,7.54,7.54,0,0,0,5.47,0l.82.48a7.71,7.71,0,0,1,2.58.16l.41-.26h3.82l.41-.22.83-.16.62.38a4,4,0,0,0,2-.31,6.16,6.16,0,0,1,1.75-.45c.35,0,.73.47,1.14,1.4,0,.68,0,1.95.1,3.81l.31.63-.41.38a12.55,12.55,0,0,1,0,3.3c-.07,1.19-.14,2.33-.21,3.43a34.15,34.15,0,0,1,.47,6.35l.15.38-.82,8.88.41-.25v16c0,.51,0,1.36.14,2.54s.14,1.95.14,2.29l.13.25a31.16,31.16,0,0,0-.41,6.92,29.45,29.45,0,0,1-.41,6.79l.41.51L674,246l.1,1,.52.12-.41.64.72,13.71h.1v1.14a6.24,6.24,0,0,1-.82,3.43l.41,1.78v2.41l.44,1.52a11,11,0,0,0,.18,4.32V282a10.49,10.49,0,0,1-1,2l.82,1.39a68,68,0,0,0,.21,9.27l-.21.26Zm-41.59-20.66-.3-.8-.83.26-.31-.51a7.63,7.63,0,0,1-3.41,0l-.41.51-1-.51q-6.09,0-6.29-.26l-.21.51a24,24,0,0,0-6,0q.83,2.67,9,13.84H625l2.06-3.48q-1-1.44-2.78-4.44l.92-.84h5.47l1.24-.67A41.25,41.25,0,0,0,633.93,275.91Zm10.63,5.3-.41-.77H639.3L639,281l-.41-.51-1.86.51-.72-.51a12.44,12.44,0,0,0-1.34.13,12.47,12.47,0,0,1-1.45.13l-.41.51-.62-.51-.52.51h-2.37l-.62-.51-2.17.38-.2-.38-.72.89a30.34,30.34,0,0,1,4.74,6.34c1.38,2.29,2.72,4.57,4,6.86l.62-.38.2.38Zm21.36-30.6-.41.26v-2.42a16.7,16.7,0,0,0-.83-4.69,10.94,10.94,0,0,1,.83-2.54v-15l-.41-.13a14.28,14.28,0,0,0-.42-4.06l.11-1,.31-.5a22.78,22.78,0,0,1,.41-3.56V192.73a11.64,11.64,0,0,0-.72-2.92l-.42-.51-2.58-.13a3.07,3.07,0,0,1-1.75.76,2.94,2.94,0,0,1-1.55-.76l-1.55.51-.82-.51-.41.51-.93.51-1-.51h-.52l-.62-.51-1.86.64-.62.76c0,.34,0,.85-.1,1.52v1.65c0,2.63.1,4.11.31,4.44a17.2,17.2,0,0,0,.31,5.46v12.44a1.12,1.12,0,0,0,.41,1,12.52,12.52,0,0,0-.72,5l-.21.13V234l.73,1.53c-.14.76-.31,1.94-.52,3.55l-.21.25.21.26v13l1.86.76,1.65-1,1,.26.41.5,1-.25.2.51.62-.51c1.79.17,3-.09,3.72-.76l.61.51h.93l.83.5a6.82,6.82,0,0,0,1.8-.69A3.34,3.34,0,0,0,665.92,250.61Z"/><path class="cls-6" d="M744.29,233.72c-.1,1.52-.15,2.67-.15,3.43v4.2a8,8,0,0,1-.83,2.16l.41.13a10.07,10.07,0,0,1-.62,2.92c.06.6.27,1.78.62,3.57v.63l.31.13a13.58,13.58,0,0,0,.42,3.69v8.78l-1.14,2.92.41,1.4v2.16l.73,1.79v9.92c-.33.68-.78,1.78-1.35,3.31l.62,2.67v4.83c.1.85.34,2.37.73,4.58l-.63,2.55-1,.25-.41-.64-.94.64h-1.35l-2-1-.42.51-1.77.1-.52.41h-.52a26.87,26.87,0,0,1-5.4,0l-.42-.42-1.87-.22-.83.22-.41.42H713.08l-.11-.64q-1.54,1-8.15.58l-.51.57-.42-.51-.82.51a3.07,3.07,0,0,0-1.55-.51h-.62a10.6,10.6,0,0,1-1.75.51l-.62-.51-.93.51-.62-.51-.62.51-.93-.51h-.62v-.23l-1.23-.79h-.31l-.83,1-.52-.64a21.31,21.31,0,0,1-2.78.64h-.41a1.16,1.16,0,0,0-.73.51l-.62-.51v.51l-.42-.51-.64.51-.31-.51-.43.51-.42-.51-.64.51-.43-.51-.42.51-.11-.51a19.16,19.16,0,0,1-2.65.51l-1.06-.76a17.76,17.76,0,0,0,.31-4.7c-.2-2.79-.31-4.36-.31-4.7a25.79,25.79,0,0,1,.31-4.44l.21-.26-.3-.38a39.62,39.62,0,0,0-.22-4.95v-15l.37-1.65.15-.12c-.48-.51-.66-3.94-.52-10.29l-.31-.5.31-1.15-.41-.12.41-.64v-1.14q.14-2.28.14-7.62l.27-.38V241l.31-.76-.72-2.41q.1-8.62,0-11V221.8l.31-.13.1-1-.41-.25a1.74,1.74,0,0,0,.69-1.52h.34l-.38-.64c-.43-2.38-.65-3.35-.65-2.93V202.83l.4-1.15c.35-.17.53-.38.53-.63a2.7,2.7,0,0,0-.53-1.53q-.27-2.16-.4-6.62l.25-.26a4.14,4.14,0,0,1,.38-2.29l.51-.26v-1.65l-.46-.77a14,14,0,0,1-.68-4.45q0-3.57,2.07-3.57a15.84,15.84,0,0,1,2.58.51l1-.51,3.72.51.83.51,1.55-.51H693l1.76-.51a1.24,1.24,0,0,1,.82.51h2.69a6.61,6.61,0,0,1,3.1-.42c1.72,0,2.83,0,3.31-.09l.41.51a7.34,7.34,0,0,1,2.9.51l.62-.51a16.83,16.83,0,0,0,4.55-.13c2.55-.25,4.13-.38,4.75-.38a21.7,21.7,0,0,1,4.76.51,9.17,9.17,0,0,1,3.41-.51l1.34.51,1.66-.51.41.51h3.41l1-.51.62.51,2.17-.51.72,1,.4-.68c.2,0,1.16-.11,2.9-.34l.6.51.09-.51c1.81.09,2.54,1.48,2.2,4.2a28.58,28.58,0,0,1,.1,4.58v4.7c0,.68,0,1.72.16,3.12s.15,2.4.15,3l-.31.64.73.38v3.05a5.63,5.63,0,0,0-.49,2.23,11.78,11.78,0,0,1-.24,2.1,7.83,7.83,0,0,1,.16,1.65,35.56,35.56,0,0,1,.44,6.87c0,3.56.07,5.43.13,5.6a15,15,0,0,0-.73,2.8l.73,5.85C744.45,231.09,744.39,232.19,744.29,233.72ZM737,211.64,736,209l.62-1.39a10.25,10.25,0,0,1,.16-2.6,19.86,19.86,0,0,0,.26-2.35l-.31-.89v-1.4l-.52-1.65L737,196l-.31-.51a27.57,27.57,0,0,1,0-3.43v-.51l-1.53-1.27-.87.26-.65-.51a7.33,7.33,0,0,0-2.84,1l-.66-.94-.21.46-.41-.51-.21.25-.51-.76-.62.51-.62-.51-2.88,1-.83-.51a9.3,9.3,0,0,0-2.58.76l-.41.51H720l-.21-.38H718l-.42.38-1.64-.25-.52.38a8.28,8.28,0,0,1-2.78.76l-.41.51a6.48,6.48,0,0,0-3.82,1.9l-.93-.51-1.65,1.14h-.3a20.61,20.61,0,0,0-4.23,3.18,12.68,12.68,0,0,0-3.4,4.19A17.17,17.17,0,0,1,696,203.9c-1.1,1.94-2.19,3.89-3.29,5.84-1.58,3-2.31,4.91-2.17,5.84l-.41,1-.52-.13.21,1.15a9.89,9.89,0,0,0-1.65,5.33,21.63,21.63,0,0,1-.72,5.08,11.18,11.18,0,0,1-.42,2.53l.83,2.29-.83,3.55q.1,2.16.42,6.48l-.11.38a9.75,9.75,0,0,1,.21,2.54c0,.51.62,1.39,1.86,2.66a4.5,4.5,0,0,0-.31,1.91q0,5.32,6.69,12.57l.51,2.28q4.42,6.23,7.62,7.74l.41-.25q4.23,6,15.65,9c.14.34.79.81,2,1.4a5.29,5.29,0,0,0,1.85-.76q1.65.76,3.3,1.65l4.42.76,1.65-1.27.2-1-.92-2.79,1.21-1.9.13-1.4-.27-2.28-.66-1.15.93-2V267l-.83-1.27a2.26,2.26,0,0,1-1.75-.26l-1.34.51-.31-.51-.73-.25-.41-.51-.82.26-1.45-1-.93.13-4.64-2.16h-.93l-.62-.76-.2.25-.62-.76a15.13,15.13,0,0,1-2.79-1.9l-.41.5-.11-.25-.41.38a4.84,4.84,0,0,1-1.24-2.41,72.66,72.66,0,0,1-5.67-6.22,6.66,6.66,0,0,0-1.76-2,32,32,0,0,0-1.85-4.57v-.64a21.74,21.74,0,0,0-.73-2.28l.21-.26a6.15,6.15,0,0,1-.52-3.3c.07-2.11.11-3.3.11-3.55a7.75,7.75,0,0,1-.83-2.41c.28-1.1.79-2.84,1.55-5.21a4.28,4.28,0,0,0-.1-1.52,11.84,11.84,0,0,1,1.13-3.43.66.66,0,0,1,.11-.63l-.31-1a1.25,1.25,0,0,0,.31-.51A117.48,117.48,0,0,1,714.11,208l1.34.25.52-.5,3.4-1.4a9.31,9.31,0,0,1,3.3,1.27,1,1,0,0,1-.1.76,6,6,0,0,1,.62,3.17l.62,1.15-.62,1.39-.1,2,.1,1.91.41,1h.32l.41.51h1.35l1-.89,1.56.89h3.12l.63-.89h.52l.83.64a8.2,8.2,0,0,0,3.33-1,13.4,13.4,0,0,0-.31-4.06A11,11,0,0,0,737,211.64Z"/><path d="M837.83,296.44l-.21,1.78a19.39,19.39,0,0,1-2.26,1.27q.1-.39-.21-.39c-.07.09-.14.17-.2.26a9.93,9.93,0,0,0-2.68.13l-1.23-1-1.65,1-.82-.39-.62.39-.61-.39-.21.39-2.26-.1-.41-.29-.21.39a3.61,3.61,0,0,0-2-.26,1.69,1.69,0,0,0-.83-.76,6.43,6.43,0,0,1-2.15.51l-.42.51-.41-.39a11.84,11.84,0,0,1-1.54.39h-2.67a29.12,29.12,0,0,1-6.28.15l-.51.23.1-.38-2.37.12-.83.26-.51-.29a2.84,2.84,0,0,1-1.65-.09l-1.14.38-1.13-.38-.21.5a5.84,5.84,0,0,0-2.17.26l-.41-.76-.41.76a2.43,2.43,0,0,0-1.14-.76l-.41.38-.62-.38-.41.25a20.38,20.38,0,0,0-3.72.51l-.41-.76-1.13.38-.42-.38H788l-.52-.39H787c-1,.23-2.41.61-4.34,1.15l-.41-.76-.41.38a4.81,4.81,0,0,1-2.69,0l-.41.38-.41-.38a16,16,0,0,1-2.17.38l-.41-.38-.93.38-1-1.65a18.8,18.8,0,0,1,0-4l-.23-1.26c-.12,0-.15-.13-.08-.38a43.52,43.52,0,0,1,.41-6.58v-2.4l-.41-.12v-9.74l-.52-.63v-6.19l.42-2.27c-.14-.17-.11-.43.1-.76q-.11-2.28,0-5.81v-6l-.52-.37V243h.52l.41-2.29a6.85,6.85,0,0,1-.25-1.78c0-.33-.05-.55-.16-.63V227.64l-.52-.77c.34-.5.44-1.67.32-3.49s.14-3,.82-3.49a18,18,0,0,1-.62-5.71l.41-.76-.31-1.27a22,22,0,0,0-.1-3.56v-.5a11.86,11.86,0,0,0-.52-3.68h.52q.51-2.55,0-12.06a22.22,22.22,0,0,1,.82-2.67l-.48-.38c-.08-.51-.25-1.57-.49-3.17a16.34,16.34,0,0,1-.37-2.92,5.08,5.08,0,0,1,.83-2.54,45.66,45.66,0,0,1,6.52-.51l.21.51,1.35-.51.2.34c1.8.11,3.18.17,4.14.17l.42-.34c.69,0,1.62-.06,2.79-.17l.21.51a9,9,0,0,1,3.62-.51H797l.21.51,1.34-.51a4.2,4.2,0,0,0,2.8.89l1.55-.89a4.67,4.67,0,0,0,3.21.51c2.14-.34,3.24-.51,3.31-.51l.21.51.73-.51a12.7,12.7,0,0,1,4.34.51l1.56-.09,1-.42h1a12.52,12.52,0,0,0,3.1.22,11.36,11.36,0,0,1,3.21.29,18.82,18.82,0,0,1,5.18-.51h6.42l.93,1.65a37.65,37.65,0,0,1,.1,5v5a73,73,0,0,0,.52,10.17l-.52.51v.12c-.21,2.55-.31,4.12-.31,4.71q0,2,.16,6t.15,5.85v5.09a33.25,33.25,0,0,1,.3,3.94,4,4,0,0,1,.22,1.65q0,2-.21,6t-.21,6l-.51,1.52a3,3,0,0,1,0,1.66,2.71,2.71,0,0,0-.26,1l1.24,15.38v2.16l-.46-.25-.12,1.52-.46,1.14.52,2.92v.26l.26.38q0,3.81.06,11.17l.2.76a14.7,14.7,0,0,0-.57,2.67l-.67,1a2.81,2.81,0,0,1,1.24,2.29,4.51,4.51,0,0,0,0,2l-.52,1.27a23.82,23.82,0,0,0,.26,2.79A23.92,23.92,0,0,1,837.83,296.44Zm-5-76.17a2.77,2.77,0,0,1-.31-1.77.9.9,0,0,1-.1-.77l-.41-.88v-.64c-.76-1-.93-1.86-.52-2.54l-.31-.89v.13c.28-.68.14-2.07-.41-4.19l.1-1.14a31.4,31.4,0,0,0-2.46-5.46l-1.34-.76q-2.67-5-3.28-5.84a10.63,10.63,0,0,0-5.14-3.43,30.18,30.18,0,0,0-3.6-2.41l-.72.25c-2.67-.84-4.55-1.1-5.65-.76l-.41-.51-.51.51c-1.44.17-2.33.09-2.67-.25l-1.13.51a11,11,0,0,0-3.39-.64l-.21-.25-.2.5a16,16,0,0,1-3.08-.12l-.41.51-.31-.51a18.08,18.08,0,0,0-2.36.51l-1-.77-.82.51-.31-.51-.41.51-.41-.38-1,.25-.1-.38-.42.51a2.87,2.87,0,0,0-.82-.13,6,6,0,0,0-3.59,1.78c.07,1.27,0,3.26-.1,6a5.6,5.6,0,0,1-.11,4.57v2.92a9.49,9.49,0,0,0,0,2l.31,1.14-.31,1.91a6,6,0,0,1,.62,2.66q-.93,1.78-.82,6.09a36.94,36.94,0,0,1-.21,6.48l.41.38v1.14l.93,1.65a7.42,7.42,0,0,0-.93,2.16v1.65l-.41,1.27.31.51c.07.76.1,1.9.1,3.43a6.79,6.79,0,0,0,.83,1.9c-.21.85-.48,2.07-.83,3.68.21,0,.31.13.31.38l-.31.26c.07,1.6.14,4,.21,7.23l.41,1,1.55,1a29.31,29.31,0,0,0,4.56-.25,1.33,1.33,0,0,1,.72-.64q1.14.65,5.89.64-.51,0,2.49-1.14l1.65.65.21.49a10.45,10.45,0,0,0,2.89-1.14l.73.76h.93l2-1.27a9.64,9.64,0,0,0,3.93.51q1.25,0,3.42-2.67l1.76.25.41-.5h.52a45,45,0,0,0,5.37-5.65,37.22,37.22,0,0,0,4.66-6.29l.11-1.9c.84-1,1.49-1.86,2-2.54l-.31-.13c0-.08.11-.16.31-.25a21.6,21.6,0,0,1,1-7.74l-.2-.26a3.69,3.69,0,0,0,.51-2.41ZM812,277.78a7.34,7.34,0,0,0-1.75-4.7l-3.1-3.55-.21.25-.51-.76-.21.25-.41-.51a8.5,8.5,0,0,0-3.72.26l-.41-.51c-1.24,1-2.47,2.07-3.71,3.17a8,8,0,0,0-2.48,4.19,10.16,10.16,0,0,1-.21,3.43l-.2.26c.62,3.21,1.56,5.5,2.82,6.85,1,1.18,3,2.24,5.74,3.17v-4.95l.52-.5-.52-1.27v-2.54l1.26-.89,1.25.25.42-.25.31-.51a29.92,29.92,0,0,0,3,.51l.73-.51.42.25ZM815.75,225a4.19,4.19,0,0,0-.93,2.16l-.42,2.54a3.49,3.49,0,0,1-1.91,2.79,7.54,7.54,0,0,1-3.25,1.4l-.51.5-.21-.25-.51.76a8.85,8.85,0,0,0-3,1l-.41-.51-2.37-.25-.52.5-.41-.5-.41.5a24.25,24.25,0,0,1-1-2.28c.21-6.52.24-9.9.11-10.16.68-1.6.79-4.82.31-9.65a21.65,21.65,0,0,0,.2-2.79,8.82,8.82,0,0,0-.1-2.79v-2.79a3.89,3.89,0,0,1,1.34-1.27c.83,0,2.13,0,3.92-.13l.93.38.83-.25q1.65,1.14,5,3c2.06,3,2.92,5.29,2.58,7a5.41,5.41,0,0,1,.36,2.09,3.44,3.44,0,0,0,.47,2Zm-.1,55.23a1,1,0,0,1-.61-.26,39.81,39.81,0,0,1-5.77.38l-.41.5h-.4l-.82,1.4-.81.38a1.67,1.67,0,0,0-.81-.76l-.6-1.27-.61.51q.11,2.16,0,6l-.31.51h.1c.14,0,.16.37,0,1.12a33.17,33.17,0,0,0,.16,5.19l1.23,1.06a14.58,14.58,0,0,0,4.13-.77l1.55.77,2.58-.77.93.77.93-1.71q.11-2.23,0-7v-2A18.46,18.46,0,0,0,815.65,280.2Z"/><path class="cls-2" d="M907,297.33c-.62,1-1.17,1.52-1.65,1.52l-.61.51-.21-.51-.31.51a7.28,7.28,0,0,0-1.95-.2c.13-.21.07-.31-.21-.31s-.34.17-.2.51l-.62-.89-.72.13-.41.5-.31.26a4.2,4.2,0,0,1-2.26-.51l-.41.51a17.48,17.48,0,0,0-3.19,0l-.41-.51-1.55.51a2.36,2.36,0,0,0-.72-.89l-1.54.25-.82.64-.62-.51-1.75.51-.2-.51-.21.51h-9.36l-.41-.51a4.44,4.44,0,0,1-1.75.51q.21-.51-.21-.51c-.27,0-.34.17-.2.51H872l-.31.25-3.19.26a.39.39,0,0,0-.21-.51l-.2.34-2.16.17-1.54-.51-1,.51a5.78,5.78,0,0,1-2.47-.51l-1,.51-.62-.51-.51.51a6.73,6.73,0,0,0-1-.91l-1.54-.11-1.34.51-.41-.51-.21.41-1.54.2-.41.41-.21-.51a9.32,9.32,0,0,1-2.67.25l-.41.26-.41-.51-.21.51-.92-.51-.52.51-.31-.51-.2.51-.42-.51a6.9,6.9,0,0,1-2.57,1,4.22,4.22,0,0,1-.82-2.09,18.16,18.16,0,0,0-.41-1.84V242.87h.33l.49-1.4-.82-2.66v-16A16.81,16.81,0,0,1,843,220a12.77,12.77,0,0,0-.82-2.92V192.85a5.14,5.14,0,0,0,.82-2.66,27.11,27.11,0,0,1-.82-6.6c0-2.29.62-3.43,1.86-3.43h2.37a11.6,11.6,0,0,0,2.37,0l.83.51h.93a3.33,3.33,0,0,0,2,.5,3,3,0,0,0,1.55-.5l.61.5.42-.5h2.27l.62-.51h1.54l1,.51h5.26l1.44.5h2.69l.41-.5a7.75,7.75,0,0,1,2.89-.26l.31-.25,2.68.51a8.5,8.5,0,0,0,2-.51q2,.3,5.88,1l1-.5.62.5c.21-.25.86-.42,2-.5l.73.5a3,3,0,0,1,2-1l.2.67,3.72.34.2-.25a19.75,19.75,0,0,1,3.2-.25l.72.16.62.34.73-.25.62-.76a7.23,7.23,0,0,1,2.16.51l2.79-.51,1.13,1.65a38.6,38.6,0,0,0,.21,7.87,15.27,15.27,0,0,0-.41,3.93c0,.6.08,1.91.26,3.94a34.32,34.32,0,0,1,.15,4.7,11.6,11.6,0,0,1-.52,3.93c.14,1.44,0,2.25-.51,2.41l.28.13A93.54,93.54,0,0,1,907,221.16a9.81,9.81,0,0,1-.72,3.43,2.82,2.82,0,0,1,.31,2.41c.06,0,.06.09,0,.25s-.11.17-.31.26l.54.38a16.64,16.64,0,0,1,.18,3.68v5.59l-.72,1c.48-.08.72.38.72,1.4a20.48,20.48,0,0,1-1.14,7c.14,1,.42,2.37.83,4.06l-.41,2.16a8.89,8.89,0,0,1,.72,4.32c-.21,3.55-.31,5.12-.31,4.69l.31,1a15.55,15.55,0,0,1-.72,3.55,15.11,15.11,0,0,1,.4,4.19l.32.89q.1,4.44-.48,12.95a1.28,1.28,0,0,0-.24.89,3,3,0,0,0,.27,1.14l.14,1.4-.41.63v5.71a1.78,1.78,0,0,1,.45,1.4,7.87,7.87,0,0,0,.09,1.78Zm-41.48-21.08-.41-.76-1.76.26-.2-.51-.42.51-1.44-.51-.31.51-.41-.51-.62.51-.31-.51c-1.52,0-3.82,0-6.92.13l-.82-.38-.62.5-1.34-.5-.41.5L849,275l-.62.5-.62-.5-.82.5v.89q2.26,3.56,4.54,7.11,3.81,5.72,4.54,5.71l3.09-3.42c-.69-.94-1.75-2.25-3.2-3.94l-.2-.89,1.13-.89,5.06.51c1.3,0,2.16-1,2.58-2.92l.51.13v-.51A2.56,2.56,0,0,1,865.48,276.25Zm36.42-11.8a2.54,2.54,0,0,0-1.4-1.91c-.8-.42-1.54-.8-2.23-1.14l-.62.26-.42-.51-.21.25-.31-.38a21.5,21.5,0,0,1-3-.25,5.16,5.16,0,0,0-2-1.27l-.41-.51-.21.25-.31-.5-.63.25-.41-.51-.21.26-.42-.38a2.22,2.22,0,0,1-1.24.12,11.85,11.85,0,0,0-2.7-1.65l-.31-.51a6,6,0,0,0-1.46-.25l-.41-.38-.73-.25-.62-.77c-.83-.34-2-.88-3.42-1.65l-.52.26q-1.05-1.65-10.18-7.87l.21-.26c-.28-.84-.69-2.07-1.24-3.68v-.89c.21-.08.31-.42.31-1a3.83,3.83,0,0,1,.1-1.14,19.26,19.26,0,0,1,.31-5.08,6.22,6.22,0,0,1,2.17-1.65h12.28l1.34-1.53c-.21-.76-.55-1.9-1-3.42a20.12,20.12,0,0,1,1-2.42v-1.52l-.52-1.9v-.64c0-.93-1.06-1.39-3.17-1.39l-.21.5-.41-.5H874l-.3.5-.41-.34-.52-.16h-.3l-.62.5-.31-.5-.61.5-2.16-.5-.2-.51-.21.51-.3-.51c-.48-.17-.86-.76-1.13-1.78a3.49,3.49,0,0,0-.82-1.78l.93-2v-1.9c.48-1.44,1-2.24,1.44-2.41a12.16,12.16,0,0,1,2.68-.13,15.33,15.33,0,0,0,2.17-.25,15.87,15.87,0,0,1,2.37-.26l.52-.25.83.38a18.44,18.44,0,0,1,6.55-.57,25.25,25.25,0,0,0,6.45-.32l.93.51.61-.26,1.14.39a27.75,27.75,0,0,0,3.61-.39l.41-.5H897a3.51,3.51,0,0,0,.31-2.16c-.28-1.19-.41-1.82-.41-1.91a13,13,0,0,1,.72-3.68,5.47,5.47,0,0,0-.62-2,10.18,10.18,0,0,0,.62-2.92l.21-.25v-1a26.06,26.06,0,0,1-1.35-2.28h-3.09l-1.24.19-.52.57-1-.76-4.54.51-.1-.51c-1.79.51-2.86,1-3.2,1.52a7.07,7.07,0,0,1-2-1.52h-2.48l-1,.51-.42-.51-1.13.51a27.9,27.9,0,0,0-5-.51l-.41.76-.62-.76-.1.76h-.83l-1.24-.76c-.13.1-1.24.53-3.3,1.27l-1.34-1.27-.41.55-1.07-.37-.4.33-1.33-.51-.4.63c-.75-.1-1.12.11-1.12.64l-.61-.64-2.85-.63-2,.89q-1.23.38-1.22,13.12a11.07,11.07,0,0,0,.92,2.93,26.19,26.19,0,0,0-.74,10.31l-.49.26.31.76v5.1l.92,2.16q-.93,4.59-.58,6.12l-.34.63a16.72,16.72,0,0,0,.92,4v2.42a37.28,37.28,0,0,1-.92,3.82l1.34,2.42-.56.89a24.26,24.26,0,0,0-.78,6l.1,1.78q2.9,3.94,18.72,13.63l1-.25a20.75,20.75,0,0,0,5.64,3.8,23,23,0,0,0,6.46,2.42c.41.59.76.93,1,1l.61-.25a18.35,18.35,0,0,0,3.94,1.9l.41.51.21-.25.31.5a10.51,10.51,0,0,0,4.13.77l.42.5.2-.25.42.38h.51l.31.51h.94l.93-1.53-.11-.5a12.07,12.07,0,0,1,1.26-3.81l.39-1v-.38Q899.32,271,901.9,264.45Zm-26,17.39-1-.89-.62.51-.41-.51-.31.51-.42-.51-.61.51-5-.25-.31-.26a8.58,8.58,0,0,1-3.81,1,6.82,6.82,0,0,0-2.27-.51h-2.38l-1.13.63q1.86,2.79,4.54,7.75,1.34,1.65,3.82,5.46l.61-.51c.35-.09,1.83-2,4.44-5.84Q875.49,282.35,875.9,281.84Z"/><path d="M976.2,294.79a23,23,0,0,1-.31,3.81l-.42.25-2.16.25-.42-.76a10.26,10.26,0,0,0-1.23.76l-.42-.76H969l-.41.76h-1.44l-.31-.76-.42.61a7.17,7.17,0,0,0-3.2.15h-2a2.53,2.53,0,0,0-2.06-.76l-.41.76-.62-.76-.21.76-.82-.76a.46.46,0,0,1,0,.76,3.29,3.29,0,0,1-.31-.76l-.42.76-.41-.76-.41.76h-3.92l-.41.39-.42-.39h-3.3l-.93-.76a7.3,7.3,0,0,1-3.2.26l-.41.5h-4l-.11.39-.51-.39-.62.23a5.57,5.57,0,0,0-2.58.16,2.16,2.16,0,0,0-.72-.39c-.83,0-2.14,0-3.92.16l-.42.23-1-.39-.72.39-.83-.33-.41-.49a9,9,0,0,0-3.2-.33l-.31.76h-3.4c.13,0-1,.3-3.3.89l-.42-.5a6.74,6.74,0,0,1-2.16.5l-.73-.5-.2.5-1-.76q0-.89-.51-7.61a27.38,27.38,0,0,0,.1-3.56,2.49,2.49,0,0,0,.52-1.65l-.31.38c-.21-6.52-.17-10,.1-10.54a2.81,2.81,0,0,1-.62-.88l.42-1-.52-.76v-5.21a12.79,12.79,0,0,0,.93-4.69c-.28-.26-.48-2.12-.62-5.59a28.55,28.55,0,0,0-.1-5.33h.2c-.07-2.71-.2-5.63-.41-8.76l1-2.28a1.54,1.54,0,0,0-.41-.77,18.54,18.54,0,0,1-.52-3.3q0-15.22.62-17-.21-1.4-.72-3.93V204.66l.72-1.4c-.34-2.11-.41-3.43-.2-3.93a1.35,1.35,0,0,1-.42-.51,1.2,1.2,0,0,1,.31-.25l-.41-6a8,8,0,0,0,.72-2.29,19.87,19.87,0,0,0-.46-3.36,20.23,20.23,0,0,1-.47-3.62,13.65,13.65,0,0,1,.21-2.16c1,0,2.39-.06,4.29-.19s3.32-.19,4.29-.19l.93.26.62.5h2.48l.41-.5.83-.26h4.75l.52.51,1-.51h2.79a4.33,4.33,0,0,1,1.76.76l1.14-.5,2,.5q.51,0,2.07-.12a6.09,6.09,0,0,1,2.06-.13l.21-.51h3.2l.11-.38a40.86,40.86,0,0,0,8.06.89l.41-.35,5.58-.54.21.64,1.55-.26.73.51.2-.51q4.44,0,5.58.51a2.5,2.5,0,0,0,.93-.89l.62.54,1.14.35.41-.51.62.26,1.35-.64a4.82,4.82,0,0,0,1.24,1,19.79,19.79,0,0,1,.2,2.94c0,.86-.08,2.14-.25,3.84s-.26,3-.26,3.83a12.34,12.34,0,0,0,.31,2.94,16.44,16.44,0,0,0,.2,4.22,56.64,56.64,0,0,1-.14,5.88l-.23.51c-.09,2.72-.14,3.7-.14,2.94,0,.51,0,1.23.08,2.17s.09,1.53.09,1.79l.34.25v2.94c.05,1.45.08,2.43.08,2.94h.23a12.21,12.21,0,0,0-.27,4.45,3.76,3.76,0,0,0-.55,1.77,24.46,24.46,0,0,0,.26,2.92,26.53,26.53,0,0,1,.25,2.92v10.79a7,7,0,0,0-.56,2.54,18.82,18.82,0,0,1-.38,2.92l-.09.51.52.51c0,1.1.05,2.71.15,4.82s.16,3.64.16,4.57c0,.34,0,1,.15,2.09a12.55,12.55,0,0,1,0,2.48l.31.51a22.19,22.19,0,0,1-1,3.93l-.1.51a11.43,11.43,0,0,1,.82,2.79l-.51.51a8.36,8.36,0,0,0,.82,1.91c-.2.25-.31,1.43-.31,3.55,0,4.15.11,6.43.31,6.85l-.82,2.42c.21.67.38,1.27.51,1.77a14.62,14.62,0,0,0,0,3.81Q976.2,294.65,976.2,294.79Zm-6.71-39.35a10.54,10.54,0,0,0-1-4.57V250a12.12,12.12,0,0,0-1.55-5.33q-2.17-4.46-2.37-5-2.58-2.8-7.23-8.38l-.1.25-.41-.38-.83-.25q-2.69-2-5.47-4.45a10.2,10.2,0,0,1-3.66-3.81,10.41,10.41,0,0,1-1.6-5.45,10.73,10.73,0,0,1,2.63-6.35c1.76-2.29,3.42-3.68,5-4.19l.41-.51h.51l.62-.38.52.13a37.72,37.72,0,0,0,8.46-3.05l.62.51,2.37.13.93-.38.62.25a3.34,3.34,0,0,1,1-1,6.66,6.66,0,0,0-1.34-2.79l.11-.25q-.32-.65-3.62-5.59l.42-2.16a10.8,10.8,0,0,0-2.27-3.93l-.42.25-.82-.76-.11.51c-.06-.17-.13-.34-.2-.51l-.31.51a5.73,5.73,0,0,0-4.85,1.39l-1.14-.25-.51.51q-11.35,4.06-15.38,11.17-1.44.51-3.71,3.87a13.22,13.22,0,0,0-2.48,5.27h.21a7.55,7.55,0,0,0-1,3.68,15.31,15.31,0,0,0-1.14,5.84c0,.25,0,.68.11,1.27s.1,1.06.1,1.4l.41,1a3.77,3.77,0,0,0-.31,1.65,10.67,10.67,0,0,0,1.09,4.51,6.85,6.85,0,0,0,2.63,3.24l.2,1.65a89.42,89.42,0,0,0,9.19,8,31.75,31.75,0,0,1,8.25,9q.62,1.9,2.06,5.58l-.41,1A11.54,11.54,0,0,1,951,266a37,37,0,0,1-6.09,6l-.82-.13-.31.38-.52-.25a6.49,6.49,0,0,0-2.06,1h-.62l-.42.51c-1-.08-1.92.47-2.89,1.65l-1.34-.25a18.88,18.88,0,0,0-3.71.51l-.21.25-.62-.51-2,.64-.2.38a4.21,4.21,0,0,0-2.17-.38c-1.24.17-1.89.25-2,.25l-2-.38-1.24,1.27a12.75,12.75,0,0,1,1.55,5.46l.41.12a6.3,6.3,0,0,0,.72,3.31,9.76,9.76,0,0,1,.93,3.8,3.08,3.08,0,0,0,1.86,3.18,14.25,14.25,0,0,0,3.4.25H931a12.12,12.12,0,0,1,3-.76l.42-.51a6.87,6.87,0,0,1,3.71-.38l.41-.51,1.65-.5.42.25.2-.51.62.26.62-.51a7.27,7.27,0,0,0,3-1c1.59-.76,2.62-1.23,3.1-1.39.27-.34.45-.43.52-.26l.51-.51,1.34-.38.62-.76c.48-.25,1.21-.59,2.17-1a28.94,28.94,0,0,1,3.3-2.8,28.32,28.32,0,0,0,3.87-4.76,26.32,26.32,0,0,1,3.77-4.63,7.77,7.77,0,0,1,.72-1.9q1.86-1.53,2.79-5.34l-.11-1,.21-.89.62-.76A22,22,0,0,0,969.49,255.44Z"/><path class="cls-3" d="M1045.74,296.57l-1.13,1.65-.73.25h-2.78l-.52-.76-1,.12-.41.64h-5.47a2.85,2.85,0,0,0-1.86-.38l-.31-.38a6.56,6.56,0,0,1-1,.76l-.82-.76-.11.43a12.51,12.51,0,0,0-2.27.33h-7.84a5.26,5.26,0,0,0-1.55.38l-1-.38h-3l-1.55.38a11.18,11.18,0,0,0-2.48-.38l-.51.38q-.72-.51-3.72,0c.07-.17,0-.3-.2-.38l-.21.38a6.29,6.29,0,0,1-4.13-.38l-.72.18-.51.71-.31-.51h-1l-.41-.38h-6.4l-1.23.89-1.24-.51q.19.51-.21.51c-.28,0-.34-.17-.21-.51l-1.13.51-.83-.51-.2.51h-1.34l-.42-.51a7.71,7.71,0,0,1-3,.51l-.72-1.52a24.66,24.66,0,0,1,.1-7.47,12,12,0,0,1-.2-3.3c0-1.77.06-4.09.2-7a28,28,0,0,1-.51-6.59l.1-.25-.31-2.66a3.33,3.33,0,0,0,.31-1l-.62-1.14a1.58,1.58,0,0,0,.62-.88l-.21-1a15,15,0,0,1,.62-3.67q0-2.65-.1-7.47c-.14-3.63-.21-6.17-.21-7.6,0,.51-.1-.55-.31-3.17a13.43,13.43,0,0,1,.62-3.54,21.52,21.52,0,0,1-.41-4.44,44.91,44.91,0,0,0,0-4.56l-.31-.51a3.69,3.69,0,0,0,.21-1.39,19,19,0,0,0-.31-2.72,18.09,18.09,0,0,1-.31-2.85c0-2,.31-3.42.93-4.18v-.38a46.51,46.51,0,0,0-.11-5.07c-.14-2.7-.24-4.43-.31-5.19l-.41-.51.31-.5c.07-1.27.1-2.58.1-3.93.07-2,.28-3.12.62-3.29l-.51-.51a30.7,30.7,0,0,0-.52-4.56v-2.28l.31-.25a25.73,25.73,0,0,1,.72-3.55,23.8,23.8,0,0,1-.62-3.93,1.16,1.16,0,0,1-.1-.63c0-.42-.1-.59-.31-.51A21.54,21.54,0,0,0,980,183a21.6,21.6,0,0,1,.62-2.54l1.65.64,3.62-.26a9,9,0,0,1,2,.38,8.48,8.48,0,0,0,2.11.38,6.39,6.39,0,0,0,3.72-1.14l4.13.64,1-.64a18,18,0,0,0,5.16.6l.41.29,1.75-.25.93.5.83-.45a4.59,4.59,0,0,0,1.85-.23l1.66-.46.2.38,1.65-.38a29.59,29.59,0,0,0,5.88.22l1.24.67,2.17-.51.21.51a6.18,6.18,0,0,0,2.16-.89,7.54,7.54,0,0,0,5.47,0l.83.48a7.71,7.71,0,0,1,2.58.16l.41-.26h3.82l.41-.22.82-.16.62.38a4,4,0,0,0,2-.31,6.12,6.12,0,0,1,1.76-.45c.34,0,.72.47,1.13,1.4,0,.68,0,1.95.11,3.81l.31.63-.42.38a12.55,12.55,0,0,1,0,3.3c-.07,1.19-.14,2.33-.2,3.43a34.12,34.12,0,0,1,.46,6.35l.16.38-.83,8.88.41-.25v16c0,.51,0,1.36.14,2.54s.14,1.95.14,2.29l.14.25a30.43,30.43,0,0,0-.42,6.92,29.45,29.45,0,0,1-.41,6.79l.41.51-.62,2.41.11,1,.51.12-.41.64q.31,5.72.72,13.71h.11v1.14a6.24,6.24,0,0,1-.83,3.43l.41,1.78v2.41l.45,1.52a11,11,0,0,0,.17,4.32V282a10,10,0,0,1-1,2l.83,1.39a69.66,69.66,0,0,0,.2,9.27l-.2.26Zm-41.58-20.66-.31-.8-.83.26-.31-.51a7.59,7.59,0,0,1-3.4,0l-.41.51-1-.51q-6.09,0-6.3-.26l-.21.51a23.93,23.93,0,0,0-6,0q.82,2.67,9,13.84h.82l2.07-3.48q-1-1.44-2.79-4.44l.93-.84h5.47l1.24-.67C1002.58,278.81,1003.26,277.61,1004.16,275.91Zm10.63,5.3-.42-.77h-4.85l-.31.51-.41-.51L1007,281l-.73-.51a12.67,12.67,0,0,0-1.34.13,12.51,12.51,0,0,1-1.44.13l-.42.51-.61-.51-.52.51h-2.37l-.62-.51-2.17.38-.21-.38-.72.89a30,30,0,0,1,4.75,6.34c1.37,2.29,2.71,4.57,4,6.86l.62-.38.21.38Zm21.36-30.6-.42.26v-2.42a16.57,16.57,0,0,0-.82-4.69,11,11,0,0,1,.82-2.54v-15l-.41-.13a14.25,14.25,0,0,0-.41-4.06l.1-1,.31-.5a24.09,24.09,0,0,1,.41-3.56V192.73a11.64,11.64,0,0,0-.72-2.92l-.41-.51-2.58-.13a3.1,3.1,0,0,1-1.76.76,2.91,2.91,0,0,1-1.54-.76l-1.55.51-.83-.51-.41.51-.93.51-1-.51h-.51l-.62-.51-1.86.64-.62.76c0,.34,0,.85-.1,1.52v1.65c0,2.63.1,4.11.31,4.44a16.91,16.91,0,0,0,.31,5.46v12.44a1.1,1.1,0,0,0,.41,1,12.52,12.52,0,0,0-.72,5l-.21.13V234l.72,1.53c-.14.76-.31,1.94-.51,3.55l-.21.25.21.26v13l1.85.76,1.65-1,1,.26.41.5,1-.25.21.51.62-.51c1.78.17,3-.09,3.71-.76l.62.51h.93l.82.5a6.93,6.93,0,0,0,1.81-.69A3.42,3.42,0,0,0,1036.15,250.61Z"/><path d="M1114.77,229.92l-.41,2.41v1.4a2.6,2.6,0,0,0-.41,1l.41.39a25.8,25.8,0,0,0,0,3.3v3.17c-.28.34-.41,1.35-.41,3.05a2.79,2.79,0,0,0-.62,2l.62,1.39v.13l.41.51a19.3,19.3,0,0,0-.41,3.93c0,.59,0,1.86.1,3.81q.06,2.28.06,3.81l.25,1.52c-.09.68-.23,2.46-.41,5.34l.33.5a21.4,21.4,0,0,0,.08,3.3l-.41.38.41.64q0,3.81-.09,11.42a4.86,4.86,0,0,0-.32,1.15l.41,1.9v10.92l-1.23,1.39-1.24.38h-2.47a7.42,7.42,0,0,0-1.44-.63,5.62,5.62,0,0,1-2.46.25l-.21.38h-5.76a2.21,2.21,0,0,0-.72-.63,49.39,49.39,0,0,0-5.86.63h-3.6l-.11.51-2.57-.51-.82.51-.41-.51-.93.51a8.79,8.79,0,0,1-1.75-.51l-.82.51-.41-.51-.51.51-.42-.51-.82.51a2.06,2.06,0,0,0-1.34-.51,3.49,3.49,0,0,0-2.16.51h-3.9l-.41-.51-1,.51-.11-.51-.82,1-.41-.51a.76.76,0,0,0-.51.51c-.76-.08-2-.11-3.81-.11l-1.34-.91-5.76,1-.31-.51-.3.51H1053l-.62.51q-.61-.39-1.95-1.14l.1-.39c0-.5-.17-.67-.52-.5l.42-6.6-.42-.13q0-2.28.42-6.48l-.31-.88-.31-13.21-.21-.5.31-.51a26,26,0,0,1,.52-6.35c-.21-1.52-.49-3.26-.83-5.2q.21,0,.21-15.11c0-1.1.24-1.73.72-1.9l-.3-.89L1050,238V193.23l.52-3.17-.93-6.09.52-1.65v-.26l.41-1,1.24-.64.41.76a22.47,22.47,0,0,1,2.89-.76l.21.76.61-.76.21.76,1.34-.76.21.76,17.13-.76q-1,.14,3.3.76a31.16,31.16,0,0,1,7.63-.38l.83-.38h3l.93.19.41.38a10.25,10.25,0,0,1,2.58.19,1.88,1.88,0,0,0,.73-.76h1.34l1,.76c.69-.12,1.75-.38,3.2-.76a2.53,2.53,0,0,0,1.75.76h2.68a8.1,8.1,0,0,1,2.79,0l1.34-.76,1.45.76,2.68-.76c1.31.43,2,2.92,2,7.49a23.62,23.62,0,0,1-.41,5.33V194l.13.25c.1,3.05.11,5.16.05,6.35a23.58,23.58,0,0,1,.23,2.66A19.55,19.55,0,0,0,1114,210l.27.51c0,.59.07,1.86.07,3.81h.07a9.17,9.17,0,0,1-.41,3l.41.13-.1.63c0,.85,0,2.06-.16,3.62s-.15,2.73-.15,3.49C1114,225.48,1114.22,227,1114.77,229.92Zm-6.5,21.83c-.34-1-.89-2.58-1.65-4.69l.1-.13a36.46,36.46,0,0,0-1.13-5.84v-2.92l.52-.51a19.73,19.73,0,0,1-.73-4.06,12.86,12.86,0,0,1,.42-3.17,16.13,16.13,0,0,1-.11-4.32c.14-2.2.21-3.64.21-4.31l.21-.77-.31-.5v-.64l-.93-.89h-1.65l-1.14,1.15-.51-.51-3-.64-1.65.64-.1.38-.62-.38-.31.51V220l-2.17-1-2,.51-.41.39A32.47,32.47,0,0,0,1092,225a13.75,13.75,0,0,0-.52,4.09,3.71,3.71,0,0,1,.21,1.54c0,2.55-.41,4.43-1.24,5.62a13.63,13.63,0,0,1-3.61,1q-1.86-.5-5.47-1.64l-.41-.51-1.45-.5a18.51,18.51,0,0,1-2.89-3.41l.11-.26c-1.38-1.26-1.9-4.3-1.55-9.1l-.21-.13.21-.88-.1-.25v-1q2.27-7.2,4.43-9.6a6.23,6.23,0,0,1,4.08-1.77,7.65,7.65,0,0,0,4.18-1.52H1089l.41-.21.41-.43q10.85.64,14.45.64a5.66,5.66,0,0,0,1.86-1.13v-6.8l-.21-.63a1.4,1.4,0,0,1-.21-.88,4.36,4.36,0,0,1,1-2.4c-.41-.33-.51-1-.3-1.88l-1.35-1.64-7.53-.51-.72.51-.62-.25-1.34.5-1.24-.5c-.41,0-2,.21-4.85.63a18,18,0,0,1-4.64.13l-.31-.26-.42.51-.2-.51-.52.51-.41-.51c-1.38-.25-3.13.38-5.26,1.91l-.62-.26a30.76,30.76,0,0,0-6.3,4.45c-1.85,1.77-3.75,3.55-5.67,5.33q-.83,1.91-2.48,6.09v.38a10,10,0,0,0-1.13,4.7A19.07,19.07,0,0,0,1060,220a40.15,40.15,0,0,1-.41,6.09l.21.76a15.71,15.71,0,0,0,1.34,7.24,36.81,36.81,0,0,1,2.16,5.59q4.44,6.72,9.5,9.39a20.59,20.59,0,0,0,7.63,1.9c2.68.17,4.4.6,5.16,1.27l11.87-.38.1.38c4.88-.34,7.46-.46,7.74-.38l.72.38,2.07-.25Zm-19.6,25.52-1.24-4.19-.41.25.2-.63a7.72,7.72,0,0,0-5.26-3.94l-.41-.5-1,.12-.21-.38a6.59,6.59,0,0,0-2,.64l-.62-.26-.41.51-.21-.25-.52.76-.2-.25-3.2,4.06a23.19,23.19,0,0,0-1.65,5.2q.82,7.62,5.78,9.65l.41.38a3.93,3.93,0,0,1,2.37.51,28.6,28.6,0,0,0,.62-8.51l1.14-.88h3.92A3,3,0,0,0,1088.67,277.27Zm4.12,10.28v-6.47l-.83-1.27c-2.08.17-5.24.46-9.48.89-.27.34-.52.46-.73.38a41.46,41.46,0,0,1-.1,4.95c-.21,2.45-.31,4.14-.31,5.08,0,1.77.45,2.66,1.34,2.66l.52.51a60.85,60.85,0,0,0,8.67-.51l.72-1C1092.73,290.89,1092.79,289.16,1092.79,287.55Z"/><path class="cls-4" d="M1184.22,293l-.31,2.79a8.92,8.92,0,0,1-4.13,2.29l-1.45-.76-.41-.38-.51.63h-2.79l-.41.51-.62-.51-.31.17a20.33,20.33,0,0,1-3.2.08,1.94,1.94,0,0,1-1.65.26l-.52-.51-1.24.51-.72-.51-.41.51h-8l-.41-.51h-1.13l-.42.51-.62-.51-.41.51h-.41l-.41-.34-.73-.17-1.65.51-.1-.51-.41.51h-1.65l-.31-.51-.21.51a.87.87,0,0,1-.15-.26.57.57,0,0,1-.06-.25l-.2.51-.41-.51-.83.51h-.62c-.76.23-1.41.39-2,.51a1.82,1.82,0,0,0-1.34,0l-.41-.34a1.61,1.61,0,0,1-1.24-.17,13.15,13.15,0,0,1-5.88.51l-.62-.51-.42.51a4.2,4.2,0,0,0-2.16-1H1132l-.92.51-.42-.51-1.13.41-.41.4c-2.76.14-5.95.21-9.6.21l-.72-1.78v-2.67a18.57,18.57,0,0,1,.31-4.19,47.9,47.9,0,0,0,.1-5.07l.31-.26-.41-.25v-2.29a2,2,0,0,1-.62-1.9l.14-1.52a1.63,1.63,0,0,0,.68-.89c-.27-2.63-.55-5.76-.82-9.4l.2-.63a13.53,13.53,0,0,1,.62-5.33q-.82-2.67-.82-9.52l.41-.51-.33-.38-.08-.64V250q0-3,.41-8.25v-.26a7.13,7.13,0,0,0,.41-2.41l-.31-.51a10.62,10.62,0,0,0,0-3.17,46.57,46.57,0,0,1-.51-4.7,2.75,2.75,0,0,1,.62-2.16c-.21.09-.31-.42-.31-1.52,0-.42,0-1.16-.16-2.22s-.15-1.88-.15-2.48l.1-2.28.72-1.65a22.51,22.51,0,0,1-.82-3.43V193.49l.31-.38a39.23,39.23,0,0,0,.51-4.57,28.29,28.29,0,0,0-.26-3.3q-.25-2.16-.36-3.18l-.2-.76.51-1.65q.52-.37,8.26-.63c.62.42,2.13.63,4.54.63l.41-.16c1.65-.1,5-.16,10.11-.16l.21-.31c2.2.28,3.47.42,3.82.42l.1.21A9.9,9.9,0,0,0,1149,179l.62.63a17.48,17.48,0,0,1,4.54-.37,20.78,20.78,0,0,0,4.44-.26c.68.59,2,.8,3.92.63l.31-.42c1.3,0,3.44-.07,6.39-.21h6.5l.83.63L1178,179h4.12q1.75,1.39,1.55,4.57-.42,4.18,0,5.2a13.43,13.43,0,0,0-.52,3.43,37.74,37.74,0,0,0,.83,9l-.21.38c.07,1.27-.13,2.08-.62,2.41v3.81a15.36,15.36,0,0,1,.73,5.33,47.21,47.21,0,0,0,.31,5.59l-.31.51a15.42,15.42,0,0,1-.21,3.17l-.52.51a41.37,41.37,0,0,0,.93,4.31l-.2,2.92a22.86,22.86,0,0,1-.21,3.94c.27.09.27.25,0,.51a41.07,41.07,0,0,1,.21,4.44l-.31,1,.1.88-.31.51a6.5,6.5,0,0,1-.1,1.91,10.66,10.66,0,0,0-.21,1.52q0,1.78.41,5.65t.42,5.77q0,6.48-.11,7.62l-.41-.25-.21,1.14a83.09,83.09,0,0,1,1,16.63l-1.14,1.65q1.55,1.77.62,6.6l.41.51a7.3,7.3,0,0,1-.2,1.52Zm-7.85-43.79c-.2-.34-.31-2.75-.31-7.24l-.72-2.16a29.75,29.75,0,0,1,.93-4.82v-1.4c0-.08-.38-1.69-1.13-4.82l.72-1.91.1-3.3a45.85,45.85,0,0,0-.31-6.34l-.31-.13v-.64l.21-.38-.41-1.65a14.91,14.91,0,0,1,.41-1.52l.31-2.79c-.21-1.86-.52-4.07-.93-6.6.34-2,.58-3.43.72-4.45a50.07,50.07,0,0,1,0-7.11c-.27-.16-.4-.59-.36-1.26s-.19-1.1-.67-1.27a37.76,37.76,0,0,0-6-.26,9.69,9.69,0,0,0-1.66.38,1.67,1.67,0,0,1-1.65-.38l-.41.76-1.24-.25-1.13.63a3.09,3.09,0,0,0-.21,2.29,3.31,3.31,0,0,0,.1,2.41c-.13.85-.31,2.2-.51,4.06a3.81,3.81,0,0,1,.2,1.4,38.55,38.55,0,0,1-.61,8.5l-1.14.26a25.1,25.1,0,0,1-3.3-4.19q-3.11-4.44-3.61-5.08l.1-.13a65.41,65.41,0,0,0-4.33-6.79q-4-5.89-4.44-5.9l-1-.13-5.16,5.59a26.68,26.68,0,0,1-5.68,4.7v.88c2.07,2.88,3.1,5.13,3.1,6.73l.31.64c-1.45,5.08-2.13,8.12-2.07,9.14q-1.23,3.56-3,11.17l.11.51a23.78,23.78,0,0,0-.73,5.84c-.27,1.35-.75,3.47-1.44,6.34v1.27a23.92,23.92,0,0,1-.62,7.24,7.4,7.4,0,0,0-.41,2.28l-.31.51c0,.93.07,2.37.2,4.32l-.31.5a1.61,1.61,0,0,1,.21.38l.21,1a2.35,2.35,0,0,0,.41,2.29,98.49,98.49,0,0,0,.82,15.36l.31.12-.2.13q2,9.9,6.09,15.61,1.44-.37,11.76-10.53v-.76c-.35-.68-.86-1.74-1.55-3.18l.21-.12a33.4,33.4,0,0,1-1.86-6.48c-.21,0-.34-.13-.41-.38a.65.65,0,0,1,.1-.63,64.6,64.6,0,0,1-1.75-8.51l.2-.13c-.07-.67-.24-1.69-.51-3V244.26a1.78,1.78,0,0,0,.51-1.52,9.16,9.16,0,0,0,.52-3.43l-.1-.25.31-1.27-.11-.51q.52-2.66,1-5.46c.55-3,1-4.61,1.45-4.69v-1.4a14,14,0,0,1,1.13-2.79l.73-.38,4,4.9-.1.26q.93,2.5,9.7,15.1a5.77,5.77,0,0,1,1.75,1.38c1.24,4,2.58,6.42,4,7.43h5.47l1.14-1.14,1.55.76.82-.13A6.09,6.09,0,0,0,1176.37,249.22Zm-1,30.23q-2.58-3.31-7.44-9.16a4.82,4.82,0,0,0-1.81,1.78,4.77,4.77,0,0,1-1.8,1.77l-4.86,5.59q1.56,2.79,8.08,9.39l.82-.22Zm.19-11.95q-5-6-7.64-9.14a95.87,95.87,0,0,0-7.84,9.64,22.38,22.38,0,0,0,3.72,4.83h.72a19,19,0,0,1,3.2-3.68l.82.38a17.27,17.27,0,0,0,2.79,3.3l.72-.38Q1173.28,270.92,1175.55,267.5Z"/><path d="M1252.94,294.79a23,23,0,0,1-.31,3.81l-.42.25-2.16.25-.42-.76a10.26,10.26,0,0,0-1.23.76l-.42-.76h-2.27l-.41.76h-1.44l-.31-.76-.42.61a7.17,7.17,0,0,0-3.2.15h-2a2.53,2.53,0,0,0-2.06-.76l-.41.76-.62-.76-.21.76-.82-.76a.46.46,0,0,1,0,.76,3.29,3.29,0,0,1-.31-.76l-.41.76-.42-.76-.41.76h-3.92l-.41.39-.42-.39h-3.3l-.93-.76a7.3,7.3,0,0,1-3.2.26l-.41.5h-4l-.11.39-.51-.39-.62.23a5.57,5.57,0,0,0-2.58.16,2.16,2.16,0,0,0-.72-.39c-.83,0-2.14,0-3.92.16l-.42.23-1-.39-.72.39-.83-.33-.41-.49a9,9,0,0,0-3.2-.33l-.31.76h-3.4c.13,0-1,.3-3.3.89l-.42-.5a6.74,6.74,0,0,1-2.16.5l-.73-.5-.2.5-1-.76q0-.89-.51-7.61a27.38,27.38,0,0,0,.1-3.56,2.49,2.49,0,0,0,.52-1.65l-.31.38c-.21-6.52-.17-10,.1-10.54a2.81,2.81,0,0,1-.62-.88l.42-1-.52-.76v-5.21a12.79,12.79,0,0,0,.93-4.69c-.28-.26-.48-2.12-.62-5.59a28.55,28.55,0,0,0-.1-5.33h.2c-.07-2.71-.2-5.63-.41-8.76l1-2.28a1.54,1.54,0,0,0-.41-.77,18.54,18.54,0,0,1-.52-3.3q0-15.22.62-17-.21-1.4-.72-3.93V204.66l.72-1.4c-.34-2.11-.41-3.43-.2-3.93a1.35,1.35,0,0,1-.42-.51,1.2,1.2,0,0,1,.31-.25l-.41-6a8,8,0,0,0,.72-2.29,19.87,19.87,0,0,0-.46-3.36,20.23,20.23,0,0,1-.47-3.62,13.65,13.65,0,0,1,.21-2.16c1,0,2.39-.06,4.29-.19s3.32-.19,4.29-.19l.93.26.62.5h2.48l.41-.5.83-.26h4.75l.52.51,1-.51h2.79a4.33,4.33,0,0,1,1.76.76l1.14-.5,2,.5q.51,0,2.07-.12a6.09,6.09,0,0,1,2.06-.13l.21-.51h3.2l.11-.38a40.86,40.86,0,0,0,8.06.89l.41-.35,5.58-.54.21.64,1.55-.26.73.51.2-.51q4.44,0,5.58.51a2.5,2.5,0,0,0,.93-.89l.62.54,1.14.35.41-.51.62.26,1.35-.64a4.82,4.82,0,0,0,1.24,1,19.79,19.79,0,0,1,.2,2.94c0,.86-.08,2.14-.25,3.84s-.26,3-.26,3.83a12.34,12.34,0,0,0,.31,2.94,16.44,16.44,0,0,0,.2,4.22,56.64,56.64,0,0,1-.14,5.88l-.23.51c-.09,2.72-.14,3.7-.14,2.94,0,.51,0,1.23.08,2.17s.09,1.53.09,1.79l.34.25v2.94c.06,1.45.08,2.43.08,2.94h.23a12.21,12.21,0,0,0-.27,4.45,3.76,3.76,0,0,0-.55,1.77,24.46,24.46,0,0,0,.26,2.92,26.53,26.53,0,0,1,.25,2.92v10.79A7,7,0,0,0,1252,244a18.82,18.82,0,0,1-.38,2.92l-.09.51.52.51c0,1.1,0,2.71.15,4.82s.16,3.64.16,4.57c0,.34,0,1,.15,2.09a11.82,11.82,0,0,1,0,2.48l.31.51a22.19,22.19,0,0,1-1,3.93l-.1.51a11.43,11.43,0,0,1,.82,2.79l-.51.51a8.36,8.36,0,0,0,.82,1.91c-.2.25-.31,1.43-.31,3.55,0,4.15.11,6.43.31,6.85l-.82,2.42c.21.67.38,1.27.51,1.77a14.62,14.62,0,0,0,0,3.81Q1252.94,294.65,1252.94,294.79Zm-6.71-39.35a10.54,10.54,0,0,0-1-4.57V250a12.12,12.12,0,0,0-1.55-5.33c-1.44-3-2.24-4.62-2.37-5q-2.58-2.8-7.23-8.38l-.1.25-.41-.38-.83-.25q-2.68-2-5.47-4.45a10.2,10.2,0,0,1-3.66-3.81,10.41,10.41,0,0,1-1.6-5.45,10.73,10.73,0,0,1,2.63-6.35c1.76-2.29,3.42-3.68,5-4.19l.41-.51h.51l.62-.38.52.13a37.72,37.72,0,0,0,8.46-3.05l.62.51,2.37.13.93-.38.62.25a3.45,3.45,0,0,1,1-1,6.66,6.66,0,0,0-1.34-2.79l.11-.25q-.32-.65-3.62-5.59l.42-2.16a10.8,10.8,0,0,0-2.27-3.93l-.42.25-.82-.76-.1.51-.21-.51-.31.51a5.73,5.73,0,0,0-4.85,1.39l-1.14-.25-.51.51q-11.36,4.06-15.38,11.17-1.44.51-3.71,3.87a13.22,13.22,0,0,0-2.48,5.27h.21a7.55,7.55,0,0,0-1,3.68,15.31,15.31,0,0,0-1.14,5.84c0,.25,0,.68.11,1.27s.1,1.06.1,1.4l.41,1a3.92,3.92,0,0,0-.31,1.65,10.67,10.67,0,0,0,1.09,4.51,6.85,6.85,0,0,0,2.63,3.24l.2,1.65a89.42,89.42,0,0,0,9.19,8,31.75,31.75,0,0,1,8.25,9q.62,1.9,2.06,5.58l-.41,1a11.5,11.5,0,0,1-2.68,8.5,37,37,0,0,1-6.09,6l-.82-.13-.31.38-.52-.25a6.49,6.49,0,0,0-2.06,1h-.62l-.42.51q-1.44-.12-2.88,1.65l-1.35-.25a18.88,18.88,0,0,0-3.71.51l-.21.25-.62-.51-2,.64-.2.38a4.21,4.21,0,0,0-2.17-.38c-1.24.17-1.89.25-2,.25l-2-.38-1.24,1.27a12.75,12.75,0,0,1,1.55,5.46l.41.12a6.3,6.3,0,0,0,.72,3.31,9.76,9.76,0,0,1,.93,3.8,3.08,3.08,0,0,0,1.86,3.18,14.29,14.29,0,0,0,3.41.25h.2a12.12,12.12,0,0,1,3-.76l.42-.51a6.87,6.87,0,0,1,3.71-.38l.41-.51,1.65-.5.42.25.2-.51.62.26.62-.51a7.27,7.27,0,0,0,3-1c1.59-.76,2.62-1.23,3.1-1.39.27-.34.45-.43.52-.26l.51-.51,1.34-.38.62-.76c.48-.25,1.21-.59,2.17-1a28.94,28.94,0,0,1,3.3-2.8,28.32,28.32,0,0,0,3.87-4.76,26.32,26.32,0,0,1,3.77-4.63,7.77,7.77,0,0,1,.72-1.9q1.86-1.53,2.79-5.34l-.11-1,.21-.89.62-.76A22,22,0,0,0,1246.23,255.44Z"/></svg>