<?xml version="1.0" encoding="UTF-8"?>
<!DOCTYPE svg PUBLIC "-//W3C//DTD SVG 1.1//EN" "http://www.w3.org/Graphics/SVG/1.1/DTD/svg11.dtd">
<!-- Creator: CorelDRAW X8 -->
<svg xmlns="http://www.w3.org/2000/svg" xml:space="preserve" width="1.88735in" height="0.906602in" version="1.1" style="shape-rendering:geometricPrecision; text-rendering:geometricPrecision; image-rendering:optimizeQuality; fill-rule:evenodd; clip-rule:evenodd"
viewBox="0 0 1906 916"
 xmlns:xlink="http://www.w3.org/1999/xlink">
 <defs>
  <style type="text/css">
   <![CDATA[
    .fil2 {fill:none}
    .fil1 {fill:black}
    .fil0 {fill:#070707}
    .fil3 {fill:black;fill-rule:nonzero}
   ]]>
  </style>
 </defs>
 <g id="Layer_x0020_1">
  <metadata id="CorelCorpID_0Corel-Layer"/>
  <path class="fil0" d="M169 124c63,-27 215,-163 389,26 -46,-35 -78,-63 -138,-78 -50,-12 -156,-14 -191,29 153,-25 216,-33 330,95 80,91 90,180 203,254 255,168 339,-50 721,169 -252,-173 -255,-113 -498,-129 -203,-13 -269,-118 -366,-271 60,56 95,193 199,191l-87 -68 91 13c-51,-35 -114,-59 -140,-126 73,9 75,52 120,81 -6,-136 -130,-100 -184,-152 118,13 95,20 191,60 -36,-107 -208,-69 -293,-140 50,18 129,58 176,28l-196 -68c35,0 79,15 106,-7 -50,-19 -202,-43 -254,-24 -18,6 -37,18 -52,23 -19,7 -88,-7 -127,94z"/>
  <path class="fil0" d="M246 420c20,-22 34,-59 82,-90 46,124 -70,135 -90,268 -54,8 -113,18 -167,31 -61,14 -94,71 -52,122 30,37 96,42 141,54 40,11 114,39 147,45 -63,-65 -223,-83 -257,-116 -19,-18 -17,-48 3,-64l221 -73 -31 -11c28,-69 223,-232 69,-286 -23,41 1,16 -35,55 -18,18 -24,37 -31,65z"/>
  <path class="fil0" d="M118 173c-8,20 -19,36 -21,59l20 -29c-1,41 -3,244 6,271 29,33 88,45 113,1 -21,14 -22,21 -48,11 -1,0 -38,-25 -41,-28 1,-25 4,-75 4,-152 64,-9 58,-25 61,-80 -7,-6 -50,-5 -62,-6 -1,-35 -4,-62 -8,-71 -6,-12 -41,-40 -62,-50l38 74z"/>
  <g id="_3057262502992">
   <path class="fil1" d="M221 111c144,-43 299,62 317,241 9,88 67,89 107,168 -41,-18 -118,-78 -137,-131 -86,-241 56,-22 -191,-228 0,0 0,0 0,0 -8,3 -31,-2 -73,13 -18,6 -37,-3 -44,-20 -6,-18 3,-37 21,-43z"/>
  </g>
  <path class="fil2" d="M232 142c0,0 86,-31 109,0 24,31 94,51 148,94 55,43 -7,129 75,206 81,78 81,78 81,78"/>
  <g id="_3057270554672">
   <path class="fil1" d="M330 84c144,-42 300,63 317,241 9,88 68,89 108,169 -42,-18 -119,-79 -138,-131 -86,-241 56,-22 -191,-229 1,1 0,1 1,1 -9,3 -32,-2 -74,13 -17,6 -37,-3 -43,-20 -7,-18 2,-37 20,-44z"/>
  </g>
  <path class="fil2" d="M341 116c0,0 86,-31 110,0 23,31 93,51 148,94 54,42 -8,128 74,206 82,78 82,78 82,78"/>
  <g id="_3022155325792">
   <path class="fil1" d="M199 135c150,-6 276,133 250,310 -13,88 44,103 63,190 -35,-28 -96,-105 -101,-160 -26,-255 59,-8 -131,-268 1,0 1,0 1,1 -9,0 -30,-10 -75,-6 -18,2 -35,-11 -37,-30 -2,-18 12,-35 30,-37z"/>
  </g>
  <path class="fil2" d="M203 169c0,0 90,-10 106,26 15,36 78,72 121,127 42,54 -39,122 22,218 60,95 60,95 60,95"/>
  <path class="fil3" d="M359 643c-1,0 -1,0 -2,0 0,-1 -1,-1 -1,-1 0,-1 -1,-1 -1,-1 -1,0 -3,1 -6,3 -2,1 -5,1 -6,2l0 33c0,1 0,2 0,3 0,0 0,1 1,2 0,1 -1,2 -1,3 -2,1 -3,2 -4,2 -2,0 -4,-1 -5,-2 0,-1 -1,-2 -1,-4 0,0 0,-1 1,-2 0,-1 0,-2 0,-2l0 -32c-2,0 -5,0 -8,-1 -3,0 -5,-1 -7,-2 -6,-4 -9,-8 -11,-13 4,1 8,2 13,2 4,0 8,0 13,-2 7,-1 12,-3 15,-6 0,0 1,-1 2,-2 1,-1 1,-1 2,-1 0,0 1,0 1,0 0,1 0,2 0,2 0,3 1,5 1,8 1,3 2,6 4,9 0,1 0,1 0,2zm61 40c0,0 0,1 0,1 0,3 -2,5 -5,5 -1,0 -2,0 -3,-1 -1,0 -1,-1 -1,-2l-2 -16c0,-3 -1,-5 -2,-6 -1,-1 -3,-1 -5,-1l-17 0c-2,0 -4,0 -6,1 -1,1 -1,3 -2,7l-1 15c0,1 -1,2 -2,2 -1,1 -2,1 -3,1 -3,0 -4,-2 -4,-5 0,0 0,-1 0,-1l5 -56c1,-2 1,-3 2,-4 1,-1 2,-1 4,-1 2,0 3,0 4,1 1,1 1,3 0,5 0,1 -1,3 -1,5l-1 10c-1,0 2,0 7,0 5,0 9,0 13,0 1,0 3,0 7,0l-2 -10c0,-1 0,-2 0,-4 -1,-1 -1,-3 -1,-3 0,-1 0,-2 1,-3 0,-1 2,-1 4,-1 1,0 2,0 3,1 1,1 2,2 2,4l6 56zm60 -1c-1,2 -3,4 -8,5 -4,2 -9,2 -14,2 -10,0 -18,-2 -24,-5 -2,-3 -3,-8 -4,-14 -1,-5 -1,-11 -1,-17 0,-7 0,-12 1,-15 1,-8 3,-13 7,-15 1,-1 3,-1 4,-1 -1,0 1,0 4,0 6,0 9,0 9,0 2,0 4,0 7,0 2,0 4,-1 7,-1 3,0 5,1 6,3 0,5 -6,7 -18,7 -1,0 -2,0 -3,0 -1,0 -2,0 -4,0 -2,-1 -3,-1 -4,-1 -2,0 -3,1 -4,1 -1,1 -2,2 -3,5 0,2 0,4 0,5l24 0c3,0 5,1 5,3 0,3 -2,4 -5,4l-24 0c0,2 0,5 0,9 0,4 2,6 5,8 3,1 8,2 15,2 5,0 9,-1 12,-2 1,0 2,-1 4,-2 1,0 1,0 2,0 2,0 3,1 4,3 0,2 -1,3 -1,4 -1,2 -1,3 -1,4 0,1 0,2 1,3 1,2 1,3 1,4 0,0 0,1 0,1z"/>
  <path class="fil3" d="M406 847c0,15 -5,28 -16,40 -10,10 -21,16 -33,16 -12,0 -23,-4 -35,-12 -11,-8 -17,-16 -16,-24 0,-3 0,-6 2,-7 2,-1 4,-2 6,-4 3,-2 5,-5 5,-8 0,-1 1,-4 1,-9l0 -79c0,-5 -1,-8 -3,-8 -1,-1 -2,0 -4,2 -1,2 -3,3 -4,3 -3,1 -5,-2 -5,-6 0,-2 0,-3 1,-5 1,-9 8,-17 20,-24 10,-5 18,-8 26,-8 10,0 19,3 26,8 10,8 15,19 15,34 0,16 -5,27 -14,33l0 2c4,3 7,5 8,6 2,1 5,4 7,7 9,11 13,26 13,43zm-35 -89c0,-7 -2,-13 -6,-17 -4,-4 -8,-6 -13,-6 -4,1 -6,1 -7,1 -2,1 -4,2 -6,5 -2,2 -2,9 -2,20l0 22 7 0c6,0 11,-1 14,-2 9,-5 13,-13 13,-23zm-1 71c0,-8 -2,-14 -6,-18 -3,-4 -8,-6 -15,-6 -5,0 -10,0 -12,0l0 31c0,5 2,9 5,12 3,1 6,2 10,1 5,0 9,-1 12,-5 4,-4 6,-9 6,-15zm140 36c0,21 -7,32 -22,31l-67 0c-4,0 -6,-2 -6,-8 1,-2 1,-5 3,-7l7 -15c2,-3 3,-6 3,-9 1,-4 1,-7 0,-10l13 0 0 -71c0,-9 -2,-16 -6,-19 -3,-2 -6,-3 -11,-2 0,-9 3,-18 9,-27 7,-10 14,-14 22,-14 3,0 6,1 9,3 -2,2 -3,7 -5,13 -1,4 -1,10 -1,19l0 98 22 0c4,0 7,-1 8,-3 1,-1 1,-4 1,-10 7,0 12,3 16,9 4,6 5,13 5,22zm131 20c0,2 0,4 0,6 0,7 -2,11 -5,12 -1,0 -2,0 -3,0 -4,0 -7,-4 -8,-12l-3 -18c-1,-4 -2,-7 -3,-9 0,-2 -1,-4 -3,-6 -3,-3 -7,-4 -13,-4l-37 0c-5,0 -9,1 -12,2 -5,2 -8,7 -10,15l-3 20c-2,8 -5,12 -9,12 -1,0 -1,0 -2,0 -4,-2 -6,-5 -6,-9 0,-2 0,-4 1,-7l22 -121c3,-19 7,-31 10,-37 5,-10 14,-15 26,-15 17,0 29,15 34,46l24 125zm-31 -76c-2,-12 -5,-20 -7,-25 -5,-8 -11,-12 -20,-12 -9,0 -16,4 -20,12 -3,6 -6,15 -7,25l54 0zm145 -66c0,3 -1,4 -2,6 -1,1 -3,2 -4,3 -3,3 -5,7 -7,11 -1,4 -2,7 -2,9 -1,1 -1,5 -2,10 -1,8 -4,13 -8,12 -2,0 -4,-1 -4,-4 -1,-2 -1,-5 -2,-8 -1,-7 -5,-10 -14,-10 -8,0 -16,5 -21,14 -5,9 -8,21 -8,35 0,17 4,31 12,42 7,10 16,15 28,15 10,0 16,-5 17,-14 2,-2 4,-3 7,-3 1,0 2,0 3,1 4,2 5,5 5,11 0,3 0,5 -1,8 -4,14 -16,22 -35,22 -17,0 -31,-9 -42,-27 -11,-17 -16,-38 -16,-62 0,-37 7,-64 21,-80 11,-14 24,-20 37,-20 9,0 18,3 25,7 9,6 13,12 13,20 0,1 0,1 0,2zm108 173c-6,-20 -14,-41 -26,-61 -8,-14 -17,-26 -26,-36 -3,-2 -6,-4 -9,-7l-4 6 0 71c0,9 -3,14 -9,14 -6,0 -8,-5 -8,-14l0 -46 -1 1c-2,3 -4,4 -7,4 -1,0 -2,0 -3,-2 -1,-2 -2,-4 -2,-6 0,-3 1,-6 3,-8l10 -15 0 -50c0,-5 -1,-8 -3,-9 -1,-1 -2,-1 -3,-1 -1,0 -2,0 -3,0 -2,1 -3,1 -3,1 -1,0 -2,-1 -3,-2 0,-2 0,-3 0,-4 0,-3 1,-6 4,-8 5,-3 10,-7 15,-11 3,-3 7,-8 13,-15 2,-3 4,-4 5,-4 2,0 3,1 4,3 0,1 0,1 0,2 0,3 -1,5 -3,8 -2,4 -4,7 -5,10 -1,1 -1,5 -1,10l0 44 52 -81c1,-1 1,-1 2,-2 1,-3 3,-4 5,-4 2,0 3,1 4,3 2,1 2,3 2,6 0,3 0,5 -1,8 0,0 -1,1 -1,2l-36 55c2,2 5,7 10,13 9,13 15,27 21,42 5,18 8,38 8,62 0,8 0,15 -1,21zm184 -75c0,18 -5,33 -15,45 -10,11 -21,17 -35,17 -12,0 -23,-5 -32,-14 -10,-10 -15,-24 -15,-40 0,-9 2,-17 4,-25 3,-8 6,-13 10,-16 3,2 5,4 7,7 2,2 4,5 5,7 3,1 8,2 14,4 0,1 2,2 4,6 -1,0 -3,2 -5,4 0,2 -1,3 -1,5 0,3 2,6 4,8 3,3 7,4 10,4 6,0 12,-2 16,-5 5,-4 8,-11 8,-20 0,-11 -6,-19 -17,-23 -6,-2 -13,-4 -19,-6 -7,-2 -12,-5 -15,-7 -9,-7 -14,-18 -14,-34 0,-12 4,-23 13,-32 8,-8 17,-12 28,-12 7,0 14,2 23,6 4,1 7,4 10,6 4,3 5,5 5,6 0,1 -2,2 -5,4 -2,0 -3,1 -3,1 -1,1 -2,2 -2,4 -1,0 -1,3 -2,6 -1,4 -1,5 -1,5 -1,1 -1,2 -2,3 -1,0 -2,-1 -3,-3 -2,-3 -3,-5 -3,-5 -6,-6 -12,-9 -18,-9 -6,0 -11,1 -15,5 -6,4 -8,9 -8,16 0,7 2,13 7,16 2,3 6,5 12,6 7,2 13,4 19,6 10,4 17,9 21,16 7,10 10,22 10,38zm44 37c0,7 -2,13 -6,18 -4,5 -9,7 -13,7 -9,0 -14,-4 -14,-13 0,0 1,-1 1,-2 3,-1 5,-3 6,-7 1,-2 2,-6 2,-13l0 -117c0,-6 -1,-10 -2,-12 -2,-2 -4,-4 -6,-5 2,-13 8,-20 19,-20 4,0 7,1 9,4 1,1 3,3 4,4 -2,2 -3,4 -5,8 -2,1 -2,6 -2,14l0 116c0,7 1,11 2,13 1,2 3,4 5,5zm101 -105c-1,2 -2,1 -4,0 0,-1 -1,-2 -1,-2 -1,-1 -2,-2 -3,-2 -2,0 -6,2 -12,6 -4,3 -8,5 -12,7l0 94c0,3 1,5 1,8 0,0 1,2 2,5 0,3 -1,6 -3,9 -2,3 -4,5 -7,5 -4,0 -7,-2 -9,-5 -1,-3 -2,-7 -2,-11 0,-1 0,-3 1,-6 0,-3 0,-5 0,-7l0 -88c-4,0 -9,-1 -15,-3 -6,-2 -10,-4 -13,-6 -12,-10 -19,-23 -21,-38 7,4 15,7 24,7 8,0 17,-1 26,-5 13,-5 23,-11 28,-18 1,0 2,-2 5,-6 1,-2 2,-3 3,-3 1,0 2,1 2,2 0,2 0,4 0,6 1,7 2,14 3,21 2,9 4,17 6,24 1,3 1,5 1,6zm117 112c0,2 0,3 0,4 0,9 -3,13 -8,14 -3,0 -5,-1 -6,-2 -2,-2 -3,-5 -3,-8l-3 -42c0,-9 -2,-15 -4,-17 -3,-4 -6,-5 -10,-5l-33 0c-4,0 -8,1 -10,5 -2,2 -4,8 -5,17l-3 42c0,3 -1,6 -3,7 -2,2 -4,3 -6,3 -6,-1 -8,-5 -8,-14 0,-1 0,-2 0,-4l11 -156c0,-4 1,-8 3,-11 2,-3 4,-4 7,-4 4,0 7,2 9,5 1,2 1,7 -1,14 0,3 -1,7 -1,11l-2 30c-2,0 3,0 13,0 10,0 18,0 25,0 2,0 7,0 13,0l-2 -29c0,-2 -1,-6 -2,-10 -1,-4 -1,-8 -1,-10 0,-2 0,-4 1,-6 2,-3 4,-5 8,-5 3,0 6,1 7,4 2,3 3,7 4,11l10 156zm131 -77c0,27 -5,49 -16,67 -10,19 -24,28 -41,28 -17,0 -31,-9 -42,-28 -9,-17 -14,-39 -14,-67 0,-26 5,-48 16,-66 12,-19 25,-28 40,-28 16,0 29,9 40,28 11,18 17,40 17,66zm-21 -21c0,-15 -4,-28 -11,-38 -7,-11 -15,-16 -25,-16 -9,0 -18,5 -25,16 -6,10 -10,23 -10,38 0,15 4,28 10,38 7,11 16,16 25,16 10,0 18,-5 25,-16 7,-10 11,-23 11,-38zm129 78c0,21 -8,32 -22,31l-68 0c-4,0 -6,-2 -5,-8 0,-2 0,-5 2,-7l8 -15c1,-3 2,-6 2,-9 1,-4 1,-7 0,-10l13 0 0 -71c0,-9 -2,-16 -6,-19 -3,-2 -6,-3 -11,-2 0,-9 4,-18 9,-27 7,-10 14,-14 22,-14 4,0 7,1 9,3 -2,2 -3,7 -5,13 -1,4 -1,10 -1,19l0 98 22 0c5,0 7,-1 9,-3 0,-1 0,-4 0,-10 7,0 12,3 16,9 4,6 6,13 6,22zm113 19c0,6 -5,11 -15,14 -7,4 -16,5 -26,5 -20,0 -36,-6 -47,-15 -4,-9 -6,-21 -8,-37 -2,-16 -3,-32 -2,-50 0,-18 1,-32 2,-41 2,-22 6,-36 13,-42 3,-2 6,-4 8,-4 -1,0 2,0 9,0 12,1 17,1 16,1 5,0 9,0 14,0 4,-1 9,-2 13,-4 7,0 11,4 11,11 1,12 -10,18 -33,18 -2,0 -4,0 -7,0 -1,0 -4,0 -7,-1 -3,0 -6,0 -7,0 -4,0 -7,0 -9,2 -2,2 -4,6 -5,13 -1,5 -1,10 0,15l47 0c6,0 9,3 9,9 0,6 -3,10 -10,10l-46 0c-1,4 -1,13 0,25 1,10 4,17 10,22 5,4 15,7 28,6 9,0 17,-2 23,-5 2,-1 5,-3 9,-5 1,-1 2,-1 3,-1 4,0 7,3 7,9 0,4 0,8 -2,11 -1,4 -1,8 -1,10 0,3 0,6 2,10 1,4 2,7 2,10 0,1 0,2 -1,4zm132 -76c0,27 -6,49 -16,67 -11,19 -24,28 -41,28 -18,0 -32,-9 -42,-28 -10,-17 -15,-39 -15,-67 0,-26 6,-48 17,-66 11,-19 24,-28 40,-28 16,0 29,9 40,28 11,18 17,40 17,66zm-22 -21c0,-15 -3,-28 -10,-38 -7,-11 -15,-16 -25,-16 -10,0 -18,5 -25,16 -7,10 -10,23 -10,38 0,15 3,28 10,38 7,11 15,16 25,16 10,0 18,-5 25,-16 7,-10 10,-23 10,-38zm135 -66c0,1 0,2 0,3 0,1 0,3 -1,6 -1,3 -1,7 -1,12l0 147c0,9 -3,14 -9,14 -6,0 -9,-4 -9,-12 0,-1 0,-3 0,-6 1,-3 1,-5 1,-7l0 -29 -58 -50 0 80c0,2 0,4 0,6 0,3 1,5 1,6 0,8 -3,12 -9,12 -7,0 -10,-5 -10,-14 0,-1 0,-3 1,-5 0,-3 0,-5 0,-7l0 -127c0,-10 -1,-16 -1,-19 -2,-2 -2,-5 -2,-8 0,-4 1,-7 3,-8 2,-1 3,-1 4,-1 2,0 6,2 12,8l59 50 0 -39c0,-13 3,-19 11,-19 4,0 7,2 8,7z"/>
  <g id="_3057269121312">
   <path class="fil1" d="M190 219c84,-1 44,1 121,-5 -65,12 -35,5 -90,22 -17,2 -38,0 -47,-4 -9,-5 -1,-11 16,-13z"/>
  </g>
  <line class="fil2" x1="206" y1="227" x2="311" y2= "214" />
 </g>
</svg>
