<svg id="Layer_1" data-name="Layer 1" xmlns="http://www.w3.org/2000/svg" viewBox="0 0 800 800"><defs><style>.cls-1,.cls-2,.cls-3,.cls-5,.cls-6{stroke:#000;}.cls-1,.cls-2,.cls-3,.cls-5,.cls-6,.cls-7{stroke-miterlimit:10;}.cls-1{stroke-width:16.27px;}.cls-2{stroke-width:6.78px;}.cls-3{stroke-width:9.49px;}.cls-4,.cls-5{fill:#fff;}.cls-5,.cls-7{stroke-width:2.71px;}.cls-6{fill:none;stroke-width:1.36px;}.cls-7{fill:#f6921e;stroke:#fff;}.cls-8{fill:red;}.cls-9{fill:lime;}.cls-10{fill:#ff0;}</style></defs><title>VENAC RAP LOGO 2</title><path class="cls-1" d="M115.64,280.82q6.49-.49,8.87,10.25l.45,0-5,96.32.21,2.86,5.92,19.09q.65,8.58-8.56,12.13-9.06.68-16.25-24.65-14-25.38-54-78.15-.09-1.14-7.77-7.46l-1.85-6.76q1.2-12.72,8.48-13.27t29,32.32l27,36.49.45,0,4.55-72.15Q109.81,281.25,115.64,280.82Z"/><path class="cls-1" d="M255.46,263.1l4.37-.32q7.5-.55,10.55,8.55l.17,2.29q.72,9.7-9.05,11.59-24.09,1.79-61.85,13.5,5.29,28.91,6.08,28.84,15.72-6.76,43.87-16,10.07,2.26,10.67,10.27-2.46,12.39-10.3,13-36.39,12-42,16.34,4.77,40,8.92,39.7l3.56.89,4.81-.36q4-.3,36.93-21.56l17.42-9.63q9.3,2.47,9.93,10.9.78,10.58-19.76,19.14-26.4,17.47-38.19,22.66l-5.07,1.52q-22.39,1.66-29.79-22.06-4-18.66-11.28-76l-5.1-21.6q3.21-19.05,11.94-19.7l5.68.58Q238.43,264.37,255.46,263.1Z"/><path class="cls-1" d="M399.29,268.93q9.85-.72,11.68,23.84,1.69,22.86,9.88,60.17l.25,3.43q.54,7.29-7.49,14.35c-1.77.41-2.64.86-2.61,1.34q-3.13.22-22.69-14.4l-34.9-21,.17,2.29q18.41,41.58,18.63,44.58-1.4,11.6-9,12.16l-.45,0q-6.62.5-14.2-21.35-20.81-49.59-27.18-56.58l-1.28-5.08q1.44-13.89,8.84-14.45,2.69-.19,11.26,6.06,16.59,8.1,57.47,33.65l.9-.06-.05-.58Q393,305,391.09,279.88,390.52,272.17,399.29,268.93Z"/><path class="cls-1" d="M635.34,262.31q23.42-1.74,30.15,11.55l.7,3.4q.63,8.57-7.75,10.92a55,55,0,0,0-20.91-2.47q-22.63,1.68-26.59,18.06-1.71,7.31-.84,19,2,26.71,17.46,34.9a16.72,16.72,0,0,0,8.23,1.69Q652,358.18,675,329.46q5.1-14.74,8.8-15l2.16-1.31q9.16,2.21,9.81,10.77l0,.57q.42,5.71-7.43,21.24Q668,371.92,649.46,379.62l-11,3.12q-26.43,2-42.19-34.21a110.75,110.75,0,0,1-4.6-25.51q-2.83-38.28,19.52-52.59Q621.12,263.37,635.34,262.31Z"/><path class="cls-2" d="M359.38,417.06q13.85-1,17.1,6.85l2.81,9-3,17.56.58.49.53,0q14-10.23,18-10.54,10.25-.75,14.35,13,2.73,31.33,13.27,70.49l4.57,11q-1.29,11.48-9.81,12.11l-1.07.07q-12.24.92-19.23-35.39-2.73-8.06-7.91-41.65l-1.6.12q-27.17,21.78-36.1,33,9.81,16.59,10,19.83l.08,1.07q.67,9-10.38,11.61-8.52.63-15.08-15.67A347.94,347.94,0,0,0,302,473.84l-3-12.22q-1-13.06,48.93-40.46Q351.86,418.7,359.38,417.06Zm-36.66,47.12L337.43,482l1.6-.12q14.06-21.62,16.37-39.12l0-.54-.53,0q-15.4,7.24-32.15,21.35Z"/><path class="cls-3" d="M480.89,205.34q9.42-.69,35.66,112.81l23.64,85.78q15.88-1.15,18.11,29.12.76,10.41-4.69,23.17L563,510.07q1.49,20.19-7.68,25.94-8.85.65-16.23-53.35-4.35-18.72-5.48-18.63-26.53,2-56.15,24.42-1.61,6.15-1.32,25.47-1,10.86-6.6,15.7-7.72.57-12.21-29.54l-.19-2.53q1.9-53.42,9.23-141.47,1.3-69.22,6.06-134.9Q475.45,205.73,480.89,205.34Zm6.76,85.76-2.78,86.45-3.55,51,.45,0L520.33,413l-.1-1.26L488.55,291Z"/><path class="cls-2" d="M695.81,428.17q7.23,3.63,10.68,15.91l-1.38,6.13-1.74,3.46q-7.71,15.36-55.63,28.5l-26.31,1.66-.25.5q-4.15,26.3-5.7,29.38-3.79,7.56-14.22,4.65-8.6-4.32-1.92-28.87,11-70.12,15.93-81.31,4.11-8.18,14.22-4.64l.45.23q2.26,1.13,4.55,7.86Q674.68,417.55,695.81,428.17Zm-65.6,5.5q-5.87,27.45-4.5,28.12,23.68,2.15,53.73-14.56l.49-1Q664.12,438.29,630.21,433.67Z"/><path d="M315.18,572.47,129.65,542l17.26-75.33L325,532.48C315,541.47,310.46,563.56,315.18,572.47Z"/><circle cx="80.06" cy="490.94" r="73.22"/><path class="cls-4" d="M149.44,466.53a2.66,2.66,0,0,1-.4-1,2.61,2.61,0,0,1-.59-1.36,2.18,2.18,0,0,1-.09-.23c0-.05,0-.11-.07-.16a2.46,2.46,0,0,1-.36-.83,1.17,1.17,0,0,1-.15-.32l-.05-.17a.41.41,0,0,1,0-.09,2.74,2.74,0,0,1-.61-1.09h0a51.33,51.33,0,0,0-12,5.88,54.52,54.52,0,0,0-19.46,26.75,51.93,51.93,0,0,0-.09,33.32,46.5,46.5,0,0,0,8,14.24c.9,1,1.76,2,2.67,3,.64.6,1.29,1.18,1.95,1.75a2.28,2.28,0,0,1,.58-.44,1.12,1.12,0,0,1,.16-.1,2.29,2.29,0,0,1,.85-.68s.06-.06.1-.09a2.26,2.26,0,0,1,.65-.58,2.31,2.31,0,0,1,.83-.87l0,0a2.22,2.22,0,0,1,.38-.49,59.76,59.76,0,0,1-6.6-17.58,54,54,0,0,1,2.06-27.55,58.26,58.26,0,0,1,14.6-23.54,39.42,39.42,0,0,1,8.45-6.34s0-.05,0-.07A2.53,2.53,0,0,1,149.44,466.53Z"/><path class="cls-4" d="M165.53,473.48a1.72,1.72,0,0,1-.4-.14l-.08,0a43.27,43.27,0,0,0-6.26,4.85,59.18,59.18,0,0,0-15.34,24.05,55,55,0,0,0-1.77,28.45,57.62,57.62,0,0,0,4.75,13.52l.34.62a2.3,2.3,0,0,1,.57.11.83.83,0,0,1,.22,0,57.18,57.18,0,0,1-4.86-14.48,55,55,0,0,1,2-27.82,59.67,59.67,0,0,1,14.77-23.72A41.45,41.45,0,0,1,166,473.7h0A3.1,3.1,0,0,1,165.53,473.48Z"/><path d="M359.63,572.81l-34.12-2.88c-3.89-10.53-2.47-20.89,7.09-31l30.89,15.25C359,558.51,357.74,566.14,359.63,572.81Z"/><path d="M376.76,568.15a74.33,74.33,0,0,0,21.3,12.65,80.71,80.71,0,0,0,11.78,3.68A54.71,54.71,0,0,0,421.93,586c4,0,8-.62,11.28-2.52a48,48,0,0,0,9.4-7.41c5.87-5.69,11.23-12,16.62-18.37s10.74-12.79,16.71-18.89a68.68,68.68,0,0,1,9.91-8.61,24.47,24.47,0,0,1,6.51-3.25,13.65,13.65,0,0,1,4.19-.58,8.77,8.77,0,0,1,1.14.1,6.77,6.77,0,0,1,1.16.22A7.75,7.75,0,0,1,500,527l.55.21.39.18a62.56,62.56,0,0,1,11.35,6.88c3.47,2.55,6.74,5.24,10,7.82a86.93,86.93,0,0,0,9.64,7,21.46,21.46,0,0,0,4.73,2.14,7.76,7.76,0,0,0,4,.26,13.38,13.38,0,0,0,4.22-1.93,40.22,40.22,0,0,0,4.45-3.38c3-2.51,5.83-5.4,8.75-8.34s5.86-6,9.08-8.93c1.61-1.48,3.28-2.94,5.13-4.33a35.39,35.39,0,0,1,6.17-3.85,17.78,17.78,0,0,1,8.47-1.89c.2,0,.42,0,.6,0l.48.06,1,.14a17.45,17.45,0,0,1,1.78.32l1.69.34,1.59.39c4.23,1,8.28,2.23,12.32,3.45,8.07,2.44,16,5,24,7.68,15.86,5.35,31.58,10.95,47.3,16.59s31.37,11.39,47,17.22l-8.68,6.46c-1.12-13.82-2-27.6-2.91-41.4s-1.75-27.6-2.48-41.4c-1.49-27.61-2.78-55.24-3.64-82.89s-1.42-55.33-1.38-83q0-20.77.74-41.59c.49-13.88,1.19-27.77,2.45-41.69.63-7,1.41-13.93,2.48-20.92A129.29,129.29,0,0,1,716,197.45a49.33,49.33,0,0,1,2.13-5.39,26.47,26.47,0,0,1,3.37-5.56,14.53,14.53,0,0,1,1.26-1.41,15.36,15.36,0,0,1,1.57-1.36,11.37,11.37,0,0,1,4.41-2,7,7,0,0,1,1.3-.19,7.2,7.2,0,0,1,1.31,0c.42,0,.84.06,1.27.11s.9.2,1.35.32a6.6,6.6,0,0,1,1.29.48c.4.2.81.41,1.2.63s.67.48,1,.73l.48.39.4.39a17.94,17.94,0,0,1,3.89,6.18,37.94,37.94,0,0,1,1.78,5.67,97,97,0,0,1,1.86,10.78c.85,7.08,1.28,14,1.64,21S748,242,748.2,249l.85,41.42c.67,27.57,1.57,55.11,3.53,82.61s4.72,54.95,8.73,82.29c-5.84-27-10.06-54.38-13.26-81.87s-5.28-55.11-6.77-82.73l-2.22-41.36c-.39-6.88-.76-13.74-1.26-20.57s-1.1-13.63-2.06-20.24a86.21,86.21,0,0,0-1.88-9.57,29.22,29.22,0,0,0-1.4-4.18,8.14,8.14,0,0,0-1.55-2.54l-.06-.07h0a.08.08,0,0,1,0,0c0,.08.06,0,.12.09a.19.19,0,0,0,.1,0s0,0,0,0,0,0,0,0,0,0,0,0,0,.05-.23.18a2.81,2.81,0,0,0-.36.35,4.57,4.57,0,0,0-.45.54,16.7,16.7,0,0,0-1.86,3.34,37.48,37.48,0,0,0-1.56,4.27,87.56,87.56,0,0,0-2.29,9.45c-.63,3.24-1.17,6.55-1.63,9.89-.92,6.67-1.59,13.44-2.1,20.23-2,27.23-2.16,54.77-2,82.27s.9,55.06,1.83,82.61q3,82.61,8.35,165.2l.65,10.07L720,577c-31-12-62.2-23.86-93.48-35.06-7.81-2.8-15.64-5.58-23.47-8.15-3.91-1.28-7.84-2.52-11.67-3.57l-1.44-.38-1.37-.32c-.46-.11-.93-.22-1.28-.27l-.58-.09-.29-.06h-.18a7.77,7.77,0,0,0-3.6.82,25.13,25.13,0,0,0-4.46,2.67,56.45,56.45,0,0,0-4.51,3.63c-3,2.61-5.93,5.49-9,8.4s-6.09,5.86-9.56,8.67a50.29,50.29,0,0,1-5.63,4,22.1,22.1,0,0,1-7.25,2.89,16.72,16.72,0,0,1-8.31-.7,29.46,29.46,0,0,1-6.54-3.19,94.19,94.19,0,0,1-10.37-8c-3.19-2.74-6.28-5.45-9.45-7.94a55.07,55.07,0,0,0-9.77-6.41l-.32-.16-.17-.07a1.39,1.39,0,0,0-.36-.12,1.12,1.12,0,0,0-.37-.09,1.84,1.84,0,0,0-.41,0,6.25,6.25,0,0,0-2,.21,18,18,0,0,0-4.7,2.2,64.19,64.19,0,0,0-9.23,7.41c-5.94,5.58-11.52,11.75-17.18,17.87s-11.34,12.32-17.72,18a51.81,51.81,0,0,1-10.6,7.48,21.9,21.9,0,0,1-3.16,1.26c-.54.15-1.09.3-1.63.43s-1.1.22-1.65.3a33.44,33.44,0,0,1-6.54.29,67.81,67.81,0,0,1-24.42-6.65A72.82,72.82,0,0,1,376.76,568.15Z"/><rect x="754.42" y="460.31" width="27.12" height="59.66" transform="translate(-78.59 153.46) rotate(-10.86)"/><path class="cls-5" d="M779.92,577.63l.85-6.87-3-3.85-8.82-45.57,11.29-2,9.6,45.32-1,5.51,2.88,4.54C790.43,588,786.62,590,779.92,577.63Z"/><path d="M422.22,210.06c-3.86-1-7.73-1.94-11.63-2.63A116.91,116.91,0,0,0,398.85,206a97.93,97.93,0,0,0-11.74-.17,107.28,107.28,0,0,0-11.62,1.13,89.22,89.22,0,0,0-11.29,2.49,90.38,90.38,0,0,0-10.7,4.08c-7,3.22-13.76,7.18-20.75,11.11-3.49,2-7.06,3.92-10.76,5.72-.91.47-1.85.89-2.78,1.33-.48.21-.91.43-1.43.65l-1.6.62a37.45,37.45,0,0,1-6.61,1.94,46,46,0,0,1-13.43.33,96.24,96.24,0,0,1-12.42-2.33c-4-1-7.78-2-11.49-2.83a64.89,64.89,0,0,0-10.75-1.57c-.85,0-1.74-.05-2.54,0a20.71,20.71,0,0,0-2.32.19,33.27,33.27,0,0,0-4.9,1.07,108.85,108.85,0,0,0-10.52,4l.48-.22c-3.64,1.88-7.47,4.17-12,6.16a39.32,39.32,0,0,1-7.46,2.48,24.28,24.28,0,0,1-8.92.31l.71.08a315.58,315.58,0,0,1-35.74-4c-11.79-2-23.43-4.53-34.94-7.33s-22.91-5.91-34.22-9.09l-17-4.71L83.71,215l-8.46-2.27,7.22-6.08.14,2.53.07,1.25,0,.6,0,.28v.09s0,0,0,0v-.11l0-.14-.07-.33c0-.16-.08-.32-.13-.47s-.11-.31-.18-.46c-.17-.33.25.42-.42-.8.5-5.07-14.78.29-10.49,1.89l-.06.3v.11l0,.22c0,.12,0,.35,0,.38v.19h0v-.37l0-.6L71.21,210l-.07-1.2,0-.54V208s0,0,0,0l0,.16.07.31c.06.22.13.43.21.64l.07.16.08.16a6,6,0,0,0,.46.8,5.76,5.76,0,0,0,3.2,2.21l7-5.93q.54,8.85.92,17.74t.47,17.78c.13,11.86-.1,23.75-.91,35.61-.19,3-.43,5.95-.72,8.91l-.91,8.78c-.59,5.85-1.13,11.74-1.89,17.63s-1.73,11.75-3,17.55a128,128,0,0,1-5,17A154.25,154.25,0,0,0,74,330.2c.63-5.82.94-11.67,1.1-17.52s.24-11.72.3-17.62l.13-8.85,0-8.74c-.11-11.67-.63-23.34-1.44-35-.4-5.83-.89-11.66-1.41-17.48S71.64,213.32,71,207.5l-.82-7.72,7.86,1.78a5.73,5.73,0,0,1,3.21,2.23,6.15,6.15,0,0,1,.47.8l.08.17.07.16c.08.23.16.45.22.68l.09.39.06.32,0,.34.06.44.08.73.13,1.34.11,1.33,0,.67,0,.37v.69a3.91,3.91,0,0,1,0,.41l0,.23,0,.12,0,.3c4.29,1.6-11,7-10.5,1.89-.67-1.22-.25-.47-.42-.8a3.8,3.8,0,0,1-.18-.47c0-.16-.1-.32-.14-.49l-.07-.34,0-.17,0-.19,0-.17,0-.22,0-.36-.06-.67-.12-1.3-.23-2.56-.7-7.91L78,201.35l8.64,2,8.61,2.06,17.12,4.3c11.39,2.84,22.71,5.79,34.06,8.4s22.69,5.07,34.08,7a330.8,330.8,0,0,0,34.25,4.1l.42,0,.29.05a11,11,0,0,0,4.09-.13,25.85,25.85,0,0,0,4.95-1.59c3.52-1.47,7.25-3.59,11.41-5.6l.31-.16.17-.06a118.78,118.78,0,0,1,11.94-4.12,45,45,0,0,1,6.8-1.29,31.05,31.05,0,0,1,3.63-.2c1.19,0,2.29.11,3.43.17a76,76,0,0,1,12.78,2.3c4,1.06,7.86,2.23,11.6,3.31,7.45,2.2,14.6,3.71,21.3,2.87a28.72,28.72,0,0,0,4.89-1.16l1.21-.39c.41-.13.89-.35,1.32-.51.9-.37,1.8-.71,2.68-1.1,3.54-1.5,7.07-3.16,10.64-4.88,7.12-3.43,14.38-7.07,22.11-9.93a82.61,82.61,0,0,1,11.93-3.48,96.83,96.83,0,0,1,12.23-1.6,101.7,101.7,0,0,1,12.22-.08,97.23,97.23,0,0,1,12.07,1.45A105.16,105.16,0,0,1,422.22,210.06Z"/><rect x="63.9" y="600.56" width="667.1" height="62.37"/><line class="cls-6" x1="777.78" y1="563.27" x2="788" y2="561.41"/><line class="cls-6" x1="776.01" y1="551.65" x2="782.8" y2="551.11"/><path class="cls-7" d="M464.06,136.57c-3.62,27.21-7.22,57.08-12.54,90.18l-7.6,27.94,80.75,22,7.42-27.28c9.73-27,22.12-53.22,36.52-88.65-15.83,25.62-29.25,43-42.43,53.47-7.07-13.63-4.68-52.77-3.33-88.78-16.62,28.34-34.33,66.38-48.58,76.08C468.69,189.27,466.66,164.76,464.06,136.57Z"/><circle class="cls-7" cx="463.22" cy="137.52" r="18.98"/><circle class="cls-7" cx="570.33" cy="160.57" r="18.98"/><circle class="cls-7" cx="524.23" cy="119.89" r="18.98"/><line x1="451.23" y1="227.83" x2="531.8" y2="250.45"/><polygon class="cls-4" points="452.88 221.95 531.8 250.45 449.58 233.7 452.88 221.95"/><path d="M103.26,204.33l2.58-1.54V176.52l-2.19-1.42h4.85l-.84,12.23,6.3-10.5-2.54-1.73h6.17l-2.48,1.73-5.68,9.3,5.89,16.31,2.66,1.89h-6.21l2.74-2-6.93-13.61-1.06,15.61Z"/><path d="M118.81,204.33l3.14-1.54L121.18,185l-3.42-1.51H127L123.44,185l-.6,17.82,3,1.54Zm.64-24.27c0-.34.27-.62.82-.86a5.24,5.24,0,0,1,2-.35,5.42,5.42,0,0,1,2.07.35c.55.24.82.52.82.86s-.27.61-.8.84a5.39,5.39,0,0,1-2.09.35,5.33,5.33,0,0,1-2.07-.34C119.72,180.69,119.45,180.4,119.45,180.06Z"/><path d="M127.19,204.33l2.63-1.54V184.9l-2.63-1.44h3.87l.16,5.41a11.44,11.44,0,0,1,1.76-4.24,3.14,3.14,0,0,1,2.52-1.5q2.16,0,3.65,2.74a14.51,14.51,0,0,1,1.49,7,16.13,16.13,0,0,1-.87,5.44,14,14,0,0,1-2.73,4.55l3.56,1.5h-5.75a14.37,14.37,0,0,0,2.71-5,23.44,23.44,0,0,0,.85-6.78,20,20,0,0,0-.76-6.41c-.5-1.4-1.27-2.1-2.3-2.1s-1.92,1-2.76,3.05a19.21,19.21,0,0,0-1.25,7.3c0,1.6.08,3.23.22,4.9s.37,3.34.67,5.05Z"/><path d="M156.64,183.46,154,184.93V202.6a16.54,16.54,0,0,1-1.29,7.38,4.11,4.11,0,0,1-3.83,2.49,4.21,4.21,0,0,1-2.13-.58,5,5,0,0,1-1.69-1.63l-1.22,2.28v-6.95a16.16,16.16,0,0,0,2.32,4.87,3.51,3.51,0,0,0,2.76,1.3,2.59,2.59,0,0,0,2.53-1.91c.49-1.28.73-3.6.73-7v-2.15a8.77,8.77,0,0,1-1.67,3,2.79,2.79,0,0,1-2.07,1q-2.42,0-3.87-2.88a17.49,17.49,0,0,1-1.45-7.81,16.93,16.93,0,0,1,1.57-7.85q1.56-3,4-3a2.81,2.81,0,0,1,2.25,1.36,10.77,10.77,0,0,1,1.63,3.88l.38-4.91Zm-7.83.65c-1.1,0-1.91.81-2.43,2.45a26.56,26.56,0,0,0-.79,7.59,26.49,26.49,0,0,0,.7,7.39c.46,1.41,1.22,2.11,2.3,2.11s2-1,2.75-2.91a20.27,20.27,0,0,0,1.15-7.38,16.72,16.72,0,0,0-1.16-6.53C150.56,185,149.72,184.11,148.81,184.11Z"/><path d="M175,175.1l-2.46,1.42V203l2,1.31h-5.21l-3.07-14.23-6.18,14.23h-3.26l2.58-1.54V176.52l-2.25-1.42h4.95l-1.77,25.14,5.76-16.4L170,202.6l1.9-27.5Z"/><path d="M186.25,193.52H178.1a26.83,26.83,0,0,0,.79,7.87c.53,1.51,1.42,2.26,2.68,2.26.79,0,1.51-.58,2.15-1.75a24.59,24.59,0,0,0,1.89-5.71v8.06l-.8-2.88a7.88,7.88,0,0,1-1.58,2.52,2.6,2.6,0,0,1-1.85.78q-2.46,0-3.95-2.86a16.68,16.68,0,0,1-1.5-7.7,17.65,17.65,0,0,1,1.55-7.87q1.54-3.11,3.74-3.11,2,0,3.51,2.68a12.86,12.86,0,0,1,1.52,6.44Zm-2.29-.79v-1.31a15.66,15.66,0,0,0-.74-5.34c-.5-1.32-1.16-2-2-2s-1.69.72-2.21,2.16a21.59,21.59,0,0,0-.91,6.46Z"/><path d="M187,204.33l2.62-1.54V176.52l-2.19-1.42h5.25l3.07,14.25L202,175.1h2.91l-2.27,1.42v26.39l2.27,1.42h-4.93l1.61-25.14-5.6,16.4-3.88-18.76-1.74,27.5Z"/><path d="M211.47,183.13q2.16,0,3.62,3a17.6,17.6,0,0,1,1.46,7.69,18.39,18.39,0,0,1-1.43,7.87c-1,2-2.16,3-3.65,3s-2.69-1-3.65-3a18.45,18.45,0,0,1-1.43-7.85,17.69,17.69,0,0,1,1.46-7.69Q209.32,183.13,211.47,183.13Zm0,.94c-1,0-1.69.78-2.18,2.35a24.77,24.77,0,0,0-.73,6.94,30.44,30.44,0,0,0,.73,7.72c.49,1.74,1.21,2.61,2.18,2.61s1.72-.88,2.23-2.65a29.31,29.31,0,0,0,.76-7.68,24.26,24.26,0,0,0-.75-6.94C213.17,184.85,212.42,184.07,211.43,184.07Z"/><path d="M232.37,183.46,229.7,185V202.6a16.54,16.54,0,0,1-1.29,7.38,4.1,4.1,0,0,1-3.83,2.49,4.33,4.33,0,0,1-2.18-.59,4.68,4.68,0,0,1-1.66-1.62l-1.2,2.28v-6.95a16.29,16.29,0,0,0,2.33,4.86,3.42,3.42,0,0,0,2.71,1.31,2.65,2.65,0,0,0,2.59-1.93q.77-1.94.76-7v-2.15a7.71,7.71,0,0,1-1.62,2.91,3,3,0,0,1-2.2,1q-2.15,0-3.65-2.76a14.53,14.53,0,0,1-1.49-7,16.11,16.11,0,0,1,.86-5.45,14.3,14.3,0,0,1,2.73-4.56L219,183.46h5.74a14.5,14.5,0,0,0-2.71,5,22.81,22.81,0,0,0-.84,6.67,21.37,21.37,0,0,0,.73,6.6c.49,1.36,1.28,2,2.36,2s1.81-.81,2.63-2.42a13.51,13.51,0,0,0,1.3-5.76l.24-12.09Z"/><path d="M238.21,183.13q2.17,0,3.63,3a17.61,17.61,0,0,1,1.45,7.69,18.4,18.4,0,0,1-1.42,7.87q-1.43,3-3.66,3c-1.47,0-2.69-1-3.64-3a18.29,18.29,0,0,1-1.44-7.85,17.54,17.54,0,0,1,1.47-7.69Q236.07,183.13,238.21,183.13Zm0,.94c-1,0-1.69.78-2.18,2.35a24.77,24.77,0,0,0-.73,6.94,30.44,30.44,0,0,0,.73,7.72c.49,1.74,1.22,2.61,2.18,2.61s1.72-.88,2.23-2.65a29.31,29.31,0,0,0,.76-7.68,24.26,24.26,0,0,0-.75-6.94C239.91,184.85,239.16,184.07,238.17,184.07Z"/><path d="M252.58,212.66l2.63-1.5V185.05l-2.79-1.59h3.86l.25,5.93a13,13,0,0,1,1.68-4.69,3.05,3.05,0,0,1,2.55-1.57q2.42,0,3.87,2.87a17.38,17.38,0,0,1,1.46,7.79,17,17,0,0,1-1.57,7.85q-1.57,3-3.9,3a2.59,2.59,0,0,1-2-1.07,9.2,9.2,0,0,1-1.57-3.13l.59,12.19Zm8-28.55c-1.06,0-2,.95-2.74,2.85a19.37,19.37,0,0,0-1.14,7.15,18,18,0,0,0,1.12,6.79c.75,1.84,1.6,2.75,2.55,2.75,1.12,0,1.94-.84,2.47-2.52a28.59,28.59,0,0,0,.79-7.9,24.1,24.1,0,0,0-.71-7C262.49,184.81,261.71,184.11,260.62,184.11Z"/><path d="M267.43,204.33l2.54-1.54V184.9l-2.62-1.44h3.72l.31,5.33a12.27,12.27,0,0,1,1.27-4.31,2.44,2.44,0,0,1,2.15-1.35,2.17,2.17,0,0,1,1.66.7,5.39,5.39,0,0,1,1.09,2.18l.93-2.65v10.12a29.37,29.37,0,0,0-1.74-6.56c-.66-1.45-1.39-2.18-2.2-2.18s-1.6.83-2.16,2.49a21.31,21.31,0,0,0-.84,6.63q0,2.69.21,5.31c.14,1.75.35,3.47.64,5.16Z"/><path d="M290.79,193.52h-8.16a26.74,26.74,0,0,0,.8,7.87c.53,1.51,1.42,2.26,2.67,2.26.8,0,1.52-.58,2.16-1.75a24.59,24.59,0,0,0,1.89-5.71v8.06l-.81-2.88a7.71,7.71,0,0,1-1.58,2.52,2.59,2.59,0,0,1-1.84.78q-2.46,0-4-2.86a16.68,16.68,0,0,1-1.5-7.7,17.65,17.65,0,0,1,1.55-7.87q1.55-3.11,3.74-3.11,2,0,3.51,2.68a12.76,12.76,0,0,1,1.53,6.44Zm-2.29-.79v-1.31a15.39,15.39,0,0,0-.75-5.34c-.49-1.32-1.16-2-2-2s-1.69.72-2.21,2.16a21.92,21.92,0,0,0-.91,6.46Z"/><path d="M301.71,183.24V191a18.42,18.42,0,0,0-1.61-5.3,2.71,2.71,0,0,0-2.29-1.71,2.32,2.32,0,0,0-1.91.83,3.65,3.65,0,0,0-.67,2.36q0,3.3,4.56,6.47l.27.17a6,6,0,0,1,2,2.28,7,7,0,0,1,.65,3.16,5.67,5.67,0,0,1-1.32,3.94,4.49,4.49,0,0,1-3.51,1.47,3.74,3.74,0,0,1-2.51-1,9,9,0,0,1-2.05-3l-.81,3.65V195a21.31,21.31,0,0,0,2.23,6.48c.91,1.51,1.92,2.27,3,2.27a2.12,2.12,0,0,0,2-1,7.14,7.14,0,0,0,.59-3.4,9,9,0,0,0-.6-3.66,5.28,5.28,0,0,0-2-2.23l-.15-.1c-2.94-1.94-4.42-4-4.42-6.12a3.91,3.91,0,0,1,1.21-2.94,4.27,4.27,0,0,1,3.07-1.15,3.23,3.23,0,0,1,2,.6,6.13,6.13,0,0,1,1.53,2.15Z"/><path d="M315,193.52h-8.16a26.74,26.74,0,0,0,.8,7.87c.53,1.51,1.42,2.26,2.67,2.26.8,0,1.52-.58,2.16-1.75a24.59,24.59,0,0,0,1.89-5.71v8.06l-.81-2.88a7.71,7.71,0,0,1-1.58,2.52,2.59,2.59,0,0,1-1.84.78q-2.46,0-4-2.86a16.68,16.68,0,0,1-1.5-7.7,17.65,17.65,0,0,1,1.55-7.87c1-2.07,2.28-3.11,3.74-3.11s2.49.89,3.51,2.68a12.76,12.76,0,0,1,1.53,6.44Zm-2.29-.79v-1.31a15.39,15.39,0,0,0-.75-5.34c-.49-1.32-1.16-2-2-2s-1.69.72-2.21,2.16a22.26,22.26,0,0,0-.91,6.46Z"/><path d="M315.76,204.33l2.62-1.54V184.9l-2.62-1.44h3.86l.16,5.41a11.44,11.44,0,0,1,1.76-4.24,3.14,3.14,0,0,1,2.52-1.5q2.16,0,3.65,2.74a14.51,14.51,0,0,1,1.49,7,16.13,16.13,0,0,1-.87,5.44,14.19,14.19,0,0,1-2.72,4.55l3.55,1.5h-5.74a14.35,14.35,0,0,0,2.7-5,23.1,23.1,0,0,0,.85-6.78,20,20,0,0,0-.76-6.41c-.5-1.4-1.27-2.1-2.3-2.1s-1.92,1-2.75,3.05a19,19,0,0,0-1.25,7.3c0,1.6.07,3.23.21,4.9s.37,3.34.67,5.05Z"/><path d="M342.87,196.53v7.41l-.72-2.65a7.84,7.84,0,0,1-1.75,2.59,3.15,3.15,0,0,1-2.14.79,3.5,3.5,0,0,1-3.18-1.71A10.05,10.05,0,0,1,334,197.8q0-2.31.21-4.8c.14-1.67.35-3.38.64-5.15h-1.94l-1.57,3.61v-7.93l1.61,3.54h2c.48-2.48.9-4.58,1.26-6.33s.65-3.11.89-4.1l-2.75-1.5h7.19l-3.37,1.54q-.6,3.63-.94,6.18c-.22,1.7-.38,3.1-.46,4.21h3.38l1.66-3.54v7.82l-1.66-3.5h-3.47c-.13,1.32-.24,2.72-.31,4.2s-.12,3-.12,4.73a18.07,18.07,0,0,0,.56,5.35c.37,1.07,1,1.6,1.82,1.6s1.64-.59,2.33-1.77A20.56,20.56,0,0,0,342.87,196.53Z"/><path d="M353.07,183.24V191a18.42,18.42,0,0,0-1.61-5.3,2.71,2.71,0,0,0-2.29-1.71,2.32,2.32,0,0,0-1.91.83,3.65,3.65,0,0,0-.67,2.36q0,3.3,4.56,6.47l.27.17a6,6,0,0,1,2,2.28,7,7,0,0,1,.65,3.16,5.67,5.67,0,0,1-1.32,3.94,4.49,4.49,0,0,1-3.51,1.47,3.72,3.72,0,0,1-2.51-1,8.8,8.8,0,0,1-2.05-3l-.81,3.65V195a21.31,21.31,0,0,0,2.23,6.48c.91,1.51,1.91,2.27,3,2.27a2.12,2.12,0,0,0,2-1,7.14,7.14,0,0,0,.59-3.4,9,9,0,0,0-.6-3.66,5.28,5.28,0,0,0-2-2.23.76.76,0,0,0-.15-.1q-4.43-2.91-4.42-6.12a3.88,3.88,0,0,1,1.21-2.94,4.27,4.27,0,0,1,3.07-1.15,3.23,3.23,0,0,1,2,.6,6.13,6.13,0,0,1,1.53,2.15Z"/><path d="M85.66,254.36c6.62-12.89,19.31-20.82,32.9-24.79,13.9-4.06,29.15-4,43.37-2,2.09.3,4.2.67,6.31,1.1l-.08-.17a6,6,0,0,0-6.75-3.19,25.59,25.59,0,0,0-2.34-2.58,15,15,0,0,0-1.51-1.15c-2.35,0-4.72.13-7.09.07A62,62,0,0,1,140,220.24l-.09,4.65c-.5-.36-1-.71-1.55-1a43.53,43.53,0,0,0-7.3-3.38c-3-1.15-4.29-1.48-5.74-2.61,0-.12-.06-.25-.08-.37a56,56,0,0,1-11.57-3.56c-8.55-3.81-18.07-3.82-27.3-4.84-2.47-.27-4.93-.53-7.37-.84.25.48.52,1,.77,1.43a6.4,6.4,0,0,0-1.48,4.24l0,19.76a6.28,6.28,0,0,0,2,4.8A74.75,74.75,0,0,0,81.68,247q-2,4.24-4,8.54a8,8,0,0,1-.07,1.08c-1.28,8.72.4,17.33,1.09,26C79.42,272.83,81.17,263.13,85.66,254.36Z"/><path class="cls-4" d="M731.08,191.24c-.36.54-.68,1.1-1,1.67a2.29,2.29,0,0,1,2.06,1.39,1.76,1.76,0,0,1,.3.24,23,23,0,0,1,.48-2.45,11.67,11.67,0,0,1,2.66-5.25A12.66,12.66,0,0,0,731.08,191.24Z"/><path d="M129.73,276.13l0,0a6,6,0,0,0-1.74-.9,6,6,0,0,0-2.62-1.11c-.2-.06-.39-.14-.61-.19a6.34,6.34,0,0,0-2.27-.77,7.08,7.08,0,0,0-1.85-.31,7.22,7.22,0,0,0-2.31-.36c-.11,0-.21,0-.32,0a6.08,6.08,0,0,0-.61,0c-8.5,0-8.72,12.86-.65,13.52a6.41,6.41,0,0,0,2.08.47,6.7,6.7,0,0,0,.8.11,6.12,6.12,0,0,0,1.19.36l.23.13a6.09,6.09,0,0,0,5.77,3.5,6.35,6.35,0,0,0,6.52-6.19C134.13,281.24,132.94,277.49,129.73,276.13Z"/><path d="M43.34,309a7.77,7.77,0,0,0-.16-1.52,7.42,7.42,0,0,0-.18-.94,7.9,7.9,0,0,0-.11-.85c.15-3.5-2-7.11-6.53-7.11a6.15,6.15,0,0,0-6.16,4.43,7.74,7.74,0,0,0-.61,4.7h0a7.77,7.77,0,0,0,.37,2.8,7.41,7.41,0,0,0,1,3.09,6.1,6.1,0,0,0,6,4c4.47,0,6.65-3.57,6.54-7A8.16,8.16,0,0,0,43.34,309Z"/><path class="cls-8" d="M100.65,637.81l-1.48,1.12a4.58,4.58,0,0,1-1.13.61,12.77,12.77,0,0,1-1.47.45,14,14,0,0,1-1.68.28,16.72,16.72,0,0,1-1.7.09H91.43a5.89,5.89,0,0,1-3.53-1.09,3.18,3.18,0,0,1-1.47-2.68V619.66A3.31,3.31,0,0,1,87.9,617a5.72,5.72,0,0,1,3.53-1.12h1.76a14.14,14.14,0,0,1,1.66.11,15.05,15.05,0,0,1,1.7.3,9.35,9.35,0,0,1,1.49.45,4.58,4.58,0,0,1,1.13.61l1.48,1.09L98.6,620l-1.48-1.12a3.91,3.91,0,0,0-1.55-.5,10.56,10.56,0,0,0-2.38-.28H91.43a2.35,2.35,0,0,0-1.46.45,1.36,1.36,0,0,0-.59,1.11v5.11h4.38V627H89.38v9.57A1.36,1.36,0,0,0,90,637.7a2.35,2.35,0,0,0,1.46.45h1.76a10.63,10.63,0,0,0,1.25-.08c.42-.05.81-.11,1.17-.19a6.36,6.36,0,0,0,.94-.25,1.65,1.65,0,0,0,.57-.29l1.48-1.09Z"/><path class="cls-9" d="M151.9,640.36H149V621.87a4.38,4.38,0,0,0-.11-.94,6.87,6.87,0,0,0-.24-.87,3.44,3.44,0,0,0-.35-.72,1.9,1.9,0,0,0-.37-.43,3.73,3.73,0,0,0-1.35-.55,8.28,8.28,0,0,0-2-.26,7.68,7.68,0,0,0-2,.25,3.85,3.85,0,0,0-1.34.53,1.39,1.39,0,0,0-.39.43,3.65,3.65,0,0,0-.32.74,7.53,7.53,0,0,0-.25.88,4.36,4.36,0,0,0-.1.94v18.49h-2.91V621.87a7.12,7.12,0,0,1,.49-2.59,4.33,4.33,0,0,1,1.39-2,6.7,6.7,0,0,1,2.46-1.08,12.16,12.16,0,0,1,2.95-.39,11,11,0,0,1,1.5.11,12.68,12.68,0,0,1,1.49.3,7.91,7.91,0,0,1,1.35.45,5.17,5.17,0,0,1,1.07.61,3.62,3.62,0,0,1,.8.85,6,6,0,0,1,.59,1.13,6.57,6.57,0,0,1,.39,1.28,5.81,5.81,0,0,1,.15,1.29Z"/><path class="cls-10" d="M195.85,618.1v22.26H192.9V618.1h-4.38v-2.25h11.72v2.25Z"/><path class="cls-4" d="M251.08,637.81l-1.48,1.12a4.77,4.77,0,0,1-1.13.61A12.77,12.77,0,0,1,247,640a14,14,0,0,1-1.68.28,16.72,16.72,0,0,1-1.7.09h-1.76a5.87,5.87,0,0,1-3.53-1.09,3.18,3.18,0,0,1-1.47-2.68V619.66a3.31,3.31,0,0,1,1.47-2.69,5.72,5.72,0,0,1,3.53-1.12h1.76a14.14,14.14,0,0,1,1.66.11,15.05,15.05,0,0,1,1.7.3,9.68,9.68,0,0,1,1.49.45,4.77,4.77,0,0,1,1.13.61l1.48,1.09L249,620l-1.48-1.12a3.91,3.91,0,0,0-1.55-.5,10.56,10.56,0,0,0-2.38-.28h-1.76a2.35,2.35,0,0,0-1.46.45,1.36,1.36,0,0,0-.59,1.11v5.11h4.38V627h-4.38v9.57a1.36,1.36,0,0,0,.59,1.11,2.35,2.35,0,0,0,1.46.45h1.76a10.63,10.63,0,0,0,1.25-.08c.42-.05.81-.11,1.17-.19a6.36,6.36,0,0,0,.94-.25,1.65,1.65,0,0,0,.57-.29l1.48-1.09Z"/><path class="cls-4" d="M301.81,628.22a7.14,7.14,0,0,1,.52,2.57v9.57h-2.91v-9.57a4.38,4.38,0,0,0-.11-.94,6.87,6.87,0,0,0-.24-.87,3.44,3.44,0,0,0-.35-.72,1.9,1.9,0,0,0-.37-.43,2.13,2.13,0,0,0-.57-.28,5.52,5.52,0,0,0-.94-.27c-.36-.07-.75-.13-1.17-.19a10.71,10.71,0,0,0-1.25-.07h-3.81v13.34H287.7v-20.7a3.41,3.41,0,0,1,1.43-2.69,5.5,5.5,0,0,1,3.53-1.12h1.76a14.52,14.52,0,0,1,1.7.11,15.05,15.05,0,0,1,1.7.3,9.68,9.68,0,0,1,1.49.45,4.77,4.77,0,0,1,1.13.61,4.62,4.62,0,0,1,.76.82,5.67,5.67,0,0,1,.59,1.05,5.9,5.9,0,0,1,.39,1.14,4.34,4.34,0,0,1,.15,1.1,5.77,5.77,0,0,1-.5,2.28,4.39,4.39,0,0,1-1.39,1.84l-.53.34.53.32A4.56,4.56,0,0,1,301.81,628.22Zm-4.95-3.7a4.84,4.84,0,0,0,1.49-.5,2.66,2.66,0,0,0,.72-1,3.54,3.54,0,0,0,0-3.07,2.34,2.34,0,0,0-.72-1,2.17,2.17,0,0,0-.57-.27,8.44,8.44,0,0,0-.94-.25c-.36-.07-.75-.13-1.17-.19a10.71,10.71,0,0,0-1.25-.07h-1.76a2.35,2.35,0,0,0-1.46.45,1.36,1.36,0,0,0-.59,1.11v5.11h3.81A11.15,11.15,0,0,0,296.86,624.52Z"/><path class="cls-4" d="M346.28,618.1v22.26h-2.95V618.1H339v-2.25h11.72v2.25Z"/><path class="cls-4" d="M401.92,640.36H399V627H390.2v13.34h-2.91V621.87a7.12,7.12,0,0,1,.49-2.59,4.33,4.33,0,0,1,1.39-2,6.7,6.7,0,0,1,2.46-1.08,12.16,12.16,0,0,1,2.95-.39,11,11,0,0,1,1.5.11,12.68,12.68,0,0,1,1.49.3,8.34,8.34,0,0,1,1.36.45,5.36,5.36,0,0,1,1.06.61,3.62,3.62,0,0,1,.8.85,6,6,0,0,1,.59,1.13,7.33,7.33,0,0,1,.39,1.28,5.81,5.81,0,0,1,.15,1.29ZM399,621.87a4.38,4.38,0,0,0-.11-.94,6.87,6.87,0,0,0-.24-.87,3.44,3.44,0,0,0-.35-.72,1.9,1.9,0,0,0-.37-.43,3.73,3.73,0,0,0-1.35-.55,8.28,8.28,0,0,0-2-.26,7.81,7.81,0,0,0-2,.25,3.87,3.87,0,0,0-1.33.53,1.39,1.39,0,0,0-.39.43,3.65,3.65,0,0,0-.32.74,7.53,7.53,0,0,0-.25.88,4.36,4.36,0,0,0-.1.94v2.9H399Z"/><path class="cls-4" d="M445.87,638.15h4.38v2.21H438.54v-2.21h4.38v-20h-4.38v-2.25h11.71v2.25h-4.38Z"/><path class="cls-4" d="M501.5,640.36h-2.9V621.87a4.38,4.38,0,0,0-.11-.94q-.11-.46-.24-.87a3.44,3.44,0,0,0-.35-.72,1.9,1.9,0,0,0-.37-.43,3.73,3.73,0,0,0-1.35-.55,8.28,8.28,0,0,0-2-.26,7.81,7.81,0,0,0-2,.25,3.87,3.87,0,0,0-1.33.53,1.39,1.39,0,0,0-.39.43,3.65,3.65,0,0,0-.32.74,7.53,7.53,0,0,0-.25.88,4.36,4.36,0,0,0-.1.94v18.49h-2.91V621.87a7.12,7.12,0,0,1,.49-2.59,4.33,4.33,0,0,1,1.39-2,6.7,6.7,0,0,1,2.46-1.08,12.16,12.16,0,0,1,2.95-.39,11,11,0,0,1,1.5.11,12.68,12.68,0,0,1,1.49.3,8.22,8.22,0,0,1,1.35.45,5.17,5.17,0,0,1,1.07.61,3.62,3.62,0,0,1,.8.85,6,6,0,0,1,.59,1.13,6.57,6.57,0,0,1,.39,1.28,5.79,5.79,0,0,1,.14,1.29Z"/><path class="cls-4" d="M558.61,640.36H555.7V621.87a4.36,4.36,0,0,0-.1-.94q-.11-.46-.24-.87a4,4,0,0,0-.35-.72,2.92,2.92,0,0,0-.37-.46,4.23,4.23,0,0,0-1-.53,2.71,2.71,0,0,0-.91-.25,2.79,2.79,0,0,0-.86.23,4.42,4.42,0,0,0-1,.51,1.56,1.56,0,0,0-.39.49,5.27,5.27,0,0,0-.33.75c-.09.28-.17.57-.24.89a4.1,4.1,0,0,0-.11.9v18.49H546.9V621.87a5.2,5.2,0,0,0-.33-1.86,2.52,2.52,0,0,0-.7-1.13,3.85,3.85,0,0,0-1-.53,2.67,2.67,0,0,0-.9-.25,2.72,2.72,0,0,0-.86.23,4.52,4.52,0,0,0-1,.51,3,3,0,0,0-.73,1.25,5.15,5.15,0,0,0-.37,1.78v18.49h-2.91V621.87a7.56,7.56,0,0,1,.12-1.33,6.55,6.55,0,0,1,.37-1.26,6.24,6.24,0,0,1,.57-1.09,3.42,3.42,0,0,1,.74-.81,8,8,0,0,1,2-1.09,5.68,5.68,0,0,1,2.09-.44,5.84,5.84,0,0,1,2.09.45,8,8,0,0,1,1.88,1l.41.37.41-.37a7.78,7.78,0,0,1,1.88-1,5.13,5.13,0,0,1,4.18,0,7.49,7.49,0,0,1,1.93,1.08,3.2,3.2,0,0,1,.76.79,6,6,0,0,1,.59,1.13,6.54,6.54,0,0,1,.37,1.28,7.2,7.2,0,0,1,.12,1.29Z"/><path class="cls-4" d="M609.45,637.81,608,638.93a4.77,4.77,0,0,1-1.13.61,12.77,12.77,0,0,1-1.47.45,14.71,14.71,0,0,1-1.68.28,16.87,16.87,0,0,1-1.7.09h-1.76a5.87,5.87,0,0,1-3.53-1.09,3.18,3.18,0,0,1-1.47-2.68V619.66a3.31,3.31,0,0,1,1.47-2.69,5.72,5.72,0,0,1,3.53-1.12H602a14.28,14.28,0,0,1,1.66.11,15.46,15.46,0,0,1,1.7.3,9.68,9.68,0,0,1,1.49.45,4.77,4.77,0,0,1,1.13.61l1.47,1.09L607.4,620l-1.47-1.12a4,4,0,0,0-1.56-.5,10.48,10.48,0,0,0-2.37-.28h-1.76a2.35,2.35,0,0,0-1.46.45,1.33,1.33,0,0,0-.59,1.11v5.11h4.38V627h-4.38v9.57a1.33,1.33,0,0,0,.59,1.11,2.35,2.35,0,0,0,1.46.45H602a10.76,10.76,0,0,0,1.25-.08,11.24,11.24,0,0,0,1.16-.19,6.51,6.51,0,0,0,1-.25,1.65,1.65,0,0,0,.57-.29l1.47-1.09Z"/><path class="cls-4" d="M660.7,640.36h-2.91V621.87a4.36,4.36,0,0,0-.1-.94q-.11-.46-.24-.87a4,4,0,0,0-.35-.72,1.9,1.9,0,0,0-.37-.43,3.73,3.73,0,0,0-1.35-.55,8.4,8.4,0,0,0-2-.26,7.75,7.75,0,0,0-2,.25,3.87,3.87,0,0,0-1.33.53,1.18,1.18,0,0,0-.39.43,4.3,4.3,0,0,0-.33.74c-.09.28-.17.57-.24.88a4.36,4.36,0,0,0-.1.94v18.49h-2.91V621.87a7.12,7.12,0,0,1,.49-2.59,4.33,4.33,0,0,1,1.39-2,6.7,6.7,0,0,1,2.46-1.08,12.16,12.16,0,0,1,3-.39,10.78,10.78,0,0,1,1.49.11,12.44,12.44,0,0,1,1.5.3,8.22,8.22,0,0,1,1.35.45,5.17,5.17,0,0,1,1.07.61,3.83,3.83,0,0,1,.8.85,6,6,0,0,1,.59,1.13,8.3,8.3,0,0,1,.39,1.28,6.44,6.44,0,0,1,.14,1.29Z"/><path class="cls-4" d="M704.66,618.1v22.26h-2.95V618.1h-4.38v-2.25H709v2.25Z"/><path d="M133.69,722.08q-5.7,9.07-7.2,11.6a10.19,10.19,0,0,0-1.51,3.24q0,.69.63.69,1.38,0,4.71-4.84c.06-.1.12-.15.17-.15a.08.08,0,0,1,.09.09,2.08,2.08,0,0,1-.15.25l-.66.9q-2.88,4-4.25,4a1.45,1.45,0,0,1-1.15-.53,2,2,0,0,1-.44-1.35,4.28,4.28,0,0,1,.55-1.9q-2.67,3.78-4,3.78a1.63,1.63,0,0,1-1.35-.7,2.69,2.69,0,0,1-.55-1.74q0-2.5,3.12-4.55a8,8,0,0,1,3.9-1.63c.63,0,.94.3.94.91a2.24,2.24,0,0,1-.26,1l5.44-9.11a3.11,3.11,0,0,0,1,.16Zm-7.34,8.17c0-.53-.25-.8-.74-.8-.92,0-2.12.91-3.62,2.73s-2.25,3.29-2.25,4.41q0,1,.84,1,1.22,0,4.19-4.23A7.63,7.63,0,0,0,126.35,730.25Z"/><path d="M138.28,732.73a1.81,1.81,0,0,1-.27.39l-.66.82q-3.15,3.9-5.41,3.9a2.37,2.37,0,0,1-1.79-.77,2.73,2.73,0,0,1-.72-1.93c0-1.83,1.27-3.43,3.82-4.83a7.34,7.34,0,0,1,3.27-1.09,1.45,1.45,0,0,1,.94.32,1,1,0,0,1,.39.8c0,.74-.48,1.36-1.43,1.87a19.05,19.05,0,0,1-4.78,1.44,5.12,5.12,0,0,0-1,2.62c0,.87.47,1.31,1.42,1.31q2.4,0,5.9-4.7.18-.24.3-.24A.08.08,0,0,1,138.28,732.73ZM137,729.9q0-.48-.54-.48a3.77,3.77,0,0,0-2.12,1.12,15.27,15.27,0,0,0-2.58,2.9,11.81,11.81,0,0,0,3.71-1.6C136.49,731.16,137,730.51,137,729.9Z"/><path d="M143.42,726.8c0,.41-.63,1.21-1.9,2.42a4.44,4.44,0,0,0-.09.82,8.51,8.51,0,0,0,.8,2.8,4.21,4.21,0,0,1,.42,1.62,2.92,2.92,0,0,1-1.34,2.37,5.08,5.08,0,0,1-3.16,1,2.3,2.3,0,0,1-1.65-.59,2.09,2.09,0,0,1-.62-1.58,3.68,3.68,0,0,1,.82-2.22,2.2,2.2,0,0,1,1.68-1.08.64.64,0,0,1,.28.06l1.21-1.49c.37-.44.86-1,1.47-1.81a5.26,5.26,0,0,1,.79-1.83c.35-.51.7-.76,1.05-.76C143.34,726.54,143.42,726.63,143.42,726.8Zm-2.11,6q0-.45,0-.9c0-.3,0-.73,0-1.29a8.9,8.9,0,0,1,.06-1.14c-.57.72-1.39,1.73-2.47,3a.76.76,0,0,1,.29.6c0,.59-.49,1-1.48,1.21a2,2,0,0,0-1,.65,1.63,1.63,0,0,0-.43,1.07,1.38,1.38,0,0,0,.44,1,1.58,1.58,0,0,0,1.1.41,3.19,3.19,0,0,0,2.43-1.49A5.15,5.15,0,0,0,141.31,732.81Z"/><path d="M149.57,732.71a1.56,1.56,0,0,1-.16.25l-.65.9q-2.87,4-4.38,4a1.57,1.57,0,0,1-1.19-.51,1.8,1.8,0,0,1-.48-1.28,6.2,6.2,0,0,1,1-2.67l2.37-4a3.84,3.84,0,0,0,.75.11,9.23,9.23,0,0,0,1.16-.11L144.58,735a4.17,4.17,0,0,0-.75,1.9q0,.69.72.69,1.37,0,4.77-4.84c.05-.1.1-.15.16-.15A.08.08,0,0,1,149.57,732.71Zm-.22-6.29a1.41,1.41,0,0,1-.45,1,1.36,1.36,0,0,1-1,.47.61.61,0,0,1-.68-.69,1.37,1.37,0,0,1,.47-1,1.43,1.43,0,0,1,1-.47A.58.58,0,0,1,149.35,726.42Z"/><path d="M160,732.73a9.92,9.92,0,0,1-1.64,2.08,18,18,0,0,1-4.78,3.64l-.76,1.38a19.15,19.15,0,0,1-4.64,5.89q-2.48,2-4.27,2a1.52,1.52,0,0,1-1.08-.4,1.28,1.28,0,0,1-.42-1q0-3.12,7.05-6.34c1-.46,1.67-.78,2-.94L154,734.3a26.89,26.89,0,0,1-2.38,2.89,2.1,2.1,0,0,1-1.43.65,1.68,1.68,0,0,1-1.34-.7,2.68,2.68,0,0,1-.56-1.71q0-2.64,3.44-4.78a7.71,7.71,0,0,1,3.61-1.43c.61,0,.91.33.91,1a2,2,0,0,1-.13.66l.85-1.54a2.94,2.94,0,0,0,.72.11,9.27,9.27,0,0,0,1.15-.11c-.07.09-.51.85-1.34,2.28l-3.77,6.52a19.21,19.21,0,0,0,3.19-2.17,21.89,21.89,0,0,0,2.7-3q.23-.3.3-.3A.08.08,0,0,1,160,732.73Zm-8.73,6.6c-.19.11-.77.4-1.72.87q-6.94,3.43-6.94,6.18a1,1,0,0,0,.35.79,1.28,1.28,0,0,0,.89.32,4.49,4.49,0,0,0,3.26-1.71,32.35,32.35,0,0,0,4-6.15Zm4.83-9.11a.67.67,0,0,0-.75-.77q-1.37,0-3.63,2.73t-2.26,4.41c0,.68.29,1,.88,1s1.62-.9,3.05-2.71C155.2,732.61,156.11,731.06,156.11,730.22Z"/><path d="M172.24,732.71a14.53,14.53,0,0,1-2.21,3c-1.21,1.44-2.16,2.17-2.85,2.17a1.45,1.45,0,0,1-1.15-.54,1.91,1.91,0,0,1-.47-1.31,3,3,0,0,1,.28-1.27,24.7,24.7,0,0,1,1.47-2.32,6.55,6.55,0,0,0,1.24-2.33c0-.42-.22-.62-.66-.62q-2.22,0-6.85,8.25l-.9-.06a7.91,7.91,0,0,0-1,.06l2.37-3.76q2-3.23,2-4c0-.3-.13-.45-.38-.45q-.78,0-3.07,3.28-.14.19-.21.21a.09.09,0,0,1-.1-.09.19.19,0,0,1,.07-.12l.28-.38q2.34-3.14,3.15-3.13a1.09,1.09,0,0,1,.88.47,1.75,1.75,0,0,1,.37,1.13,5.61,5.61,0,0,1-1.14,2.71,25.38,25.38,0,0,1,2.76-3.4,2.72,2.72,0,0,1,1.79-.91,1.41,1.41,0,0,1,1.13.55,2,2,0,0,1,.45,1.35,6.68,6.68,0,0,1-1.4,3.12,7.94,7.94,0,0,0-1.43,2.74.55.55,0,0,0,.62.63q1.37,0,4.69-4.84.08-.15.15-.15A.08.08,0,0,1,172.24,732.71Z"/><path d="M179.92,732.73a2.15,2.15,0,0,1-.28.39l-.65.82c-2.11,2.6-3.91,3.9-5.42,3.9a2.38,2.38,0,0,1-1.79-.77,2.73,2.73,0,0,1-.72-1.93c0-1.83,1.27-3.43,3.82-4.83a7.34,7.34,0,0,1,3.28-1.09,1.44,1.44,0,0,1,.93.32,1,1,0,0,1,.39.8c0,.74-.48,1.36-1.43,1.87a18.91,18.91,0,0,1-4.78,1.44,5.12,5.12,0,0,0-1,2.62c0,.87.48,1.31,1.42,1.31,1.61,0,3.57-1.57,5.9-4.7q.18-.24.3-.24A.09.09,0,0,1,179.92,732.73Zm-1.29-2.83c0-.32-.18-.48-.53-.48a3.76,3.76,0,0,0-2.13,1.12,15.27,15.27,0,0,0-2.58,2.9,12,12,0,0,0,3.72-1.6C178.12,731.16,178.63,730.51,178.63,729.9Z"/><path d="M193.73,722.08q-5.7,9.07-7.2,11.6a10.45,10.45,0,0,0-1.51,3.24q0,.69.63.69,1.38,0,4.71-4.84c.06-.1.12-.15.17-.15a.08.08,0,0,1,.09.09,2.08,2.08,0,0,1-.15.25l-.66.9q-2.88,4-4.25,4a1.45,1.45,0,0,1-1.15-.53A2,2,0,0,1,184,736a4.42,4.42,0,0,1,.55-1.9q-2.67,3.78-4,3.78a1.63,1.63,0,0,1-1.35-.7,2.69,2.69,0,0,1-.55-1.74q0-2.5,3.12-4.55a8,8,0,0,1,3.9-1.63c.63,0,.94.3.94.91a2.1,2.1,0,0,1-.26,1L191.8,722a3.11,3.11,0,0,0,1,.16Zm-7.34,8.17c0-.53-.24-.8-.74-.8-.92,0-2.12.91-3.62,2.73s-2.24,3.29-2.24,4.41c0,.68.27,1,.83,1q1.22,0,4.19-4.23A7.5,7.5,0,0,0,186.39,730.25Z"/><path d="M204.33,722.11l-6.84,10.79a24.3,24.3,0,0,1,2.4-2.94,2.28,2.28,0,0,1,1.5-.74,1.7,1.7,0,0,1,1.4.69,2.74,2.74,0,0,1,.54,1.74c0,1.54-1,3-2.93,4.53a6.74,6.74,0,0,1-3.86,1.66,1.59,1.59,0,0,1-1.29-.6,2.42,2.42,0,0,1-.5-1.57,7.77,7.77,0,0,1,1.47-3.48l6.3-10.11a3.12,3.12,0,0,0,.88.12A6,6,0,0,0,204.33,722.11Zm-2.12,8.36c0-.68-.28-1-.85-1q-1.11,0-3.79,3.67c-1.34,1.82-2,3-2,3.68a.71.71,0,0,0,.79.81c.92,0,2.12-.91,3.62-2.73S202.21,731.58,202.21,730.47Z"/><path d="M214,732.73a10.41,10.41,0,0,1-1.68,2.08,18.39,18.39,0,0,1-4.85,3.68l-.74,1.34a19.79,19.79,0,0,1-4.62,5.89,7.37,7.37,0,0,1-4.31,2,1.44,1.44,0,0,1-1-.4,1.28,1.28,0,0,1-.42-1q0-3.06,7.05-6.34c.39-.19,1-.46,1.74-.8l.23-.14L208,734.3a24.51,24.51,0,0,1-2.3,2.86,2.14,2.14,0,0,1-1.45.68,1.4,1.4,0,0,1-1.09-.54,1.82,1.82,0,0,1-.46-1.25,6.43,6.43,0,0,1,1.08-2.71l2.34-4a5,5,0,0,0,.81.06,8.19,8.19,0,0,0,1.1-.11l-3,4.87a7.45,7.45,0,0,0-1.28,2.71c0,.46.21.69.62.69,1.1,0,2.78-2,5.06-5.83l1.4-2.39a5.13,5.13,0,0,0,.85.06,6.14,6.14,0,0,0,1-.11q-1.89,3-5.11,8.8a16.12,16.12,0,0,0,3.14-2.07,23,23,0,0,0,2.86-3.16c.14-.18.24-.27.28-.27A.08.08,0,0,1,214,732.73Zm-8.8,6.6c-.16.09-.73.38-1.72.87q-6.93,3.43-6.92,6.18c0,.76.42,1.14,1.27,1.14a4.48,4.48,0,0,0,3.22-1.75,33.4,33.4,0,0,0,4-6.14Z"/><path d="M249,718.24q0,1.08-2.65,4.16a32.16,32.16,0,0,1-5.17,4.91,19.68,19.68,0,0,1-3.93,6.1,12.32,12.32,0,0,1-5.47,2.8c4,1.07,6.45,1.7,7.25,1.88a10.38,10.38,0,0,0,2.29.26,4.18,4.18,0,0,0,2.86-1.14.5.5,0,0,1,.17-.08s.08,0,.09.08-.27.43-.8.8a7.6,7.6,0,0,1-4.34,1,19.58,19.58,0,0,1-4-.4,60,60,0,0,1-5.89-1.66,26.61,26.61,0,0,1-5.24.51q-4.78,0-4.78-1.47c0-.91,1.22-1.37,3.65-1.37a36.8,36.8,0,0,1,8.45,1.47,8.75,8.75,0,0,0,3-2,27.84,27.84,0,0,0,3.29-4.27q-4.54,4-8.49,4a5.46,5.46,0,0,1-5.86-5.86q0-4.12,3.91-7.83a11.92,11.92,0,0,1,8.26-3.7,4.7,4.7,0,0,1,3.2,1,3.5,3.5,0,0,1,1.2,2.8c0,2.08-1,4.23-2.92,6.46s-3.84,3.33-5.65,3.33a2.77,2.77,0,0,1-2-.73,2.36,2.36,0,0,1-.8-1.8,2.13,2.13,0,0,1,.51-1.42,1.54,1.54,0,0,1,1.21-.6.83.83,0,0,1,.94.93,1.28,1.28,0,0,1-.36.89,1.1,1.1,0,0,1-.82.39q-.75,0-.72-.69c0-.29,0-.44-.11-.44s-.33.31-.33.94a2,2,0,0,0,.72,1.6,2.62,2.62,0,0,0,1.81.64c1.67,0,3.46-1.09,5.35-3.28s2.84-4.25,2.84-6.19a3.39,3.39,0,0,0-1.07-2.58,3.84,3.84,0,0,0-2.75-1q-4,0-7.73,4a12.38,12.38,0,0,0-3.69,8.41,4.14,4.14,0,0,0,1.31,3.23,5.27,5.27,0,0,0,3.62,1.17,8.79,8.79,0,0,0,3.94-1,26.26,26.26,0,0,0,4.82-3.39q2.38-4,3.47-5.56a26.84,26.84,0,0,1,2.48-3c1.88-2,3.31-2.95,4.31-2.95C248.79,717.69,249,717.87,249,718.24Zm-20.11,18.59a30.54,30.54,0,0,0-7.27-1.69c-1.33,0-2,.3-2,.88,0,.8,1.56,1.19,4.67,1.19A25.65,25.65,0,0,0,228.88,736.83Zm19.85-18.59c0-.22-.12-.34-.36-.34-.75,0-1.78.77-3.09,2.3a30.65,30.65,0,0,0-3.9,6.66,38.27,38.27,0,0,0,5-4.9Q248.73,719.19,248.73,718.24Z"/><path d="M250.83,732.73a1.68,1.68,0,0,1-.28.39l-.65.82c-2.1,2.6-3.91,3.9-5.41,3.9a2.37,2.37,0,0,1-1.79-.77,2.74,2.74,0,0,1-.73-1.93c0-1.83,1.28-3.43,3.83-4.83a7.34,7.34,0,0,1,3.27-1.09,1.45,1.45,0,0,1,.94.32,1,1,0,0,1,.39.8c0,.74-.48,1.36-1.44,1.87a18.78,18.78,0,0,1-4.78,1.44,5.09,5.09,0,0,0-1,2.62c0,.87.47,1.31,1.41,1.31q2.41,0,5.9-4.7c.12-.16.23-.24.31-.24A.08.08,0,0,1,250.83,732.73Zm-1.29-2.83c0-.32-.18-.48-.53-.48a3.72,3.72,0,0,0-2.12,1.12,15.65,15.65,0,0,0-2.59,2.9,11.87,11.87,0,0,0,3.72-1.6C249,731.16,249.54,730.51,249.54,729.9Z"/><path d="M259.84,732.7q0,.24-.9,1.14a3.7,3.7,0,0,1-2.46,1.33,1.86,1.86,0,0,1-.84-.18q-2,2.85-3.78,2.85a2,2,0,0,1-1.56-.76,2.62,2.62,0,0,1-.65-1.8c0-1.57,1-3.07,3.07-4.52a6.73,6.73,0,0,1,3.57-1.54c.87,0,1.31.46,1.31,1.4a7.59,7.59,0,0,1-1.85,4.22,1.37,1.37,0,0,0,.69.18,2.9,2.9,0,0,0,1.6-.64,5.46,5.46,0,0,0,1.5-1.53q.16-.21.24-.21A.05.05,0,0,1,259.84,732.7Zm-2.47-2.05q0-1.23-1.11-1.23c-.93,0-2,.88-3.38,2.65s-2,3.25-2,4.46c0,.7.34,1.05,1,1.05,1.09,0,2.29-.91,3.59-2.71a1.52,1.52,0,0,1-.44-1,2.64,2.64,0,0,1,.59-1.54c.4-.52.78-.79,1.16-.79.16,0,.27.1.34.31A2.88,2.88,0,0,0,257.37,730.65Z"/><path d="M272.07,732.71a14.53,14.53,0,0,1-2.21,3c-1.21,1.44-2.16,2.17-2.85,2.17a1.45,1.45,0,0,1-1.15-.54,1.91,1.91,0,0,1-.47-1.31,2.89,2.89,0,0,1,.29-1.27,21.93,21.93,0,0,1,1.46-2.32,6.55,6.55,0,0,0,1.24-2.33c0-.42-.22-.62-.66-.62q-2.22,0-6.85,8.25l-.9-.06a7.91,7.91,0,0,0-1,.06l2.37-3.76q2-3.23,2-4c0-.3-.13-.45-.38-.45q-.78,0-3.07,3.28-.14.19-.21.21a.1.1,0,0,1-.1-.09.24.24,0,0,1,.07-.12l.29-.38q2.32-3.14,3.14-3.13a1.09,1.09,0,0,1,.88.47,1.75,1.75,0,0,1,.37,1.13,5.61,5.61,0,0,1-1.14,2.71,25.38,25.38,0,0,1,2.76-3.4,2.72,2.72,0,0,1,1.79-.91,1.41,1.41,0,0,1,1.13.55,2,2,0,0,1,.45,1.35,6.68,6.68,0,0,1-1.4,3.12,7.94,7.94,0,0,0-1.43,2.74.56.56,0,0,0,.63.63q1.35,0,4.68-4.84.07-.15.15-.15A.08.08,0,0,1,272.07,732.71Z"/><path d="M305.75,717.58c0,.49-.49,1.19-1.47,2.11a20.74,20.74,0,0,1-3.59,2.64c-.18.58-.45,1.63-.81,3.16a29.37,29.37,0,0,1-1.56,5.08,10.84,10.84,0,0,1-2.36,3,15.16,15.16,0,0,1-10.65,4.49,7.47,7.47,0,0,1-3-.56,5.51,5.51,0,0,0-.72,2.44,3.75,3.75,0,0,0,.88,2.41.29.29,0,0,1,.09.21q0,.12-.15.12c-.24,0-.49-.31-.76-.94a4.52,4.52,0,0,1-.41-1.77,5.59,5.59,0,0,1,.78-2.63,5.82,5.82,0,0,1-3.19-5.64,9.83,9.83,0,0,1,1.53-5.12,15.75,15.75,0,0,1,4.28-4.58,11.69,11.69,0,0,1,7-2.59,4.13,4.13,0,0,1,3,1,3.74,3.74,0,0,1,1.11,2.85,7.89,7.89,0,0,1-.28,2c1.49-1,2.81-1.84,4-2.53a14.67,14.67,0,0,1,2.76-4.11A4.48,4.48,0,0,1,305,717C305.51,717,305.75,717.19,305.75,717.58Zm-10.33,5.71a3.43,3.43,0,0,0-1-2.57,3.7,3.7,0,0,0-2.67-1q-4.1,0-7.93,4.26T280,732.84a4.53,4.53,0,0,0,2.21,4.27,22.29,22.29,0,0,1,3-3.73,2.66,2.66,0,0,1-1-2.08,2.3,2.3,0,0,1,.58-1.56,1.81,1.81,0,0,1,1.4-.64c.68,0,1,.31,1,.94a1.07,1.07,0,0,1-.38.84,1.25,1.25,0,0,1-.9.36.64.64,0,0,1-.74-.71,1,1,0,0,1,.15-.49,1.49,1.49,0,0,0,.06-.23.08.08,0,0,0-.09-.09c-.17,0-.35.18-.53.55a2.29,2.29,0,0,0-.28,1.08,2.33,2.33,0,0,0,.93,1.8,55.3,55.3,0,0,1,9.67-7.54A8.83,8.83,0,0,0,295.42,723.29Zm3.78-.06c-1.19.75-2.49,1.61-3.9,2.56a13.25,13.25,0,0,1-3.53,5.67q-2.52,2.43-4.83,2.43a3.93,3.93,0,0,1-1.54-.36,21.15,21.15,0,0,0-2.92,3.74,6.72,6.72,0,0,0,2.83.57,10.47,10.47,0,0,0,5.54-1.63,14.59,14.59,0,0,0,4.6-4.5,17.83,17.83,0,0,0,1.42-2.48c.34-.77.9-2.22,1.67-4.34C298.73,724.37,298.94,723.81,299.2,723.23ZM294.89,726l-1,.68a58.49,58.49,0,0,0-8.28,6.59,2.84,2.84,0,0,0,1.37.34,6.68,6.68,0,0,0,4.46-2.24A13.71,13.71,0,0,0,294.89,726Zm10.57-8.43c0-.24-.15-.36-.43-.36a3.39,3.39,0,0,0-2.28,1.41,10.3,10.3,0,0,0-1.94,3.29,20.86,20.86,0,0,0,3.33-2.46C305,718.67,305.46,718,305.46,717.61Z"/><path d="M304.84,732.71a2.08,2.08,0,0,1-.15.25l-.66.9q-2.86,4-4.37,4a1.58,1.58,0,0,1-1.2-.51,1.8,1.8,0,0,1-.48-1.28,6.2,6.2,0,0,1,1-2.67l2.38-4a3.66,3.66,0,0,0,.74.11,9.07,9.07,0,0,0,1.16-.11L299.85,735a4.25,4.25,0,0,0-.74,1.9.62.62,0,0,0,.71.69q1.37,0,4.78-4.84.07-.15.15-.15A.08.08,0,0,1,304.84,732.71Zm-.22-6.29a1.41,1.41,0,0,1-.45,1,1.36,1.36,0,0,1-1,.47.61.61,0,0,1-.69-.69,1.37,1.37,0,0,1,.47-1,1.43,1.43,0,0,1,1-.47A.58.58,0,0,1,304.62,726.42Z"/><path d="M310.48,729.22l-.12.23h-2l-3.4,5.8a3.56,3.56,0,0,0-.62,1.67c0,.46.23.69.71.69q1.4,0,4.68-4.84c.07-.1.14-.15.19-.15a.08.08,0,0,1,.09.09,2.08,2.08,0,0,1-.15.25l-.66.9q-2.86,4-4.31,4a1.59,1.59,0,0,1-1.2-.52,1.85,1.85,0,0,1-.48-1.3,4.79,4.79,0,0,1,.81-2.28l2.55-4.29H305l.15-.23h1.53l1.78-3a3.39,3.39,0,0,0,.86.13,3.55,3.55,0,0,0,.89-.13l-1.75,3Z"/><path d="M319.75,732.68a.43.43,0,0,1-.15.28l-.66.9q-2.87,4-4.27,4a1.53,1.53,0,0,1-1.2-.53A1.91,1.91,0,0,1,313,736a5.49,5.49,0,0,1,1.16-2.78A11.37,11.37,0,0,0,316,730c0-.4-.21-.59-.63-.59-.6,0-1.44.59-2.49,1.79a41,41,0,0,0-4.19,6.52,4.06,4.06,0,0,0-.78-.09,5.89,5.89,0,0,0-.89.09l2.23-4c.31-.58.77-1.43,1.4-2.56.34-.55,1.37-2.29,3.1-5.24L316,722a3.47,3.47,0,0,0,.78.1,4,4,0,0,0,1.15-.16l-4.72,7.62c-.06.1-.84,1.41-2.36,3.93,1.91-2.84,3.42-4.25,4.53-4.25a1.43,1.43,0,0,1,1.12.56,2.14,2.14,0,0,1,.46,1.37,6.33,6.33,0,0,1-1.34,3,8.17,8.17,0,0,0-1.49,2.77.58.58,0,0,0,.65.66q1.2,0,3.94-3.85l.47-.65.27-.34c.06-.1.12-.15.19-.15A.05.05,0,0,1,319.75,732.68Z"/><path d="M328.79,732.7q0,.24-.9,1.14a3.7,3.7,0,0,1-2.46,1.33,1.86,1.86,0,0,1-.84-.18q-2,2.85-3.78,2.85a2,2,0,0,1-1.56-.76,2.62,2.62,0,0,1-.65-1.8c0-1.57,1-3.07,3.07-4.52a6.73,6.73,0,0,1,3.57-1.54c.87,0,1.31.46,1.31,1.4a7.59,7.59,0,0,1-1.85,4.22,1.37,1.37,0,0,0,.69.18,2.9,2.9,0,0,0,1.6-.64,5.46,5.46,0,0,0,1.5-1.53q.17-.21.24-.21A.05.05,0,0,1,328.79,732.7Zm-2.47-2.05q0-1.23-1.11-1.23c-.93,0-2,.88-3.38,2.65s-2,3.25-2,4.46c0,.7.34,1.05,1,1.05,1.09,0,2.29-.91,3.59-2.71a1.52,1.52,0,0,1-.44-1,2.64,2.64,0,0,1,.59-1.54c.4-.52.78-.79,1.16-.79.16,0,.27.1.33.31A2.73,2.73,0,0,0,326.32,730.65Z"/><path d="M336.81,721.92q-6.39,10.65-7.45,12.52a7,7,0,0,0-1.06,2.48c0,.46.19.69.58.69.85,0,2.42-1.61,4.69-4.84a.23.23,0,0,1,.19-.15.08.08,0,0,1,.06.09.43.43,0,0,1-.15.25l-.66.9q-2.88,4-4.25,4a1.36,1.36,0,0,1-1.08-.5,1.88,1.88,0,0,1-.42-1.26,3.64,3.64,0,0,1,.39-1.62q.39-.78,2.64-4.53,2.76-4.57,4.65-7.95a2.82,2.82,0,0,0,.8.13A2.87,2.87,0,0,0,336.81,721.92Z"/><path d="M341.49,732.73a1.81,1.81,0,0,1-.27.39l-.66.82q-3.15,3.9-5.41,3.9a2.37,2.37,0,0,1-1.79-.77,2.73,2.73,0,0,1-.72-1.93c0-1.83,1.27-3.43,3.82-4.83a7.34,7.34,0,0,1,3.27-1.09,1.45,1.45,0,0,1,.94.32,1,1,0,0,1,.39.8c0,.74-.48,1.36-1.43,1.87a19.05,19.05,0,0,1-4.78,1.44,5.12,5.12,0,0,0-1,2.62c0,.87.47,1.31,1.42,1.31q2.4,0,5.9-4.7.18-.24.3-.24A.08.08,0,0,1,341.49,732.73Zm-1.28-2.83q0-.48-.54-.48a3.74,3.74,0,0,0-2.12,1.12,15.27,15.27,0,0,0-2.58,2.9,11.81,11.81,0,0,0,3.71-1.6C339.7,731.16,340.21,730.51,340.21,729.9Z"/><path d="M366.15,726.8a11.75,11.75,0,0,1-11.52,11.55,9.43,9.43,0,0,1-6.93-2.78,9.32,9.32,0,0,1-2.8-6.89,11,11,0,0,1,3.47-8.12,11.28,11.28,0,0,1,8.22-3.43,9.15,9.15,0,0,1,6.79,2.81A9.38,9.38,0,0,1,366.15,726.8Zm-.39.06a9,9,0,0,0-2.71-6.69,9.25,9.25,0,0,0-6.78-2.68,10.46,10.46,0,0,0-7.67,3.35,10.74,10.74,0,0,0-3.31,7.78,9.22,9.22,0,0,0,9.37,9.37,11.36,11.36,0,0,0,11.1-11.13Zm-3.9-3a3.74,3.74,0,0,1-1.29,2.77,4.07,4.07,0,0,1-2.89,1.23,2.08,2.08,0,0,1-1.19-.33,1,1,0,0,1-.49-.81c0-.1,0-.15.1-.15a.08.08,0,0,1,.06.09.85.85,0,0,0,.95.79,4,4,0,0,0,2.81-1.37,4,4,0,0,0,1.38-2.78c0-.93-.52-1.4-1.56-1.4-1.53,0-3.38.86-5.55,2.56a11.78,11.78,0,0,0-2.84,3.15,6.53,6.53,0,0,0-1,3.34c0,1.89,1,2.83,3.13,2.83s4.05-1.4,6-4.2c.2-.29.34-.44.41-.44s.08,0,.09.1c0,.32-.55,1.07-1.66,2.25q-2.41,2.58-4.85,2.58a4.25,4.25,0,0,1-3.06-1.23,4,4,0,0,1-1.26-3,6.12,6.12,0,0,1,1.29-3.57,10.53,10.53,0,0,1,3.45-3,11.67,11.67,0,0,1,5.53-1.67,2.61,2.61,0,0,1,1.81.61A2.06,2.06,0,0,1,361.86,723.82Z"/><path d="M382.31,724.54a5,5,0,0,1-1.74,3.74,12.18,12.18,0,0,1-2.57,1.89q-1.32.71-5.22,2.26-4.87,2-6.72,4.19a4.73,4.73,0,0,1,3-1.07,11.89,11.89,0,0,1,3.37.66,10.24,10.24,0,0,0,2.74.56,3.4,3.4,0,0,0,2.4-1,5.28,5.28,0,0,0,1.5-2.67c0-.12.09-.18.17-.18a.09.09,0,0,1,.06.06,4.48,4.48,0,0,1-1,2.32,5.68,5.68,0,0,1-4.74,2.65,12,12,0,0,1-3.13-.63,15.76,15.76,0,0,0-3.15-.74c-1.06,0-1.64.42-1.75,1.26,0,.23-.09.35-.22.35a.11.11,0,0,1-.12-.12c0-.48.41-1.13,1.22-2a12,12,0,0,1,2.13-1.76c.77-.47,2.18-1.18,4.21-2.13a19.37,19.37,0,0,0,6-4.14,6.94,6.94,0,0,0,2.17-4.63,1.87,1.87,0,0,0-.71-1.53,3,3,0,0,0-1.91-.56q-2.69,0-5.8,2.75t-3.12,5.11c0,1.14.68,1.72,2.06,1.72a6.12,6.12,0,0,0,3.66-1.61,8.48,8.48,0,0,0,2.76-3.48c0-.1.08-.15.14-.15a.08.08,0,0,1,.09.09,4.59,4.59,0,0,1-1.31,2.21,10.12,10.12,0,0,1-2.63,2.22,5.44,5.44,0,0,1-2.67.87,2.42,2.42,0,0,1-2.59-2.56c0-1.9,1.25-3.67,3.76-5.33a10.54,10.54,0,0,1,5.71-2,4.29,4.29,0,0,1,2.9,1A3.06,3.06,0,0,1,382.31,724.54Z"/><path d="M397.19,725.43q0,3.5-3.49,7.44-4.24,4.8-7.85,4.8a3.88,3.88,0,0,1-3-1.3,4.83,4.83,0,0,1-1.16-3.35q0-4.1,5-8.33,4.35-3.63,6.94-3.63a3.13,3.13,0,0,1,2.57,1.2A4.93,4.93,0,0,1,397.19,725.43Zm-1.11-1.67q0-2.49-2.4-2.49c-1.31,0-2.83.77-4.54,2.31a20.63,20.63,0,0,0-4.21,5.28,12,12,0,0,0-1.83,5.73c0,1.91.91,2.87,2.72,2.87q3.35,0,6.73-4.68a21.35,21.35,0,0,0,2.56-4.68A12.23,12.23,0,0,0,396.08,723.76Z"/><path d="M412.12,724.54a5,5,0,0,1-1.73,3.74,12.18,12.18,0,0,1-2.57,1.89q-1.33.71-5.23,2.26-4.87,2-6.71,4.19a4.69,4.69,0,0,1,3-1.07,12,12,0,0,1,3.37.66,10.17,10.17,0,0,0,2.74.56,3.44,3.44,0,0,0,2.4-1,5.43,5.43,0,0,0,1.5-2.67c0-.12.08-.18.17-.18a.09.09,0,0,1,.06.06,4.52,4.52,0,0,1-1,2.32,5.68,5.68,0,0,1-4.74,2.65,11.86,11.86,0,0,1-3.12-.63,16.07,16.07,0,0,0-3.15-.74c-1.06,0-1.64.42-1.76,1.26,0,.23-.09.35-.21.35A.11.11,0,0,1,395,738c0-.48.4-1.13,1.22-2a12,12,0,0,1,2.13-1.76q1.15-.7,4.2-2.13a19.13,19.13,0,0,0,6-4.14,6.89,6.89,0,0,0,2.17-4.63,1.84,1.84,0,0,0-.71-1.53,3,3,0,0,0-1.91-.56c-1.78,0-3.72.92-5.8,2.75s-3.12,3.53-3.12,5.11c0,1.14.69,1.72,2.06,1.72a6.16,6.16,0,0,0,3.67-1.61,8.65,8.65,0,0,0,2.76-3.48c0-.1.08-.15.14-.15a.08.08,0,0,1,.09.09,4.68,4.68,0,0,1-1.31,2.21,10,10,0,0,1-2.64,2.22,5.41,5.41,0,0,1-2.66.87,2.58,2.58,0,0,1-1.89-.7,2.52,2.52,0,0,1-.71-1.86c0-1.9,1.26-3.67,3.76-5.33a10.57,10.57,0,0,1,5.71-2,4.28,4.28,0,0,1,2.9,1A3.06,3.06,0,0,1,412.12,724.54Z"/><path d="M427,725.43q0,3.5-3.48,7.44-4.25,4.8-7.85,4.8a3.86,3.86,0,0,1-3-1.3A4.83,4.83,0,0,1,411.5,733q0-4.1,5-8.33,4.34-3.63,6.93-3.63a3.15,3.15,0,0,1,2.58,1.2A4.93,4.93,0,0,1,427,725.43Zm-1.11-1.67q0-2.49-2.4-2.49-2,0-4.54,2.31a20.6,20.6,0,0,0-4.2,5.28,12,12,0,0,0-1.83,5.73c0,1.91.9,2.87,2.71,2.87q3.36,0,6.73-4.68a20.94,20.94,0,0,0,2.56-4.68A12,12,0,0,0,425.89,723.76Z"/><path d="M440.81,742.69h-.59v-26h.59Z"/><path d="M479.86,717.58c0,.49-.49,1.19-1.47,2.11a20.74,20.74,0,0,1-3.59,2.64c-.18.58-.45,1.63-.81,3.16a28.5,28.5,0,0,1-1.56,5.08,10.84,10.84,0,0,1-2.36,3,15.16,15.16,0,0,1-10.65,4.49,7.47,7.47,0,0,1-3-.56,5.51,5.51,0,0,0-.72,2.44,3.75,3.75,0,0,0,.88,2.41.29.29,0,0,1,.09.21q0,.12-.15.12c-.24,0-.49-.31-.76-.94a4.52,4.52,0,0,1-.41-1.77,5.59,5.59,0,0,1,.78-2.63,5.82,5.82,0,0,1-3.19-5.64,9.83,9.83,0,0,1,1.53-5.12,15.75,15.75,0,0,1,4.28-4.58,11.69,11.69,0,0,1,7-2.59,4.13,4.13,0,0,1,3,1,3.74,3.74,0,0,1,1.11,2.85,7.89,7.89,0,0,1-.28,2c1.49-1,2.81-1.84,4-2.53a14.67,14.67,0,0,1,2.76-4.11,4.48,4.48,0,0,1,2.89-1.72C479.62,717,479.86,717.19,479.86,717.58Zm-10.33,5.71a3.43,3.43,0,0,0-1-2.57,3.7,3.7,0,0,0-2.67-1q-4.1,0-7.93,4.26t-3.83,8.83a4.53,4.53,0,0,0,2.21,4.27,22.29,22.29,0,0,1,3-3.73,2.66,2.66,0,0,1-1-2.08,2.3,2.3,0,0,1,.58-1.56,1.83,1.83,0,0,1,1.4-.64c.68,0,1,.31,1,.94a1.07,1.07,0,0,1-.38.84,1.25,1.25,0,0,1-.9.36.64.64,0,0,1-.74-.71,1,1,0,0,1,.15-.49,1.49,1.49,0,0,0,.06-.23.08.08,0,0,0-.09-.09c-.17,0-.35.18-.53.55a2.29,2.29,0,0,0-.28,1.08,2.33,2.33,0,0,0,.93,1.8,55.3,55.3,0,0,1,9.67-7.54A8.43,8.43,0,0,0,469.53,723.29Zm3.78-.06c-1.19.75-2.49,1.61-3.9,2.56a13.32,13.32,0,0,1-3.52,5.67c-1.68,1.62-3.3,2.43-4.84,2.43a3.93,3.93,0,0,1-1.54-.36,21.62,21.62,0,0,0-2.92,3.74,6.75,6.75,0,0,0,2.83.57,10.47,10.47,0,0,0,5.54-1.63,14.59,14.59,0,0,0,4.6-4.5,17.83,17.83,0,0,0,1.42-2.48c.34-.77.9-2.22,1.67-4.34C472.84,724.37,473.05,723.81,473.31,723.23ZM469,726l-1,.68a58.49,58.49,0,0,0-8.28,6.59,2.84,2.84,0,0,0,1.37.34,6.68,6.68,0,0,0,4.46-2.24A13.71,13.71,0,0,0,469,726Zm10.57-8.43c0-.24-.15-.36-.43-.36a3.39,3.39,0,0,0-2.28,1.41,10.3,10.3,0,0,0-1.94,3.29,20.86,20.86,0,0,0,3.33-2.46C479.13,718.67,479.57,718,479.57,717.61Z"/><path d="M479,732.71a2.08,2.08,0,0,1-.15.25l-.66.9q-2.86,4-4.37,4a1.58,1.58,0,0,1-1.2-.51,1.8,1.8,0,0,1-.48-1.28,6.2,6.2,0,0,1,1.05-2.67l2.38-4a3.66,3.66,0,0,0,.74.11,9.07,9.07,0,0,0,1.16-.11L474,735a4.25,4.25,0,0,0-.74,1.9.62.62,0,0,0,.71.69q1.36,0,4.78-4.84.07-.15.15-.15A.08.08,0,0,1,479,732.71Zm-.22-6.29a1.41,1.41,0,0,1-.45,1,1.36,1.36,0,0,1-1,.47.61.61,0,0,1-.69-.69,1.37,1.37,0,0,1,.47-1,1.43,1.43,0,0,1,1-.47A.58.58,0,0,1,478.73,726.42Z"/><path d="M484.59,729.22l-.12.23h-2l-3.4,5.8a3.56,3.56,0,0,0-.62,1.67c0,.46.23.69.71.69q1.4,0,4.68-4.84c.07-.1.14-.15.19-.15a.08.08,0,0,1,.09.09,2.08,2.08,0,0,1-.15.25l-.66.9q-2.86,4-4.32,4a1.58,1.58,0,0,1-1.19-.52,1.85,1.85,0,0,1-.48-1.3,4.79,4.79,0,0,1,.81-2.28l2.55-4.29h-1.55l.15-.23h1.53l1.78-3a3.39,3.39,0,0,0,.86.13,3.55,3.55,0,0,0,.89-.13l-1.75,3Z"/><path d="M493.86,732.68a.43.43,0,0,1-.15.28l-.66.9q-2.87,4-4.27,4a1.53,1.53,0,0,1-1.2-.53,1.91,1.91,0,0,1-.46-1.32,5.4,5.4,0,0,1,1.16-2.78,11.67,11.67,0,0,0,1.81-3.17c0-.4-.21-.59-.63-.59-.6,0-1.44.59-2.49,1.79a41,41,0,0,0-4.19,6.52,4.14,4.14,0,0,0-.78-.09,6.12,6.12,0,0,0-.9.09l2.24-4c.31-.58.77-1.43,1.4-2.56.34-.55,1.37-2.29,3.09-5.24l2.32-3.93a3.47,3.47,0,0,0,.78.1,4,4,0,0,0,1.15-.16l-4.72,7.62L485,733.47c1.91-2.84,3.42-4.25,4.53-4.25a1.41,1.41,0,0,1,1.11.56,2.09,2.09,0,0,1,.47,1.37,6.33,6.33,0,0,1-1.34,3,8.17,8.17,0,0,0-1.49,2.77.58.58,0,0,0,.65.66c.79,0,2.11-1.28,3.94-3.85l.47-.65.27-.34a.23.23,0,0,1,.19-.15A.05.05,0,0,1,493.86,732.68Z"/><path d="M502.9,732.7q0,.24-.9,1.14a3.7,3.7,0,0,1-2.46,1.33,1.86,1.86,0,0,1-.84-.18q-2,2.85-3.78,2.85a2,2,0,0,1-1.56-.76,2.62,2.62,0,0,1-.65-1.8c0-1.57,1-3.07,3.07-4.52a6.7,6.7,0,0,1,3.57-1.54c.87,0,1.31.46,1.31,1.4a7.59,7.59,0,0,1-1.85,4.22,1.37,1.37,0,0,0,.69.18,2.9,2.9,0,0,0,1.6-.64,5.46,5.46,0,0,0,1.5-1.53q.16-.21.24-.21A.05.05,0,0,1,502.9,732.7Zm-2.47-2.05q0-1.23-1.11-1.23c-.93,0-2.05.88-3.38,2.65s-2,3.25-2,4.46c0,.7.34,1.05,1,1.05,1.09,0,2.29-.91,3.59-2.71a1.52,1.52,0,0,1-.44-1,2.64,2.64,0,0,1,.59-1.54c.4-.52.78-.79,1.16-.79.16,0,.27.1.33.31A2.73,2.73,0,0,0,500.43,730.65Z"/><path d="M510.92,721.92q-6.39,10.65-7.45,12.52a7,7,0,0,0-1.06,2.48c0,.46.19.69.58.69.85,0,2.42-1.61,4.69-4.84.06-.1.12-.15.19-.15a.08.08,0,0,1,.06.09.43.43,0,0,1-.15.25l-.66.9q-2.88,4-4.25,4a1.36,1.36,0,0,1-1.08-.5,1.88,1.88,0,0,1-.42-1.26,3.64,3.64,0,0,1,.39-1.62q.39-.78,2.64-4.53,2.76-4.57,4.65-7.95a2.83,2.83,0,0,0,1.87-.06Z"/><path d="M515.6,732.73a1.81,1.81,0,0,1-.27.39l-.66.82q-3.15,3.9-5.41,3.9a2.37,2.37,0,0,1-1.79-.77,2.73,2.73,0,0,1-.72-1.93c0-1.83,1.27-3.43,3.82-4.83a7.34,7.34,0,0,1,3.27-1.09,1.45,1.45,0,0,1,.94.32,1,1,0,0,1,.39.8c0,.74-.48,1.36-1.43,1.87a19.05,19.05,0,0,1-4.78,1.44,5.12,5.12,0,0,0-1,2.62c0,.87.47,1.31,1.42,1.31q2.4,0,5.9-4.7.18-.24.3-.24A.08.08,0,0,1,515.6,732.73Zm-1.28-2.83q0-.48-.54-.48a3.74,3.74,0,0,0-2.12,1.12,15.27,15.27,0,0,0-2.58,2.9,11.81,11.81,0,0,0,3.71-1.6C513.81,731.16,514.32,730.51,514.32,729.9Z"/><path d="M524.62,732.7q0,.24-.9,1.14a3.74,3.74,0,0,1-2.47,1.33,1.89,1.89,0,0,1-.84-.18q-2,2.85-3.78,2.85a2,2,0,0,1-1.56-.76,2.67,2.67,0,0,1-.65-1.8c0-1.57,1-3.07,3.08-4.52a6.7,6.7,0,0,1,3.56-1.54c.87,0,1.31.46,1.31,1.4a7.56,7.56,0,0,1-1.84,4.22,1.3,1.3,0,0,0,.68.18,3,3,0,0,0,1.61-.64,5.42,5.42,0,0,0,1.49-1.53c.11-.14.2-.21.25-.21A.05.05,0,0,1,524.62,732.7Zm-2.48-2.05q0-1.23-1.11-1.23-1.38,0-3.38,2.65a8,8,0,0,0-2,4.46c0,.7.33,1.05,1,1.05,1.1,0,2.3-.91,3.59-2.71a1.52,1.52,0,0,1-.44-1,2.59,2.59,0,0,1,.6-1.54,1.59,1.59,0,0,1,1.15-.79c.17,0,.28.1.34.31A2.88,2.88,0,0,0,522.14,730.65Z"/><path d="M536.84,732.71a14.08,14.08,0,0,1-2.21,3c-1.21,1.44-2.16,2.17-2.85,2.17a1.47,1.47,0,0,1-1.15-.54,1.91,1.91,0,0,1-.46-1.31,2.88,2.88,0,0,1,.28-1.27,24.7,24.7,0,0,1,1.47-2.32,6.63,6.63,0,0,0,1.23-2.33c0-.42-.22-.62-.65-.62q-2.24,0-6.86,8.25l-.89-.06a8.07,8.07,0,0,0-1,.06l2.38-3.76q2-3.23,2-4c0-.3-.13-.45-.38-.45q-.78,0-3.07,3.28-.13.19-.21.21t-.09-.09a.23.23,0,0,1,.06-.12l.29-.38q2.32-3.14,3.14-3.13a1.11,1.11,0,0,1,.89.47,1.8,1.8,0,0,1,.36,1.13,5.61,5.61,0,0,1-1.14,2.71,27.08,27.08,0,0,1,2.76-3.4,2.76,2.76,0,0,1,1.79-.91,1.4,1.4,0,0,1,1.13.55,2,2,0,0,1,.46,1.35,6.79,6.79,0,0,1-1.4,3.12,7.85,7.85,0,0,0-1.44,2.74.56.56,0,0,0,.63.63q1.35,0,4.68-4.84.07-.15.15-.15A.08.08,0,0,1,536.84,732.71Z"/><path d="M577.4,721.65a8.05,8.05,0,0,1-.21,1.73c-.14.63-.27.94-.4.94s-.16-.05-.16-.15a.5.5,0,0,1,0-.14,6.38,6.38,0,0,0,.41-2.29,4.2,4.2,0,0,0-1.14-3.08,4,4,0,0,0-3-1.17,10,10,0,0,0-5.21,1.66,5.25,5.25,0,0,1,2.29,4.14,4.5,4.5,0,0,1-1.57,3.4,5.26,5.26,0,0,1-3.67,1.45,5.38,5.38,0,0,1-1.76-.33c-.63-.22-.94-.43-.94-.62a.12.12,0,0,1,.12-.1.67.67,0,0,1,.24.1,3.67,3.67,0,0,0,4.88-1,5.41,5.41,0,0,0,1.23-3.56,4.58,4.58,0,0,0-1.27-3.18q-3.32,2.46-6.28,8.68a23.89,23.89,0,0,1-3.29,5.42,14.06,14.06,0,0,1-4.18,3,13.34,13.34,0,0,1-5.68,1.55,5.87,5.87,0,0,1-3.4-.93,2.8,2.8,0,0,1-1.36-2.34,2,2,0,0,1,.47-1.34,1.39,1.39,0,0,1,1.1-.57c.62,0,.93.35.93,1a1.3,1.3,0,0,1-.31.88,1,1,0,0,1-.77.37c-.53,0-.78-.28-.76-.82,0-.23,0-.34-.06-.34s-.24.27-.24.81a2.47,2.47,0,0,0,1.24,2.1,5.45,5.45,0,0,0,3.13.84,8.79,8.79,0,0,0,6-2.47,15.84,15.84,0,0,0,2-2.21q.9-1.21,4-5.91a41.72,41.72,0,0,1,3.63-4.64,21.65,21.65,0,0,1,3.55-3.34c-1.59-1.35-3.91-2-7-2a15.47,15.47,0,0,0-11.17,4.64q-3.9,3.81-3.9,7.18a3.5,3.5,0,0,0,1.09,2.71,4.24,4.24,0,0,0,3,1q3.06,0,6.33-2.94t3.27-5.71a2,2,0,0,0-2.27-2.21c-1.51,0-3.14.85-4.87,2.54s-2.59,3.27-2.59,4.75a1.37,1.37,0,0,0,.36.95,1.15,1.15,0,0,0,.86.39c.17,0,.26.05.26.14s-.1.12-.29.12a1.52,1.52,0,0,1-1.24-.66,2.63,2.63,0,0,1-.5-1.62q0-2.38,2.6-4.63a8.16,8.16,0,0,1,5.35-2.25c1.74,0,2.62.81,2.62,2.42,0,2-1.12,4-3.34,6s-4.41,3-6.58,3a4.39,4.39,0,0,1-4.66-4.67q0-4.3,4.87-7.86A17.82,17.82,0,0,1,560,717a13.52,13.52,0,0,1,7.52,2,10.25,10.25,0,0,1,5.39-1.73,4.45,4.45,0,0,1,3.28,1.22A4.28,4.28,0,0,1,577.4,721.65Z"/><path d="M575,732.71a5.55,5.55,0,0,1-.92,1.12,3.16,3.16,0,0,1-2.18,1.28c-.77,0-1.16-.45-1.16-1.34a4,4,0,0,1,.19-1.08,10.29,10.29,0,0,0-1.56,1.66c-.41.55-1.1,1.66-2.08,3.35l-.95-.06-.93.06,2.5-4.05c1.25-2,1.87-3.29,1.87-3.78,0-.28-.11-.42-.35-.42q-.86,0-3.09,3.28c-.1.14-.18.21-.25.21a.08.08,0,0,1-.06-.09.23.23,0,0,1,.06-.12l.28-.38q2.34-3.14,3.18-3.13c.82,0,1.22.52,1.22,1.57a6.25,6.25,0,0,1-1.25,3.1,13.06,13.06,0,0,1,1.51-1.49,7.88,7.88,0,0,1,1.44-2.27,2.34,2.34,0,0,1,1.55-.91c.31,0,.47.13.47.41,0,.49-.71,1.18-2.12,2.08-.22.15-.56.36-1,.63l-.18.15a3.92,3.92,0,0,0-.22,1.16c0,.85.32,1.28,1,1.28.8,0,1.66-.66,2.6-2,.2-.23.33-.34.38-.34A.08.08,0,0,1,575,732.71Z"/><path d="M584,732.7q0,.24-.9,1.14a3.72,3.72,0,0,1-2.47,1.33,1.92,1.92,0,0,1-.84-.18q-2,2.85-3.78,2.85a2,2,0,0,1-1.56-.76,2.66,2.66,0,0,1-.64-1.8c0-1.57,1-3.07,3.07-4.52a6.7,6.7,0,0,1,3.56-1.54c.88,0,1.31.46,1.31,1.4a7.56,7.56,0,0,1-1.84,4.22,1.31,1.31,0,0,0,.69.18,2.93,2.93,0,0,0,1.6-.64,5.29,5.29,0,0,0,1.49-1.53c.12-.14.2-.21.25-.21A.05.05,0,0,1,584,732.7Zm-2.48-2.05q0-1.23-1.11-1.23-1.38,0-3.38,2.65a8,8,0,0,0-2,4.46c0,.7.33,1.05,1,1.05,1.1,0,2.3-.91,3.6-2.71a1.49,1.49,0,0,1-.45-1,2.59,2.59,0,0,1,.6-1.54c.4-.52.78-.79,1.16-.79.16,0,.27.1.33.31A2.88,2.88,0,0,0,581.54,730.65Z"/><path d="M591.29,731.65q0,2.49-3.09,4.53a8.19,8.19,0,0,1-3.93,1.66c-.65,0-1-.31-1-.92a2.59,2.59,0,0,1,.15-.74l-5.83,9.73a4.22,4.22,0,0,0-.87-.12,2.8,2.8,0,0,0-1,.18l12.5-20.56a2.56,2.56,0,0,0,.81.14,4.66,4.66,0,0,0,1-.14l-4.52,7.31a22.68,22.68,0,0,1,2.37-2.83,2.19,2.19,0,0,1,1.47-.67,1.65,1.65,0,0,1,1.35.7A2.69,2.69,0,0,1,591.29,731.65Zm-1.13-1.21c0-.66-.29-1-.88-1s-2,1.19-3.73,3.57c-1.35,1.85-2,3.12-2,3.81q0,.78.72.78,1.39,0,3.66-2.73T590.16,730.44Z"/><path d="M600,732.73a1.81,1.81,0,0,1-.27.39l-.66.82q-3.15,3.9-5.41,3.9a2.37,2.37,0,0,1-1.79-.77,2.73,2.73,0,0,1-.72-1.93c0-1.83,1.27-3.43,3.82-4.83a7.34,7.34,0,0,1,3.27-1.09,1.45,1.45,0,0,1,.94.32,1,1,0,0,1,.39.8c0,.74-.48,1.36-1.43,1.87a19.05,19.05,0,0,1-4.78,1.44,5.12,5.12,0,0,0-1,2.62c0,.87.47,1.31,1.42,1.31q2.4,0,5.9-4.7.18-.24.3-.24A.08.08,0,0,1,600,732.73Zm-1.28-2.83q0-.48-.54-.48a3.74,3.74,0,0,0-2.12,1.12,15.27,15.27,0,0,0-2.58,2.9,11.81,11.81,0,0,0,3.71-1.6C598.2,731.16,598.71,730.51,598.71,729.9Z"/><path d="M608.67,732.71a5.26,5.26,0,0,1-.91,1.12,3.18,3.18,0,0,1-2.18,1.28c-.78,0-1.16-.45-1.16-1.34a4.29,4.29,0,0,1,.18-1.08,10.29,10.29,0,0,0-1.56,1.66c-.4.55-1.1,1.66-2.08,3.35l-.94-.06-.93.06,2.49-4.05c1.25-2,1.88-3.29,1.88-3.78,0-.28-.12-.42-.35-.42-.57,0-1.61,1.09-3.1,3.28-.09.14-.17.21-.25.21a.08.08,0,0,1-.06-.09.23.23,0,0,1,.06-.12l.28-.38q2.36-3.14,3.19-3.13c.81,0,1.22.52,1.22,1.57a6.35,6.35,0,0,1-1.25,3.1,12.32,12.32,0,0,1,1.51-1.49,7.48,7.48,0,0,1,1.44-2.27,2.3,2.3,0,0,1,1.54-.91c.31,0,.47.13.47.41,0,.49-.7,1.18-2.11,2.08-.23.15-.56.36-1,.63l-.18.15a4.2,4.2,0,0,0-.21,1.16c0,.85.32,1.28,1,1.28s1.65-.66,2.59-2c.2-.23.33-.34.38-.34A.08.08,0,0,1,608.67,732.71Z"/><path d="M614.27,729.22l-.12.23h-2l-3.39,5.8a3.6,3.6,0,0,0-.63,1.67q0,.69.72.69,1.38,0,4.68-4.84.11-.15.18-.15a.08.08,0,0,1,.09.09,2.08,2.08,0,0,1-.15.25l-.65.9q-2.87,4-4.32,4a1.57,1.57,0,0,1-1.19-.52A1.86,1.86,0,0,1,607,736a4.79,4.79,0,0,1,.81-2.28l2.56-4.29h-1.55l.15-.23h1.52l1.78-3a3,3,0,0,0,1.76,0l-1.76,3Z"/><path d="M623.38,732.73a10.56,10.56,0,0,1-1.67,2.08,18.73,18.73,0,0,1-4.85,3.68l-.75,1.34a19.94,19.94,0,0,1-4.61,5.89,7.4,7.4,0,0,1-4.31,2,1.45,1.45,0,0,1-1.05-.4,1.31,1.31,0,0,1-.41-1q0-3.06,7-6.34c.38-.19,1-.46,1.73-.8l.23-.14,2.68-4.77a23.48,23.48,0,0,1-2.3,2.86,2.14,2.14,0,0,1-1.45.68,1.39,1.39,0,0,1-1.08-.54,1.83,1.83,0,0,1-.47-1.25,6.43,6.43,0,0,1,1.08-2.71l2.35-4a4.74,4.74,0,0,0,.8.06,8,8,0,0,0,1.1-.11l-3,4.87a7.64,7.64,0,0,0-1.28,2.71q0,.69.63.69c1.09,0,2.78-2,5.05-5.83l1.4-2.39a5.26,5.26,0,0,0,.86.06,6.36,6.36,0,0,0,1-.11q-1.89,3-5.12,8.8a15.82,15.82,0,0,0,3.14-2.07,23.64,23.64,0,0,0,2.87-3.16q.21-.27.27-.27A.08.08,0,0,1,623.38,732.73Zm-8.79,6.6-1.72.87q-6.93,3.43-6.93,6.18c0,.76.43,1.14,1.28,1.14a4.46,4.46,0,0,0,3.21-1.75,32.37,32.37,0,0,0,4-6.14Z"/><path d="M673,722.27a5.48,5.48,0,0,1-.13,1.15c-.09.37-.18.55-.27.55s-.11,0-.11-.08l0-.12a3.61,3.61,0,0,0,.23-1.44,4.42,4.42,0,0,0-1.61-3.43,5.79,5.79,0,0,0-3.94-1.41q-3.77,0-7.71,3.69A28.74,28.74,0,0,0,656.8,724q-1.08,1.29-4.23,5.48-4.67,6.16-7.64,7.71a5.53,5.53,0,0,1-1.72.69c-.06,0-.09,0-.09-.11l.32-.25a7.78,7.78,0,0,0,2.37-3c.55-1.15,1.53-3.87,3-8.15q1.8-5.49,4.14-7.86a.25.25,0,0,0,.09-.15c-.13,0-.43.17-.9.65a34.8,34.8,0,0,0-5.33,8.1,39.52,39.52,0,0,1-3.31,5.45,16.12,16.12,0,0,1-3.39,3.25,11.12,11.12,0,0,1-6.49,2.31,6.13,6.13,0,0,1-3.45-.89A2.66,2.66,0,0,1,628.8,735a2,2,0,0,1,.45-1.33,1.45,1.45,0,0,1,1.14-.54.86.86,0,0,1,1,1,1.21,1.21,0,0,1-.32.86,1,1,0,0,1-.78.36c-.5,0-.75-.28-.75-.82,0-.21,0-.31-.12-.31s-.25.28-.25.84a2.4,2.4,0,0,0,1.24,2,5.86,5.86,0,0,0,3.2.8q4,0,7.8-4.13a28.3,28.3,0,0,0,2.61-3.24c.71-1.05,2.12-3.33,4.25-6.86a24.75,24.75,0,0,1,3-4.06q1.69-1.83,2.4-1.83c.08,0,.11,0,.11.09a.34.34,0,0,1-.06.12c-.94,1-1.8,3-2.56,5.87A48.78,48.78,0,0,1,648,733a10.84,10.84,0,0,1-3.84,4.25s-.06,0-.06.06l.06,0a4.89,4.89,0,0,0,1.71-1,17.18,17.18,0,0,0,3-2.78c.92-1.07,2.59-3.28,5-6.61a60.65,60.65,0,0,1,4.09-5.17,20,20,0,0,1,3.35-2.89,10.41,10.41,0,0,1,5.8-1.93,6.05,6.05,0,0,1,4.21,1.49A4.89,4.89,0,0,1,673,722.27Zm-24.13-.86q0,.35-.87,1.32a3.62,3.62,0,0,1-2.53,1.48,1.87,1.87,0,0,1-1.42-.62,2.11,2.11,0,0,1-.58-1.51,4.83,4.83,0,0,1,.62-2.09,5.83,5.83,0,0,0,.78-2.15,1.44,1.44,0,0,0-.73-1.25,3.54,3.54,0,0,0-1.92-.47,9.35,9.35,0,0,0-6.38,2.74,7.92,7.92,0,0,0-3,5.84,3.59,3.59,0,0,0,1,2.61,3.37,3.37,0,0,0,2.52,1,5.69,5.69,0,0,0,2.78-.78,6.87,6.87,0,0,0,2.28-2s.07-.08.09-.08a.12.12,0,0,1,.13.14c0,.2-.33.59-1,1.17a6.38,6.38,0,0,1-4.36,1.81,3.56,3.56,0,0,1-2.68-1.06,3.82,3.82,0,0,1-1-2.77,8.13,8.13,0,0,1,3.06-6.08,9.71,9.71,0,0,1,6.67-2.77,3.39,3.39,0,0,1,2.34.75,2.59,2.59,0,0,1,.84,2,7.75,7.75,0,0,1-1,3,2.91,2.91,0,0,0-.34,1.11c0,.77.42,1.16,1.26,1.16a2.86,2.86,0,0,0,1.67-.72,5.48,5.48,0,0,0,1.48-1.76c0-.1.1-.15.16-.15A.11.11,0,0,1,648.86,721.41Zm16.8-3.27c0,.05-.14.15-.41.29a9.49,9.49,0,0,0-3.13,2.73,31.55,31.55,0,0,0-3.09,5.46,36.88,36.88,0,0,1-4.52,7.71,11.11,11.11,0,0,1-4.91,3.36,14.77,14.77,0,0,0,2.09.21,6.4,6.4,0,0,0,3.75-1,22.29,22.29,0,0,0,4-4.48c.11-.14.19-.21.25-.21a.09.09,0,0,1,.07.09,13.23,13.23,0,0,1-1.44,2,12.45,12.45,0,0,1-3.13,3,6.6,6.6,0,0,1-3.39.81,13.9,13.9,0,0,1-2.69-.28,6.53,6.53,0,0,1-2.09.34c-.54,0-.81-.1-.81-.31s.38-.38,1.13-.38a11.88,11.88,0,0,1,1.64.15h.2a6.5,6.5,0,0,0,2.73-1.83,22.93,22.93,0,0,0,2.69-4.24,72.37,72.37,0,0,1,5-8.56,17.73,17.73,0,0,1,4.31-4.11,4.55,4.55,0,0,1,1.63-.84A.08.08,0,0,1,665.66,718.14Z"/><path d="M667.1,732.73a1.81,1.81,0,0,1-.27.39l-.66.82c-2.1,2.6-3.91,3.9-5.41,3.9a2.37,2.37,0,0,1-1.79-.77,2.73,2.73,0,0,1-.72-1.93c0-1.83,1.27-3.43,3.82-4.83a7.34,7.34,0,0,1,3.27-1.09,1.45,1.45,0,0,1,.94.32,1,1,0,0,1,.39.8c0,.74-.48,1.36-1.44,1.87a18.78,18.78,0,0,1-4.78,1.44,5.09,5.09,0,0,0-1,2.62c0,.87.47,1.31,1.41,1.31q2.42,0,5.9-4.7c.13-.16.23-.24.31-.24A.08.08,0,0,1,667.1,732.73Zm-1.29-2.83c0-.32-.18-.48-.53-.48a3.72,3.72,0,0,0-2.12,1.12,15.65,15.65,0,0,0-2.59,2.9,11.87,11.87,0,0,0,3.72-1.6C665.3,731.16,665.81,730.51,665.81,729.9Z"/><path d="M680.92,722.08q-5.71,9.07-7.2,11.6a10.19,10.19,0,0,0-1.51,3.24c0,.46.21.69.62.69q1.39,0,4.72-4.84c.06-.1.11-.15.16-.15a.08.08,0,0,1,.09.09,2.08,2.08,0,0,1-.15.25l-.65.9q-2.88,4-4.26,4a1.43,1.43,0,0,1-1.14-.53,2,2,0,0,1-.44-1.35,4.28,4.28,0,0,1,.55-1.9q-2.67,3.78-4,3.78a1.66,1.66,0,0,1-1.36-.7,2.74,2.74,0,0,1-.55-1.74q0-2.5,3.12-4.55a8,8,0,0,1,3.9-1.63c.63,0,.95.3.95.91a2.24,2.24,0,0,1-.26,1L679,722a3.2,3.2,0,0,0,1,.16Zm-7.34,8.17c0-.53-.25-.8-.75-.8-.91,0-2.12.91-3.61,2.73s-2.25,3.29-2.25,4.41q0,1,.84,1,1.22,0,4.19-4.23A7.63,7.63,0,0,0,673.58,730.25Z"/><path d="M683,732.71a2.08,2.08,0,0,1-.15.25l-.65.9c-1.92,2.65-3.37,4-4.38,4a1.58,1.58,0,0,1-1.2-.51,1.8,1.8,0,0,1-.48-1.28,6.2,6.2,0,0,1,1.05-2.67l2.38-4a3.64,3.64,0,0,0,.75.11,9.1,9.1,0,0,0,1.15-.11L678.06,735a4.17,4.17,0,0,0-.75,1.9q0,.69.72.69,1.35,0,4.77-4.84.08-.15.15-.15A.08.08,0,0,1,683,732.71Zm-.22-6.29a1.41,1.41,0,0,1-.45,1,1.34,1.34,0,0,1-1,.47.6.6,0,0,1-.68-.69,1.33,1.33,0,0,1,.47-1,1.4,1.4,0,0,1,1-.47A.58.58,0,0,1,682.82,726.42Z"/><path d="M693.78,732.71a14.23,14.23,0,0,1-2.23,3c-1.2,1.44-2.14,2.17-2.83,2.17a1.45,1.45,0,0,1-1.15-.53,2,2,0,0,1-.44-1.32,3.93,3.93,0,0,1,.49-1.78,21.36,21.36,0,0,1-2.33,2.88,2.36,2.36,0,0,1-1.57.75,1.63,1.63,0,0,1-1.35-.7,2.69,2.69,0,0,1-.55-1.74c0-1.95,1.37-3.67,4.12-5.18a6.55,6.55,0,0,1,2.93-1c.63,0,.94.3.94.91a2.76,2.76,0,0,1-.12.69l.78-1.48a3.63,3.63,0,0,0,.8.11,7.15,7.15,0,0,0,1.07-.11l-2.7,4.46a8.7,8.7,0,0,0-1.4,3.09q0,.72.6.72c.4,0,1-.47,1.95-1.4a26.48,26.48,0,0,0,2.73-3.44c.06-.1.12-.15.17-.15A.08.08,0,0,1,693.78,732.71Zm-4.2-2.52c0-.49-.23-.74-.68-.74-.94,0-2.16.91-3.68,2.74s-2.28,3.3-2.28,4.43c0,.66.3,1,.89,1s1.91-1.16,3.64-3.49Q689.59,731.26,689.58,730.19Z"/></svg>